<svg width="60" height="59" viewBox="0 0 60 59" fill="none" xmlns="http://www.w3.org/2000/svg">
<g clip-path="url(#clip0_0_213)">
<path d="M0 0H60V59H0V0Z" fill="white"/>
<path d="M43.8916 8.48905L43.8894 7.43984C43.8895 7.19771 43.872 6.94081 43.9012 6.70047C43.9511 6.28919 44.1821 5.87275 44.485 5.57997C44.8693 5.20845 45.4238 4.997 45.9703 5.00003C46.5294 5.00313 47.0191 5.242 47.4053 5.61648C47.9122 6.10815 47.9372 6.64983 47.9403 7.29882L47.9466 8.49106L50.9462 8.49883C51.6791 8.5 52.4877 8.42628 53.2001 8.59407C53.8779 8.75371 54.4644 9.08276 54.9593 9.54971C55.447 10.0099 55.7885 10.6234 55.9255 11.2641C56.0264 11.7355 55.9946 12.2389 55.9939 12.7178L55.9902 14.5712L56 20.9724L4.00815 21L4.00773 14.6617L4.00708 12.706C4.00723 12.3642 3.98245 12.001 4.02474 11.6623C4.13072 10.8135 4.52429 10.0367 5.17605 9.44429C5.62168 9.03928 6.17234 8.7418 6.76938 8.59458C7.58138 8.39431 8.50194 8.472 9.33733 8.47256L12.1267 8.4853L12.1255 7.3944C12.1285 6.69549 12.1365 6.12103 12.6831 5.59522C13.0834 5.21016 13.5965 5.00791 14.1653 5.01235C14.7231 5.0167 15.229 5.22687 15.6143 5.60978C16.1992 6.19098 16.1732 6.81198 16.1741 7.5651C16.1745 7.86297 16.193 8.17045 16.1737 8.46669L16.1713 8.48133L22.7012 8.47094L22.7008 7.46941C22.7012 7.22772 22.6806 6.96468 22.715 6.72545C22.7764 6.29814 22.9963 5.89344 23.3125 5.58682C23.6832 5.22739 24.2127 5.02225 24.7411 5.0181C25.3154 5.01359 25.8303 5.22414 26.232 5.60976C26.5238 5.8898 26.7675 6.28053 26.8091 6.67951C26.834 6.91807 26.8181 7.17155 26.8192 7.41134L26.8233 8.47737L33.2168 8.48642L33.202 7.34303C33.2004 7.06395 33.1796 6.7714 33.2527 6.49874C33.3422 6.16488 33.5616 5.83897 33.809 5.58967C34.1567 5.23942 34.7003 5.01363 35.2058 5.00705C35.7804 4.99959 36.32 5.20655 36.7266 5.59175C37.2833 6.11905 37.3034 6.70639 37.3044 7.41067L37.3036 8.48977L43.8916 8.48905Z" fill="url(#paint0_linear_0_213)"/>
<path d="M16.0852 10L16.3288 10.2776C16.8517 10.893 17.0673 11.6194 16.9818 12.4135C16.8969 13.2016 16.4863 13.8879 15.8516 14.3805C15.2564 14.8425 14.4726 15.0673 13.7147 14.9823C12.9032 14.8913 12.1764 14.4795 11.6767 13.8511C11.2261 13.2844 10.9147 12.4766 11.0209 11.7524L11.0288 11.701C11.1275 11.032 11.4747 10.5086 11.9358 10.0204L11.9502 11.3656C11.9593 12.1883 11.9469 12.8414 12.5898 13.4598C13.0172 13.8708 13.5218 14.0445 14.1158 14.0391C14.6344 14.0343 15.1389 13.808 15.5001 13.451C15.7995 13.1551 16.0246 12.7294 16.0739 12.315C16.1057 12.0474 16.0805 11.7463 16.0811 11.4753L16.0852 10Z" fill="white"/>
<path d="M27.0545 10L27.2205 10.1553C27.6107 10.5308 27.8816 11.0129 27.9634 11.5438L27.971 11.5907C28.0791 12.314 27.8819 13.1736 27.4267 13.7592C26.9238 14.4063 26.2276 14.8607 25.3961 14.973C24.6049 15.0799 23.8217 14.8659 23.1895 14.3892C22.5466 13.9045 22.1184 13.2022 22.0213 12.4064C21.9334 11.6871 22.1175 10.9577 22.5828 10.39L22.9446 10.0197L22.9431 11.4878C22.9422 12.1911 22.9055 12.8549 23.4298 13.4077C23.829 13.8286 24.353 14.0664 24.9407 14.0817C25.4917 14.0961 26.002 13.8931 26.3983 13.5215C26.7575 13.1848 27.005 12.7715 27.0529 12.281C27.0801 12.0025 27.0517 11.7227 27.0498 11.4435L27.0545 10Z" fill="white"/>
<path d="M37.042 10C37.2178 10.1745 37.4042 10.3484 37.5493 10.5491C37.8395 10.9506 37.9991 11.4848 38 11.975C38.0014 12.7657 37.6918 13.5647 37.1191 14.1272C36.6256 14.6119 36.0144 14.8883 35.3272 14.9769C34.5643 15.0752 33.7658 14.8563 33.1635 14.3869C32.5447 13.9048 32.1031 13.1503 32.0183 12.3745C31.9413 11.6699 32.1043 10.9665 32.5684 10.4142L32.9383 10.0366L32.9409 11.4608C32.9393 11.7483 32.9146 12.0589 32.9552 12.3433L32.9626 12.3906C33.0247 12.8101 33.202 13.1563 33.4992 13.4626C33.8726 13.8476 34.3953 14.0994 34.942 14.1025C35.4987 14.1055 36.0781 13.8656 36.4689 13.4785C36.8188 13.1319 37.0357 12.6328 37.0651 12.1478C37.0806 11.8915 37.0438 11.6324 37.0408 11.3758L37.042 10Z" fill="white"/>
<path d="M48.0184 10C48.4725 10.3617 48.783 10.785 48.9187 11.3486C49.0942 12.0775 48.9866 12.923 48.5845 13.5671C48.1726 14.227 47.492 14.7401 46.7146 14.9195C45.9383 15.0985 45.1232 14.9789 44.4482 14.561C43.7419 14.1237 43.2436 13.4215 43.0691 12.625C42.9861 12.2458 42.9753 11.8532 43.0507 11.4722L43.0611 11.4163C43.1546 10.9297 43.4932 10.3214 43.9299 10.0477L43.9608 10.0291C44.01 10.4949 43.9847 11.0131 43.971 11.4823C43.9496 12.2165 43.9404 12.8547 44.4822 13.4326C44.8454 13.82 45.3506 14.0408 45.8872 14.063C46.4435 14.0859 46.9572 13.9345 47.371 13.5626C47.7023 13.2649 47.9827 12.849 48.0296 12.4023C48.0616 12.0969 48.023 11.7831 48.0175 11.4765L48.0184 10Z" fill="white"/>
<path d="M12.0183 8.50402L12.0171 7.40338C12.0201 6.69824 12.0279 6.11865 12.5643 5.58815C12.9571 5.19964 13.4606 4.99559 14.0187 5.00007C14.5661 5.00446 15.0626 5.21651 15.4407 5.60284C16.0146 6.18923 15.9891 6.81576 15.99 7.57561C15.9903 7.87613 16.0085 8.18636 15.9896 8.48524L15.9872 8.50002L15.9954 10.0953L15.9915 11.5215C15.9909 11.7834 16.0151 12.0746 15.9845 12.3333C15.9372 12.7338 15.7209 13.1453 15.4331 13.4314C15.086 13.7765 14.6013 13.9953 14.1029 13.9999C13.5321 14.0051 13.0472 13.8372 12.6365 13.4399C12.0187 12.8421 12.0306 12.2108 12.0219 11.4155L12.0081 10.1151C11.9907 9.95385 12.0068 9.77192 12.0069 9.60821L12.0183 8.50402Z" fill="url(#paint1_linear_0_213)"/>
<path d="M44.0384 8.50731L44.0363 7.45261C44.0364 7.20921 44.0195 6.95097 44.0478 6.70937C44.0961 6.29594 44.3198 5.87732 44.613 5.58301C44.9852 5.20954 45.522 4.99699 46.0512 5.00003C46.5926 5.00315 47.0668 5.24326 47.4407 5.61971C47.9316 6.11395 47.9557 6.65846 47.9587 7.31085L47.9648 8.50933C47.9895 8.98642 48.0257 9.51514 47.9728 9.98959L47.9719 11.4462C47.9772 11.7487 48.0148 12.0582 47.9837 12.3595C47.9381 12.8001 47.6654 13.2104 47.3432 13.5042C46.9409 13.871 46.4413 14.0204 45.9004 13.9978C45.3786 13.9759 44.8874 13.7581 44.5342 13.3759C44.0074 12.8058 44.0163 12.1762 44.0372 11.4519C44.0504 10.989 44.0751 10.4778 44.0273 10.0183L44.0248 9.9842C43.9784 9.50256 44.0055 8.99041 44.0384 8.50731Z" fill="url(#paint2_linear_0_213)"/>
<path d="M23.0106 8.47009L23.0102 7.46358C23.0106 7.22069 22.9907 6.95634 23.0238 6.71592C23.083 6.28648 23.2947 5.87977 23.5992 5.57162C23.9563 5.21041 24.4662 5.00425 24.975 5.00007C25.5282 4.99554 26.0241 5.20714 26.411 5.59467C26.6919 5.87611 26.9266 6.26878 26.9667 6.66974C26.9907 6.90949 26.9754 7.16423 26.9764 7.40522L26.9804 8.47655L26.9992 9.45884C26.9984 9.63674 27.008 9.82177 26.9768 9.99731L26.9722 11.4126C26.9741 11.6864 27.0016 11.9607 26.9753 12.2337C26.9289 12.7146 26.6895 13.1199 26.3422 13.45C25.9589 13.8143 25.4655 14.0134 24.9326 13.9993C24.3643 13.9843 23.8576 13.7511 23.4715 13.3384C22.9645 12.7965 23 12.1456 23.0008 11.456L23.0023 10.0166L23.0106 8.47009Z" fill="url(#paint3_linear_0_213)"/>
<path d="M33.0456 8.48964L33.0314 7.34294C33.03 7.06305 33.0101 6.76965 33.0798 6.49621C33.1652 6.16138 33.3745 5.83452 33.6106 5.5845C33.9423 5.23324 34.461 5.00679 34.9432 5.0002C35.4914 4.99271 36.0062 5.20027 36.3941 5.58658C36.9252 6.11541 36.9445 6.70446 36.9454 7.41077L36.9446 8.49301L36.9741 9.97756L36.9729 11.3265C36.9759 11.5781 37.0113 11.8322 36.9963 12.0834C36.968 12.559 36.7591 13.0484 36.4218 13.3882C36.0453 13.7678 35.4869 14.003 34.9505 14C34.4237 13.9969 33.9201 13.7501 33.5602 13.3726C33.2739 13.0722 33.103 12.7329 33.0431 12.3215L33.036 12.2752C32.9969 11.9963 33.0207 11.6918 33.0222 11.4099L33.0197 10.0134C33.0213 9.51627 32.9602 8.98053 33.0456 8.48964Z" fill="url(#paint4_linear_0_213)"/>
<path d="M4.01264 22.0063L55.9823 22L55.9968 42.1508L56 48.1601L55.9965 49.8063C55.996 50.16 56.0154 50.5311 55.9645 50.8812C55.8472 51.6873 55.4702 52.3518 54.9114 52.9457L54.8877 52.9692C54.3386 53.4951 53.6099 53.8622 52.8432 53.9545C52.3361 54.0156 51.7935 53.9814 51.2819 53.982L48.4701 53.9848L39.2078 53.9944L10.0486 54L8.41176 53.9959C7.91025 53.994 7.40539 54.0064 6.91428 53.8909C6.26699 53.7388 5.62436 53.3696 5.15859 52.9095C4.56456 52.3228 4.15198 51.5697 4.0315 50.7501C3.98236 50.4158 4.0052 50.0633 4.00594 49.7257L4.00646 48.0726L4.00739 42.2725L4.01264 22.0063Z" fill="url(#paint5_linear_0_213)"/>
<path d="M7.00672 24L52.9733 24.0035L52.9854 41.7131L52.9863 46.9062L52.992 48.274C52.995 48.5841 53.0162 48.9096 52.9741 49.217C52.9166 49.6369 52.6662 50.026 52.3916 50.3435C52.0579 50.6486 51.7053 50.863 51.2486 50.9495C50.8187 51.031 50.3344 50.9894 49.8964 50.9892L47.5434 50.9874L38.8587 50.9911L18.9588 50.9929L12.3244 50.9926L8.92525 50.9855C8.55075 50.9705 8.21952 50.8599 7.91187 50.6547C7.50494 50.3832 7.12055 49.901 7.0363 49.4173L7.02914 49.3729C6.98326 49.1032 7.00503 48.8125 7.00602 48.5389L7.00789 47.1519L7.01155 42.0535L7.00672 24Z" fill="white"/>
<path d="M43.6604 27.0166C44.0338 26.988 44.4196 27.0075 44.795 27.0073L46.8538 27.0069L47.9389 27.006C48.0817 27.006 48.2816 26.9831 48.4182 27.0266C48.643 27.0982 48.8097 27.2358 48.913 27.4473C48.9561 27.5358 48.9838 27.642 48.9876 27.7402L48.9799 30.5285L48.9898 31.6683C48.9931 31.8803 49.0096 32.104 48.992 32.3152C48.9875 32.369 48.9736 32.4182 48.9525 32.468L48.9353 32.5047L48.9192 32.5409C48.8146 32.7629 48.6072 32.8849 48.3829 32.961C48.1459 33.0189 47.8679 32.9928 47.624 32.9924L46.4298 32.992L44.7672 32.9947C44.463 32.995 44.1499 33.0099 43.8466 32.9883C43.7296 32.98 43.6191 32.9514 43.5129 32.9019C43.3009 32.8032 43.1443 32.6266 43.066 32.4077C43.0392 32.333 43.0221 32.2541 43.0178 32.1749C42.9767 31.4169 43.02 30.6328 43.0184 29.8716L43.0156 28.5186C43.0152 28.2706 43.0015 28.0139 43.0234 27.7672C43.0335 27.6532 43.069 27.537 43.1224 27.4355C43.2405 27.2112 43.425 27.0918 43.6604 27.0166Z" fill="url(#paint6_linear_0_213)"/>
<path d="M43.8161 35.0098C44.0721 34.9909 44.3386 35.0051 44.5956 35.0055L46.0036 35.008L47.4199 35.0118C47.6756 35.0126 47.9379 35.0004 48.1925 35.021C48.3032 35.0299 48.3889 35.0545 48.4876 35.104C48.726 35.2237 48.8729 35.4156 48.9544 35.6647C49.0286 35.8919 48.9904 36.1844 48.9885 36.4231L48.9879 37.509L48.9911 39.285C48.9913 39.5869 49.007 39.8976 48.9894 40.1988C48.9827 40.3129 48.9388 40.4298 48.8831 40.5289C48.7388 40.7858 48.4884 40.9281 48.2095 41L45.0926 40.9847C44.6889 40.986 44.2685 41.0102 43.8668 40.9809C43.7416 40.9718 43.6348 40.9457 43.523 40.8878C43.2665 40.755 43.1111 40.5372 43.0359 40.2661C42.9782 40.0577 43.007 39.7994 43.0085 39.5846L43.0093 38.5353L43.0096 36.7919C43.0099 36.4974 42.9925 36.1915 43.0161 35.8981C43.0286 35.7422 43.0645 35.6034 43.1461 35.4677C43.3023 35.2078 43.5298 35.0817 43.8161 35.0098Z" fill="url(#paint7_linear_0_213)"/>
<path d="M44 36L48 36.0209L47.9974 39.994L44.0022 40L44 36Z" fill="white"/>
<path d="M10.7501 27.021C11.0226 26.9961 11.3096 27.0113 11.5839 27.0108L13.0448 27.0079L15.0018 27.0047C15.3574 27.0043 15.7229 26.9904 16.0776 27.0125C16.1762 27.0187 16.2705 27.0418 16.3611 27.0762C16.6141 27.1722 16.8343 27.3489 16.9265 27.5799C17.0457 27.8786 16.9839 28.3337 16.9845 28.6549L16.9854 30.5315L16.9855 31.6412C16.985 31.8286 17.002 32.0307 16.979 32.2158C16.9685 32.3004 16.9232 32.3884 16.8803 32.4638C16.7366 32.7164 16.4863 32.8705 16.1897 32.9633C15.9268 33.0118 15.6262 32.9846 15.3568 32.9845L13.8557 32.9841L11.8608 32.9851C11.5326 32.9857 11.0668 33.0346 10.7554 32.9519C10.4828 32.8796 10.2375 32.7207 10.1073 32.4968C10.0501 32.3985 10.0151 32.2814 10.0063 32.1717C9.9904 31.9754 10.0094 31.7679 10.0114 31.5705L10.0158 30.447L10.0008 27.8508C10.0041 27.7568 10.0229 27.6607 10.0613 27.5726C10.1841 27.291 10.4475 27.1359 10.7501 27.021Z" fill="url(#paint8_linear_0_213)"/>
<path d="M31.0776 27.0112L32.221 27.0049C32.5831 27.0033 32.9614 26.9682 33.2966 27.1117C33.5917 27.2379 33.8254 27.4794 33.9246 27.75L33.9404 27.7952C34.0416 28.0778 33.9831 28.4926 33.984 28.791L33.9883 30.7027L33.9886 31.6445C33.9885 31.7931 34.0029 31.954 33.984 32.1016C33.9689 32.2187 33.9216 32.3412 33.8609 32.4468C33.721 32.6902 33.464 32.8605 33.1684 32.9417L33.1162 32.9553C32.8103 33.0369 32.368 32.982 32.0404 32.9813L29.9168 32.9771L28.8438 32.981C28.3244 32.9821 27.7268 33.0556 27.3278 32.6991C27.1058 32.5008 27.0106 32.2492 27.0076 31.9771L27.0051 29.1687L27.0034 28.253C27.0034 28.0895 26.989 27.9143 27.0196 27.7525C27.0547 27.5665 27.1461 27.4147 27.3029 27.2833C27.4561 27.1549 27.6685 27.0647 27.8782 27.0322C28.1827 26.9849 28.552 27.0205 28.8652 27.0198L31.0776 27.0112Z" fill="url(#paint9_linear_0_213)"/>
<path d="M31.6278 28.0108L33 28L32.9981 31.9966L29.3681 31.9952L28.4827 31.9978C28.3978 31.9972 28.2635 32.012 28.1925 31.9721C28.0982 31.9191 28.0398 31.8486 28.026 31.7535C27.988 31.4942 28.023 31.1983 28.023 30.9344C28.023 30.585 27.967 28.3096 28.0298 28.1861C28.0391 28.1677 28.0851 28.1208 28.0975 28.1095C28.1469 28.0641 28.2345 28.028 28.3058 28.0207C28.6535 27.9851 29.0559 28.0171 29.4087 28.0176L31.6278 28.0108Z" fill="white"/>
<path d="M48.02 43C48.2886 43.0107 48.4996 43.0527 48.7019 43.2801C48.8999 43.5026 48.9921 43.7906 48.9966 44.1043L48.9977 47.4394L48.9968 48.4527C48.9964 48.6513 49.0111 48.8687 48.9806 49.0642C48.9433 49.3041 48.8253 49.5306 48.6745 49.7015C48.5399 49.8541 48.3616 49.9426 48.1768 49.9812C48.0315 50.0115 47.8659 49.996 47.7179 49.9961L46.8799 49.9951H43.9762C43.7246 49.966 43.5184 49.9011 43.326 49.7028C43.1163 49.4868 43.0106 49.199 43.0047 48.8794L43.0019 45.515L43.0032 44.5146C43.0035 44.3237 42.989 44.1178 43.0194 43.9296C43.0548 43.7101 43.1471 43.5073 43.2867 43.3504C43.4133 43.2079 43.5694 43.0747 43.7464 43.0299C43.9025 42.9903 44.0783 43.0055 44.238 43.007L45.0389 43.0114L48.02 43Z" fill="url(#paint10_linear_0_213)"/>
<path d="M22.5013 27.0257L24.3385 27.0137C24.5982 27.0122 24.9152 26.9774 25.1667 27.025C25.3529 27.0603 25.5359 27.1485 25.6714 27.2664C25.8987 27.464 25.9911 27.7009 25.9927 27.9764L25.9958 31.0217L25.9949 31.8321C25.9948 31.9573 26.0116 32.1026 25.9848 32.2253C25.9426 32.4183 25.836 32.5851 25.6787 32.7224C25.5261 32.8557 25.3491 32.9318 25.139 32.9679C24.8714 33.0139 24.5554 32.9865 24.2819 32.9863L22.5615 32.9846L20.8511 32.9898C20.5026 32.9904 20.0751 33.0324 19.7421 32.9417C19.455 32.8635 19.2079 32.6666 19.0863 32.4242C18.9507 32.1537 19.0151 31.728 19.0163 31.4307L19.0247 29.812C19.0253 29.1701 18.9772 28.5036 19.0303 27.8657C19.0394 27.7556 19.0696 27.6549 19.1219 27.5543C19.2295 27.3477 19.4724 27.1689 19.7136 27.0981L19.7595 27.0854C20.0627 26.997 20.4572 27.0412 20.7772 27.0392L22.5013 27.0257Z" fill="url(#paint11_linear_0_213)"/>
<path d="M36.1064 27.0157L39.6594 27.0066L40.704 27.0048C40.8904 27.0044 41.088 26.9913 41.2726 27.0101C41.4059 27.0236 41.5464 27.0904 41.6498 27.163C41.8391 27.296 41.9612 27.5007 41.9835 27.7122C42.0115 27.9781 41.9896 28.2622 41.9903 28.5307L41.9926 30.103L41.9932 31.5158C41.9933 31.7583 42.0143 32.0209 41.982 32.2611C41.9607 32.4198 41.8495 32.5979 41.7284 32.715C41.5101 32.9263 41.2422 32.9867 40.9299 33L35.9662 32.9882C35.6896 32.9642 35.4425 32.8348 35.2731 32.644C35.1541 32.51 35.0669 32.3483 35.035 32.1809C34.9729 31.855 35.0121 31.4732 35.0134 31.1406L35.0214 29.161L35.0154 28.4428C35.0108 28.2681 34.9909 28.0848 35.0236 27.9119L35.0315 27.8738C35.0606 27.7203 35.1224 27.5936 35.2263 27.4658C35.4389 27.2039 35.7535 27.0735 36.1064 27.0157Z" fill="url(#paint12_linear_0_213)"/>
<path d="M10.8281 35.0263C11.7741 34.9724 12.755 35.0179 13.7045 35.0185L15.2758 35.0176C15.5883 35.0177 15.9838 34.9791 16.2805 35.0679C16.5595 35.1513 16.8002 35.3482 16.9183 35.5802C16.9602 35.6626 16.9865 35.7486 16.991 35.8384L16.9935 38.6447L16.9936 39.7098C16.9936 39.9002 17.0265 40.1382 16.9429 40.3162L16.9235 40.3542L16.8517 40.4862C16.683 40.7484 16.4198 40.8808 16.0986 40.967C15.8359 40.9972 15.5587 40.9819 15.2937 40.9806L13.9302 40.9755C12.9998 40.9749 12.0476 41.0246 11.1199 40.984C10.9529 40.9767 10.7856 40.9635 10.6321 40.9023C10.3733 40.7992 10.1655 40.6168 10.0778 40.3808C10.0143 40.2098 10.026 40.0423 10.0266 39.8653L10.0292 39.107L10.0258 37.0538C10.0245 36.6626 9.97786 36.2446 10.0132 35.8573C10.0256 35.7218 10.0653 35.5888 10.1406 35.4687C10.293 35.2256 10.5352 35.1071 10.8281 35.0263Z" fill="url(#paint13_linear_0_213)"/>
<path d="M27.8629 35.0165C28.572 34.9798 29.3046 35.0157 30.0169 35.0155L32.0645 35.0148C32.4288 35.0149 32.9239 34.9658 33.2708 35.0598C33.523 35.1281 33.7358 35.2953 33.8556 35.4972C33.9167 35.6003 33.9604 35.718 33.9692 35.834C34.0074 36.3371 33.9696 36.8627 33.9715 37.3685L33.9786 39.3406C33.9795 39.6257 34.0454 40.0614 33.9413 40.3301L33.9259 40.3667L33.877 40.4756C33.7304 40.735 33.4636 40.888 33.1529 40.973C32.9182 41.0103 32.6555 40.9857 32.4164 40.9842L31.2366 40.9862L29.0112 40.9909C28.6591 40.9914 28.2914 41.0122 27.9419 40.9891C27.8053 40.9801 27.662 40.9373 27.5423 40.881C27.2929 40.7635 27.1055 40.5695 27.0345 40.3315C26.979 40.1457 27.0072 39.912 27.0067 39.7209L27.0081 38.395L27.0097 36.736C27.0103 36.4475 26.9917 36.1466 27.019 35.8594C27.0335 35.7075 27.074 35.559 27.1668 35.4276C27.3282 35.1987 27.5669 35.0758 27.8629 35.0165Z" fill="url(#paint14_linear_0_213)"/>
<path d="M35.853 35.0201C36.4449 34.9759 37.074 35.0183 37.6709 35.0187L39.8611 35.0191L40.6709 35.0202C40.8835 35.0207 41.1212 35.0141 41.3215 35.083C41.5886 35.1747 41.7995 35.3609 41.9104 35.5894C41.9543 35.6796 41.9843 35.7809 41.9926 35.8786C42.0114 36.1003 41.9889 36.3336 41.9855 36.5564L41.9802 37.7332L41.982 39.3453C41.9823 39.6305 42.0003 39.9257 41.9777 40.2097C41.9714 40.2881 41.9413 40.3678 41.9039 40.439C41.7504 40.7307 41.4768 40.8801 41.1399 40.9818C40.9038 41.0144 40.6486 40.9939 40.4088 40.9908L39.2314 40.9811L36.911 40.9809L36.3474 40.9855C36.1692 40.9915 35.9897 41.0138 35.8173 40.9622C35.4953 40.8659 35.2493 40.6789 35.1127 40.4064C35.0616 40.3044 35.0313 40.1968 35.0213 40.086C34.9703 39.5214 35.0264 38.9246 35.0291 38.3559L35.043 35.8193C35.0476 35.7274 35.0777 35.6349 35.1214 35.5513C35.2641 35.278 35.5422 35.1214 35.853 35.0201Z" fill="url(#paint15_linear_0_213)"/>
<path d="M27.018 48.2564L27.0115 47.2134L27.0082 45.4457L27.0066 44.3329C27.0063 44.1365 26.9858 43.9196 27.0186 43.7259C27.0432 43.5809 27.1441 43.4294 27.2568 43.3216C27.4543 43.1329 27.6874 43.0178 27.9884 43.0051L31.0576 43.0017L32.344 43.0032C32.5842 43.0036 32.8427 42.9906 33.081 43.0143C33.2843 43.0345 33.4976 43.12 33.6456 43.2383C33.8034 43.3643 33.9286 43.5336 33.9676 43.7165C34.0004 43.87 33.9865 44.0379 33.9867 44.1938L33.9875 45.0141L34 48.0767C33.9508 48.3834 33.8574 48.6126 33.5513 48.8096C33.4156 48.8969 33.2269 48.9687 33.0568 48.9855C32.7708 49.0136 32.4558 48.9922 32.1671 48.992L30.3177 48.9902L28.7819 48.9912C28.4954 48.9919 28.1698 49.0166 27.8895 48.9704C27.5999 48.9226 27.3151 48.7669 27.1576 48.552C27.0922 48.4627 27.0493 48.3577 27.018 48.2564Z" fill="url(#paint16_linear_0_213)"/>
<path d="M11.1433 43.0193L14.6309 43.0243C15.1054 43.0248 15.6557 42.9621 16.12 43.0362C16.2641 43.0593 16.4159 43.1374 16.5329 43.2214C16.7458 43.3744 16.9435 43.6437 16.9814 43.903C17.0177 44.1518 16.9897 44.4395 16.9896 44.6922L16.9887 46.3134L16.9872 48.156C16.9876 48.4697 17.0128 48.8096 16.9821 49.1203C16.9656 49.2861 16.8831 49.4571 16.7793 49.5863C16.5491 49.8726 16.2402 49.9553 15.8905 49.9917L12.4462 49.9969L11.4942 49.997C11.3043 49.9969 11.1017 50.0113 10.9143 49.9779C10.7339 49.9457 10.556 49.8537 10.4197 49.7328C10.1715 49.5129 10.0281 49.2572 10.0082 48.9227C9.98888 48.5978 10.0095 48.2644 10.0115 47.9387L10.0135 46.1324L10.0079 44.7755C10.0054 44.4879 9.98251 44.1824 10.0321 43.8982C10.0664 43.7014 10.1707 43.5071 10.309 43.3613C10.5613 43.0953 10.7919 43.0415 11.1433 43.0193Z" fill="url(#paint17_linear_0_213)"/>
<path d="M11.1986 44.0229C11.3435 43.9877 11.5273 44.0036 11.6799 44.0033L12.6202 44.0022L15.6419 44.0056C15.796 44.0094 15.8472 44.0178 15.9546 44.1099C16.0395 44.4121 15.9792 44.8123 15.9795 45.1296L15.9781 47.0541L15.9767 47.5702C15.9763 47.6845 15.9904 47.8167 15.9252 47.9219C15.8911 47.9769 15.8661 47.9698 15.7982 47.9902L12.247 47.9867C12.033 47.9868 11.3103 48.0267 11.1739 47.9678C11.1373 47.952 11.1093 47.9258 11.0769 47.9048C11.0159 47.7894 11.0317 47.6677 11.0318 47.5446L11.0325 46.9648L11.0286 45.0072C11.0278 44.7611 10.9719 44.4549 11.0186 44.2175C11.0387 44.1149 11.0999 44.0773 11.1986 44.0229Z" fill="white"/>
<path d="M35.8724 43.0344C36.6445 42.9659 37.4617 43.0209 38.2387 43.0203L40.0977 43.0193C40.4461 43.0193 40.9046 42.9635 41.2317 43.0793C41.5272 43.1838 41.7739 43.4172 41.9027 43.7003C41.9519 43.808 41.9805 43.9214 41.9891 44.0392C42.0104 44.3311 41.9939 44.6337 41.9941 44.9268L41.9949 46.6187L41.9941 48.126C41.9938 48.4095 42.0098 48.7016 41.984 48.9836C41.9728 49.1078 41.9441 49.2234 41.8951 49.3382C41.7499 49.6783 41.4729 49.8404 41.1451 49.9731C40.8903 50.0115 40.6192 49.9935 40.3615 49.9941L39.0447 49.9951L37.0901 49.9949C36.7471 49.9944 36.394 50.0099 36.052 49.9893C35.9457 49.9829 35.8331 49.9575 35.7343 49.9181C35.4534 49.8059 35.1975 49.5454 35.09 49.2651C34.9606 48.9277 35.0214 48.4499 35.0209 48.0879L35.0193 46.3875C35.0192 45.614 34.9724 44.8069 35.0249 44.0367C35.034 43.902 35.0771 43.7682 35.1359 43.6472C35.296 43.3179 35.5347 43.1482 35.8724 43.0344Z" fill="url(#paint18_linear_0_213)"/>
<path d="M19.9173 35.0093C20.2375 34.9912 20.5687 35.0051 20.8902 35.0052L22.7001 35.0065L24.2273 35.0088C24.4906 35.0094 24.7691 34.9939 25.0302 35.0139C25.1879 35.026 25.3389 35.0616 25.4763 35.1318C25.7195 35.256 25.9058 35.4628 25.9686 35.7055C26.0212 35.9082 25.9862 36.1863 25.9859 36.3962L25.9857 37.8316L25.9882 39.439C25.9886 39.6972 26.0185 39.9842 25.9815 40.239C25.9651 40.3521 25.8915 40.4772 25.8222 40.5721C25.6383 40.824 25.3738 40.9385 25.0507 41L21.7138 40.9899L20.5524 40.9885C20.2637 40.9881 19.9408 41.0153 19.6746 40.9012C19.3745 40.7727 19.1718 40.5715 19.0664 40.2959C18.962 40.0232 19.0236 39.5838 19.0233 39.2919L19.0219 37.568C19.0217 37.004 18.9734 36.4073 19.0209 35.8464C19.0313 35.7237 19.0662 35.6186 19.133 35.5102C19.3002 35.2385 19.591 35.0918 19.9173 35.0093Z" fill="url(#paint19_linear_0_213)"/>
<path d="M24.5372 43.0056C24.9602 42.9927 25.3325 42.9764 25.674 43.2764C25.8374 43.42 25.9787 43.6672 25.9905 43.886C26.0108 44.2671 25.9922 44.6605 25.9922 45.0431L25.9906 47.2995L25.9899 48.4689C25.9913 48.6704 26.0147 48.9016 25.9847 49.1001C25.9568 49.2856 25.8205 49.5287 25.6933 49.6619C25.5331 49.8296 25.3247 49.9227 25.0983 49.9606C24.6386 50.0378 24.0779 49.9778 23.6092 49.978L20.4348 49.9834C20.0417 49.9887 19.6954 49.9828 19.3813 49.7075C19.1592 49.5128 19.0134 49.214 19 48.9175L19.0026 45.8215L19.0072 44.6554C19.0085 44.409 18.9924 44.1459 19.0342 43.9027C19.0692 43.6985 19.1795 43.5019 19.3246 43.3556C19.4666 43.2125 19.6499 43.0749 19.8505 43.031C20.0336 42.991 20.2445 43.0081 20.4313 43.0085L21.4432 43.0121L24.5372 43.0056Z" fill="url(#paint20_linear_0_213)"/>
</g>
<defs>
<linearGradient id="paint0_linear_0_213" x1="7.54149" y1="13.0107" x2="55.9999" y2="13.0107" gradientUnits="userSpaceOnUse">
<stop stop-color="#FF372A"/>
<stop offset="1" stop-color="#FF1514"/>
</linearGradient>
<linearGradient id="paint1_linear_0_213" x1="12.2724" y1="9.50603" x2="16" y2="9.50603" gradientUnits="userSpaceOnUse">
<stop stop-color="#FF372A"/>
<stop offset="1" stop-color="#FF1514"/>
</linearGradient>
<linearGradient id="paint2_linear_0_213" x1="44.2724" y1="9.50603" x2="48" y2="9.50603" gradientUnits="userSpaceOnUse">
<stop stop-color="#FF372A"/>
<stop offset="1" stop-color="#FF1514"/>
</linearGradient>
<linearGradient id="paint3_linear_0_213" x1="23.2724" y1="9.50603" x2="27" y2="9.50603" gradientUnits="userSpaceOnUse">
<stop stop-color="#FF372A"/>
<stop offset="1" stop-color="#FF1514"/>
</linearGradient>
<linearGradient id="paint4_linear_0_213" x1="33.2724" y1="9.50603" x2="37" y2="9.50603" gradientUnits="userSpaceOnUse">
<stop stop-color="#FF372A"/>
<stop offset="1" stop-color="#FF1514"/>
</linearGradient>
<linearGradient id="paint5_linear_0_213" x1="7.54149" y1="38.0214" x2="55.9999" y2="38.0214" gradientUnits="userSpaceOnUse">
<stop stop-color="#FF372A"/>
<stop offset="1" stop-color="#FF1514"/>
</linearGradient>
<linearGradient id="paint6_linear_0_213" x1="43.4086" y1="30.004" x2="49" y2="30.004" gradientUnits="userSpaceOnUse">
<stop stop-color="#FF372A"/>
<stop offset="1" stop-color="#FF1514"/>
</linearGradient>
<linearGradient id="paint7_linear_0_213" x1="43.4086" y1="38.004" x2="49" y2="38.004" gradientUnits="userSpaceOnUse">
<stop stop-color="#FF372A"/>
<stop offset="1" stop-color="#FF1514"/>
</linearGradient>
<linearGradient id="paint8_linear_0_213" x1="10.4767" y1="30.004" x2="17" y2="30.004" gradientUnits="userSpaceOnUse">
<stop stop-color="#FF372A"/>
<stop offset="1" stop-color="#FF1514"/>
</linearGradient>
<linearGradient id="paint9_linear_0_213" x1="27.4767" y1="30.004" x2="34" y2="30.004" gradientUnits="userSpaceOnUse">
<stop stop-color="#FF372A"/>
<stop offset="1" stop-color="#FF1514"/>
</linearGradient>
<linearGradient id="paint10_linear_0_213" x1="43.4086" y1="46.5047" x2="49" y2="46.5047" gradientUnits="userSpaceOnUse">
<stop stop-color="#FF372A"/>
<stop offset="1" stop-color="#FF1514"/>
</linearGradient>
<linearGradient id="paint11_linear_0_213" x1="19.4767" y1="30.004" x2="26" y2="30.004" gradientUnits="userSpaceOnUse">
<stop stop-color="#FF372A"/>
<stop offset="1" stop-color="#FF1514"/>
</linearGradient>
<linearGradient id="paint12_linear_0_213" x1="35.4767" y1="30.004" x2="42" y2="30.004" gradientUnits="userSpaceOnUse">
<stop stop-color="#FF372A"/>
<stop offset="1" stop-color="#FF1514"/>
</linearGradient>
<linearGradient id="paint13_linear_0_213" x1="10.4767" y1="38.004" x2="17" y2="38.004" gradientUnits="userSpaceOnUse">
<stop stop-color="#FF372A"/>
<stop offset="1" stop-color="#FF1514"/>
</linearGradient>
<linearGradient id="paint14_linear_0_213" x1="27.4767" y1="38.004" x2="34" y2="38.004" gradientUnits="userSpaceOnUse">
<stop stop-color="#FF372A"/>
<stop offset="1" stop-color="#FF1514"/>
</linearGradient>
<linearGradient id="paint15_linear_0_213" x1="35.4767" y1="38.004" x2="42" y2="38.004" gradientUnits="userSpaceOnUse">
<stop stop-color="#FF372A"/>
<stop offset="1" stop-color="#FF1514"/>
</linearGradient>
<linearGradient id="paint16_linear_0_213" x1="27.4767" y1="46.004" x2="34" y2="46.004" gradientUnits="userSpaceOnUse">
<stop stop-color="#FF372A"/>
<stop offset="1" stop-color="#FF1514"/>
</linearGradient>
<linearGradient id="paint17_linear_0_213" x1="10.4767" y1="46.5047" x2="17" y2="46.5047" gradientUnits="userSpaceOnUse">
<stop stop-color="#FF372A"/>
<stop offset="1" stop-color="#FF1514"/>
</linearGradient>
<linearGradient id="paint18_linear_0_213" x1="35.4767" y1="46.5047" x2="42" y2="46.5047" gradientUnits="userSpaceOnUse">
<stop stop-color="#FF372A"/>
<stop offset="1" stop-color="#FF1514"/>
</linearGradient>
<linearGradient id="paint19_linear_0_213" x1="19.4767" y1="38.004" x2="26" y2="38.004" gradientUnits="userSpaceOnUse">
<stop stop-color="#FF372A"/>
<stop offset="1" stop-color="#FF1514"/>
</linearGradient>
<linearGradient id="paint20_linear_0_213" x1="19.4767" y1="46.5047" x2="26" y2="46.5047" gradientUnits="userSpaceOnUse">
<stop stop-color="#FF372A"/>
<stop offset="1" stop-color="#FF1514"/>
</linearGradient>
<clipPath id="clip0_0_213">
<rect width="60" height="59" fill="white"/>
</clipPath>
</defs>
</svg>
