<svg width="1920" height="900" viewBox="0 0 1920 900" fill="none" xmlns="http://www.w3.org/2000/svg">
<path d="M-196.847 243.367C-191.886 230.255 -185.949 217.523 -180.315 204.691C-175.121 192.861 -164.297 163.275 -167.005 195.443C-167.247 198.317 -174.886 234.595 -164.483 221.927C-143.582 196.478 -126.484 166.582 -111.384 137.429C-106.441 127.885 -103.652 121.333 -104.098 135.467C-104.865 159.757 -93.222 130.44 -89.2474 122.715C-87.9615 120.215 -69.9937 78.8642 -66.2705 95.3893C-64.7593 102.096 -60.6607 176.096 -45.255 157.327C-23.4211 130.727 -14.1428 89.4736 -0.141678 58.3948C11.0365 33.5822 5.65984 45.0834 18.7723 56.0125C36.8361 71.0687 71.4365 56.8952 89.9448 51.8086C96.6847 49.9563 143.948 35.7492 152.291 33.7317C172.465 28.8535 187.498 32.3052 207.492 31.2094C237.944 29.5404 263.044 12.7727 292.114 8.5082C299.509 7.42341 300.875 11.727 305.564 16.0753C318.256 27.8469 329.595 32.8676 347.595 31.2094C378.23 28.3872 407.191 13.2975 435.159 1.64179C454.804 -6.54507 454.595 17.9251 465.562 30.0883C487.957 54.9255 526.625 41.6547 553.827 34.8528C559.552 33.4213 607.601 19.7919 615.192 17.7568C625.168 15.0827 642.396 8.40401 653.721 10.8904C668.752 14.1906 679.605 21.6426 696.032 23.3621C751.556 29.1738 807.55 24.1027 863.175 27.0055C877.35 27.7452 880.033 35.3073 892.597 40.1778C937.654 57.6434 990.166 54.2293 1037.46 52.9297C1064.85 52.1772 1091.71 53.5161 1119 53.0698C1171.94 52.2042 1224.52 46.0623 1277.04 39.8975C1286.36 38.8032 1295.84 35.3566 1305.06 37.0949C1312.46 38.49 1314.27 49.3508 1320.47 53.6303C1351.22 74.8478 1391.01 78.8553 1427.23 81.0959C1444.46 82.162 1477.21 87.5268 1494.2 79.4144C1502.86 75.2795 1491.9 61.7579 1503.31 61.7579C1530.16 61.7579 1557.02 62.0853 1583.87 61.7579C1605.34 61.496 1633.81 5.17975 1649.72 36.5344C1670.24 76.9884 1747.6 36.7604 1774.55 26.3048C1787.05 21.4533 1791.11 17.0313 1802.15 22.8015C1827.82 36.2234 1861.26 19.2523 1887.89 17.4766C1908.13 16.1274 1906.03 28.2602 1918.71 38.7764C1940.6 56.9235 1982.43 47.8432 2007.54 46.6238C2019.8 46.0286 2073.57 35.5978 2082.07 51.3882C2086.16 58.9746 2085.31 80.6646 2085.44 86.1406C2086.02 112.311 2085.27 139.253 2089.64 165.174C2095.56 200.314 2134.82 197.478 2140.64 233.698C2146.28 268.8 2144.92 304.933 2146.24 340.338C2147.23 366.829 2145.8 400.279 2160.53 423.856C2165.67 432.07 2169.54 440.014 2168.94 450.2C2168.36 460.121 2164.69 469.703 2161.09 478.787C2150.24 506.211 2137.37 532.711 2127.33 560.483C2124.01 569.654 2104.9 611.572 2118.92 621.861C2120.31 622.881 2122.32 622.429 2124.48 621.182C2127.9 614.292 2131.57 609.02 2135.31 607.147C2140.34 604.634 2131.54 617.123 2124.48 621.182C2115.19 639.925 2107.74 670.641 2105.61 677.493C2090.37 726.475 2075.63 780.376 2075.63 832.197C2075.63 835.484 2075.26 839.589 2078.85 841.025C2087.89 844.64 2060.05 846.065 2050.69 848.732C2042.26 851.136 2026.72 852.878 2019.59 858.822C2019.16 859.179 2025.57 869.385 2025.89 870.733C2027.23 876.209 2028.71 885.136 2026.03 890.491C2025.54 891.483 2011.4 875.154 2009.22 873.676C1972.43 848.774 1937.02 903.585 1898.68 894.976C1890.47 893.131 1888.89 887.358 1882.57 883.485C1864.67 872.523 1837.88 872.607 1817.84 870.312C1803.42 868.661 1786.74 868.512 1773.57 861.484L1772.89 861.122C1766.99 857.97 1764.02 856.382 1756.75 856.299C1747.31 856.192 1736.31 857.876 1727.05 855.739C1711.99 852.263 1711.63 827.713 1694.27 827.713C1684.23 827.713 1658.73 840.672 1652.94 842.567C1626.37 851.253 1613.48 853.689 1585.41 850.694C1557.01 847.664 1533.26 831.074 1504.57 830.796C1485.94 830.615 1467.43 833.598 1448.81 833.598C1438.21 833.598 1429.37 828.635 1419.11 827.993C1384.16 825.808 1355.97 857.581 1319.35 843.688C1309.61 839.991 1302.98 837.134 1292.17 839.484C1260.42 846.388 1230.87 859.521 1197.74 860.083C1182.59 860.34 1176.45 856.073 1165.23 848.272L1164.68 847.892C1152.2 839.226 1138.63 844.987 1125.45 848.732C1108.39 853.579 1090.41 858.516 1072.49 856.019C1059.22 854.171 1049.92 845.967 1036.06 846.771C1009.02 848.339 982.414 852.537 955.223 853.357C934.87 853.971 907.927 857.915 887.553 852.656C856.244 844.575 828.049 860.376 796.906 863.166C788.287 863.938 782.259 862.437 775.33 857.561C762.78 848.727 750.382 860.024 738.763 866.109C722.555 874.597 699.209 890.099 679.92 882.083C665.874 876.246 659.597 859.228 644.754 854.478C604.543 841.608 562.021 903.461 524.686 871.153C516.477 864.05 514.169 858.551 502.269 864.427C464.679 882.988 432.578 915.629 389.906 923.282C366.253 927.524 355.327 912.306 343.392 895.116C336.711 885.494 330.667 874.085 317.333 876.198C303.539 878.384 290.689 884.611 276.422 884.326C258.956 883.976 249.424 870.833 234.391 864.707C211.355 855.32 185.153 877.695 163.499 865.268C152.57 858.996 146.261 854.925 132.957 852.376C108.426 847.675 94.0987 842.767 73.8329 829.254C45.1991 810.161 11.8432 839.316 -18.6353 827.432C-26.4031 824.404 -32.6668 818.004 -41.0519 816.502C-53.29 814.31 -66.1116 816.866 -78.4595 815.241C-115.161 810.411 -132.554 775.945 -160.98 757.087C-174.908 747.848 -180.959 750.226 -190.962 735.647C-196.431 727.677 -200.969 716.262 -208.195 709.723C-213.487 704.933 -222.082 708.305 -227.67 702.716C-246.969 683.413 -237.197 634.741 -237.197 609.669C-237.197 580.081 -207.865 557.755 -210.017 525.871C-211.271 507.286 -222.171 496.768 -232.993 482.991C-252.44 458.237 -249.808 428.198 -247.2 398.428L-247.144 397.792C-245.512 379.155 -242.621 365.484 -233.554 349.306C-229.461 342.004 -221.028 330.425 -227.67 322.121C-232.538 316.034 -232.695 312.601 -230.892 305.025C-228.511 295.022 -228.292 295.947 -222.065 288.209C-219.171 284.613 -218.587 275.897 -215.761 273.636C-213.678 271.969 -213.876 266.221 -212.538 263.546C-210.093 258.655 -200.229 247.878 -196.847 243.367Z" fill="white" stroke="white" stroke-width="3" stroke-linecap="round"/>
</svg>
