<svg width="234" height="234" viewBox="0 0 234 234" fill="none" xmlns="http://www.w3.org/2000/svg">
<g clip-path="url(#clip0_0_309)">
<path d="M134.384 66.0578C134.724 66.0191 134.949 65.9431 135.271 66.0716C135.376 67.7429 136.029 69.0437 137 70.4316C136.796 70.886 136.234 71.3119 135.888 71.6868C135.525 72.08 135.106 72.741 134.63 73L134.376 72.7035L131 66.3722L134.384 66.0578Z" fill="url(#paint0_linear_0_309)"/>
<path d="M123.695 118L124 118.016C123.344 118.892 122.321 119.598 121.477 120.285C117.604 123.44 113.423 126.133 109.353 129L108.508 127.059C107.822 125.706 107.127 124.65 106 123.652C107.428 123.466 108.846 123.363 110.264 123.089C113.339 122.495 116.263 121.498 119.128 120.212L123.695 118Z" fill="url(#paint1_linear_0_309)"/>
<path d="M99.0057 82C102.617 83.5857 106.626 86.2671 109 89.439L102.96 90.4742C100.001 91.1277 97.1491 92.0578 94.2828 93.0235L87.0005 96L99.0057 82Z" fill="url(#paint2_linear_0_309)"/>
<path d="M158.909 84L158.825 84.405C158.61 85.3455 158.905 86.4807 159 87.4432C158.729 88.1964 157.969 88.9722 157.512 89.6431L153.18 95.9969C144.076 109.023 133.747 121.059 120.772 130.295C117.862 132.367 114.853 134.129 111.824 136L111 134.327C111.32 133.958 111.933 133.688 112.358 133.424L115.469 131.461L119.028 129.018L127.389 122.662L131.042 119.487C131.742 118.843 132.426 118.108 133.172 117.524C133.82 117.017 134.691 116.651 135.396 116.209C136.407 115.576 137.407 114.937 138.291 114.128C140.785 111.845 142.401 108.63 143.123 105.334C143.275 104.641 143.775 104.142 144.199 103.594L145.674 101.559L155.973 87.3464C156.9 86.1633 157.832 85.0499 158.909 84Z" fill="url(#paint3_linear_0_309)"/>
<path d="M101 124L102.144 124.171C102.604 124.248 103.16 124.35 103.557 124.609C104.083 124.952 104.577 125.572 104.964 126.07C107.533 129.374 107.658 133.944 110.015 137.358C110.999 138.783 112.111 140.143 113.416 141.271C114.717 142.397 116.406 143.337 117.386 144.792C117.957 145.638 118.136 146.433 117.899 147.443C117.342 149.815 114.607 151.753 112.708 153L110.616 150.654C110.112 150.017 109.636 149.393 109.224 148.69C109.387 148.452 109.732 148.277 109.961 148.094C110.753 147.459 111.712 146.463 112.094 145.495C112.41 144.695 112.535 143.244 112.188 142.446C111.947 142.592 111.733 142.816 111.586 143.061C111.29 143.552 111.16 144.17 110.92 144.695C110.375 145.89 109.571 147.005 108.788 148.046C108.426 147.407 108.16 146.812 107.938 146.109C108.184 145.561 108.571 145.13 108.946 144.67L108.911 144.647C108.531 144.903 108.175 145.096 107.748 145.26C107.487 145.149 107.477 145.1 107.374 144.815C106.675 142.886 106.441 140.565 106.181 138.534C105.502 133.232 104.314 128.274 101 124Z" fill="#002B41"/>
<path d="M202.908 53.0261C205.263 52.9228 207.72 53.1238 210.013 53.673C214.487 54.7444 218.591 57.1671 221.024 61.1639C222.879 64.212 223.738 67.7103 223.954 71.245C224.038 72.6135 224.035 74.2819 223.714 75.6195C223.459 74.4757 223.527 73.2219 223.393 72.0553C222.997 68.6011 222.066 65.4257 220.273 62.4319C217.994 58.625 214.832 56.5179 210.567 55.4736C202.896 53.5949 194.714 56.7232 188.249 60.6882C182.317 64.2708 176.994 68.714 172.013 73.5206L167.967 77.5946C167.596 77.9705 166.919 78.8622 166.416 79C165.548 78.5983 164.788 78.1136 164 77.5725L165.895 75.3535C168.752 72.1991 171.855 69.3293 175.097 66.5808C182.926 59.9415 192.349 53.5543 202.908 53.0261Z" fill="url(#paint4_linear_0_309)"/>
<path d="M148.675 76C149.836 76.3985 150.977 76.9842 152.093 77.4968C154.133 78.4342 156.125 79.3766 158 80.623L146.357 94.5487L143.549 98C143.338 95.9625 142.656 93.5735 141.798 91.7144C141.449 90.9598 140.838 90.1521 140.664 89.3493L140 86.3807L148.675 76Z" fill="url(#paint5_linear_0_309)"/>
<path d="M192.8 29.0652C194.059 28.9276 195.454 29.0379 196.714 29.1206C200.407 29.3636 203.882 29.9959 207.327 31.4072C211.779 33.2309 215.435 36.228 218.457 39.9767C219.857 41.7135 221.134 43.5731 222 45.6441C221.085 44.3747 220.242 43.0852 219.228 41.888C215.442 37.4172 210.239 33.5198 204.54 32.093C191.778 28.8978 178.417 34.1868 167.598 40.7764C159.8 45.7497 152.585 51.5012 145.963 58C144.474 56.7295 142.708 55.8211 141 54.8903C147.579 48.9671 154.69 43.649 162.336 39.2292C171.764 33.7796 181.881 29.765 192.8 29.0652Z" fill="url(#paint6_linear_0_309)"/>
<path d="M110.542 91.0158C110.804 91 110.77 90.9597 111 91.1284C110.892 92.5741 110.577 93.98 110.568 95.4401C110.564 96.1572 110.711 96.9174 110.805 97.6283C109.132 98.2341 107.354 98.6365 105.654 99.1828C102.04 100.345 98.4864 101.761 95.1224 103.515C92.5268 104.868 89.9826 106.414 87.7072 108.253C87.0939 108.749 86.5188 109.274 85.9555 109.824C85.7527 110.023 85.4239 110.449 85.1976 110.577C84.8879 110.753 84.0922 110.833 83.7185 110.929C82.8344 111.156 82.0387 111.441 81.2266 111.855L83.8682 111.377C82.5624 113.153 81.6223 114.932 80.8785 117L80.1014 116.244C78.0048 113.733 76.3122 111.217 76.0243 107.889C75.8656 106.053 76.5082 104.181 77.7023 102.78C79.1179 101.118 81.8472 100.528 83.8022 99.6175L89.1951 96.9242C96.0657 93.7236 102.957 91.6214 110.542 91.0158Z" fill="#002B41"/>
<path d="M73.7097 79L73.4788 79.7347C72.906 81.7176 72.6035 84.1837 73.6974 86.0521C74.2211 86.9466 75.0595 87.485 76.0557 87.6954C77.3881 87.9769 78.7166 87.6483 79.8278 86.899L80.0005 86.7815C79.478 88.1466 78.1602 89.5075 77.2035 90.5827C73.8224 94.3831 69.6063 97.4091 65.2013 99.9062C63.0055 101.151 60.5424 102.261 58.6337 103.929C58.3989 104.134 57.9284 104.613 57.8207 104.913C57.6761 105.314 58.188 106.685 58.2939 107.149C58.4325 107.757 58.4966 108.379 58.4398 109.002C58.2589 110.982 56.6052 111.602 55.579 112.988C54.7921 114.051 54.6598 115.392 53.5323 116.262C53.1329 116.57 52.8066 116.583 52.3208 116.528C52.1233 116.355 52.0261 116.314 51.9347 116.057C51.3194 114.324 53.285 112.876 53.9687 111.528C53.9668 111.124 53.9546 110.613 53.6521 110.31C53.465 110.122 53.2554 110.136 53.0027 110.154C51.9501 110.231 50.5833 111.441 49.9003 112.185C49.2266 112.919 48.2072 115.014 48.237 116.032C48.5606 117.22 49.3002 118.325 49.4691 119.54C49.5439 120.078 49.4723 120.606 49.1416 121.042C48.8211 121.172 48.5054 121.096 48.1729 121.055C47.6876 120.725 47.479 120.04 47.1869 119.537C47.3247 120.393 47.451 121.322 47.3933 122.188C47.3233 123.24 47.064 124.235 46.241 124.946C46.0303 124.965 45.6644 125.068 45.5005 124.926C45.3257 124.773 45.2287 124.595 45.1496 124.38C44.8914 123.677 44.8295 122.86 44.6323 122.128L43.3801 118.069C43.2331 117.564 42.979 116.899 43.0019 116.371C43.0556 115.136 43.5897 113.709 43.9047 112.516C44.2141 111.345 44.4745 110.008 45.0598 108.941C45.4503 108.23 46.0894 107.72 46.6955 107.197C47.8077 106.238 48.9666 105.369 50.1662 104.525C51.3594 103.685 52.5975 102.893 53.5523 101.774C55.0733 99.9907 56.1758 97.8739 57.3938 95.8832C59.0921 93.1083 60.944 90.3709 63.076 87.9097C64.782 85.94 66.7457 84.1803 68.8506 82.649C70.487 81.4582 72.2242 80.3805 73.7097 79Z" fill="#002B41"/>
<path d="M197.995 40.0511L198.298 40.0258C204.85 39.72 211.447 42.1414 216.221 46.6973C220.269 50.5593 223.141 56.0778 223.865 61.6512C224.009 62.7589 223.967 63.946 224 65.0636C223.55 63.9808 223.305 62.7902 222.874 61.6904C222.44 60.5834 221.73 59.477 221.075 58.4922C218.091 54.0097 213.277 51.7326 208.136 50.7418C197.967 48.7818 187.897 52.8661 179.615 58.5088C172.701 63.2399 166.931 68.9659 161.162 75L155 66.8747C156.888 64.7438 158.985 62.7925 161.043 60.8319C166.523 55.6123 172.455 50.8127 178.947 46.918C184.799 43.4074 191.141 40.6473 197.995 40.0511Z" fill="url(#paint7_linear_0_309)"/>
<path d="M87.9853 54.1747C87.4457 53.2872 86.8878 52.4036 86.1373 51.6726C85.0306 50.5946 83.118 49.4173 81.5091 49.8763C80.2549 50.2342 78.9895 51.4087 78.0769 52.2866C77.3829 52.9543 76.6018 53.9228 75.5381 53.8783C74.1257 53.8193 74.1728 52.0641 73.4114 51.3474C72.9349 50.8989 72.4816 51.1203 71.921 51.0199C71.743 50.9881 71.6215 50.9432 71.5409 50.784C71.4001 50.5056 71.3627 50.1547 71.4511 49.8549L71.5051 49.6885C71.2261 49.4557 70.8051 49.3499 70.4624 49.2257L70.3708 48.3259C70.1226 47.0862 68.5249 47.931 67.6724 47.4412C67.3761 46.7118 67.7521 45.7146 67.9156 44.9602C68.1087 44.0689 68.2856 43.1932 68.39 42.2866L66.9701 40.9591L66.5253 37.6088C66.4125 36.853 66.1989 35.8727 66.3447 35.1142C66.3826 34.918 66.5365 34.7292 66.6552 34.57C67.2696 33.7457 68.5977 33.1114 69.6169 33.0074C72.048 32.7594 72.982 34.3652 73.8297 36.2594C74.0157 36.675 74.1927 37.2313 74.5935 37.4909C75.2751 37.9324 76.4985 37.3506 77.2324 37.9928L77.3512 38.1068L77.6318 38.3754C78.443 39.2375 78.6331 40.2864 78.793 41.3996C79.1214 43.6848 79.0322 46.0105 78.8775 48.3057C79.1923 47.6306 79.2302 46.7399 79.2833 46.0087C79.4491 43.7334 79.382 41.2675 78.6673 39.0781C78.4402 38.3816 77.8835 37.8197 77.681 37.1466C77.5501 36.7118 77.6157 35.9394 77.892 35.5645C78.1706 35.1866 78.3812 35.1085 78.8106 35.0029C79.0777 35.1021 79.2869 35.1893 79.4982 35.3842C79.8654 35.723 80.4391 36.6554 80.4664 37.1648C80.4729 37.284 80.3084 37.6521 80.2678 37.7866C80.1339 38.2287 80.0205 38.7313 80.0347 39.1952C80.0558 39.8842 80.3973 40.5258 80.3737 41.2286C80.3574 41.7114 80.1204 42.0153 79.763 42.3178L79.6739 42.3902L79.7293 42.4592C80.1183 42.4454 80.3027 42.4168 80.5978 42.1436C81.3956 41.4051 81.6563 39.7157 81.7112 38.6793C81.7805 37.3676 81.2516 35.478 80.336 34.5128C79.9061 34.0595 79.4077 33.7319 78.7532 33.7489C78.2126 33.763 77.6679 34.1027 77.3131 34.4865C76.5805 35.2779 76.5322 36.2117 76.5554 37.2204L75.3982 37.0949C73.7295 36.8482 73.8673 34.2008 73.007 33.1108C72.2896 32.2015 71.1657 31.768 70.0263 31.6742C68.4493 31.5447 67.1531 32.1604 66.0005 33.1641C66.1633 30.6756 66.7939 28.3432 68.4475 26.3897C72.4924 21.611 77.8647 20.959 83.4944 23.3476C86.3768 24.5707 89.0068 26.5324 92.3029 26.2122C94.4345 26.0053 96.0834 24.9845 97.4212 23.3873C97.0165 24.6568 96.5593 25.8218 95.6997 26.8655C93.695 29.2992 90.811 29.9433 87.8097 30.2555C89.8129 31.1771 93.015 31.2366 95.1735 30.9999C96.9113 30.8094 98.8457 30.3423 100.196 29.178C100.88 28.5875 101.44 27.8113 102 27.106C101.733 28.4654 100.967 29.941 100.088 31.0156C97.4542 34.2342 94.341 35.1335 90.3223 35.537C91.7138 36.1225 93.1505 36.3461 94.6568 36.1851C96.805 35.9553 98.1584 34.9491 99.4722 33.3385L98.8779 35.2114C98.0162 37.2556 95.9353 38.9463 93.8737 39.735C91.127 40.786 88.6178 39.8222 86.082 38.7426C87.1772 39.6801 88.2958 40.6529 89.5396 41.3933C92.1226 42.9307 94.99 43.3967 97.9154 43.8381L95.8731 47.0881C94.3043 49.6426 92.995 52.3911 90.5804 54.278C90.2938 54.5019 89.9686 54.851 89.6219 54.9598C89.1839 55.0969 88.8151 54.8591 88.4837 54.6132L87.9853 54.1747Z" fill="#002B41"/>
<path d="M70.4637 41.0389L72.0005 41L71.7243 41.2125C71.4059 41.4321 71.2183 41.5517 71.0269 41.8977C70.8474 42.2222 70.6616 42.4873 70.431 42.7804C70.2552 42.9274 70.168 42.9692 69.9378 43C69.5837 42.6648 69.7579 42.5157 69.6419 42.0795C69.4115 42.0154 69.242 41.9534 69.0412 41.8259C69.0169 41.6584 68.9475 41.5665 69.0753 41.4306C69.3994 41.0854 70.0137 41.0863 70.4637 41.0389Z" fill="white"/>
<path d="M83.0005 41C83.6647 41.8575 84.2187 42.823 84.8051 43.735L88.0567 48.8226L90.1895 51.9961C90.4731 52.4273 90.9477 53.0281 90.9946 53.5541C91.0371 54.0291 90.8443 54.2243 90.582 54.5805C90.3347 54.755 90.0627 54.8726 89.789 55L89.6674 54.9543C89.3724 54.7955 89.1566 54.4596 88.992 54.1776C88.4084 53.1775 88.0053 52.056 87.5016 51.0135L83.0005 41Z" fill="white"/>
<path d="M108.902 61.0982C108.788 60.8682 108.081 60.5021 107.846 60.3396C107.14 59.85 106.455 59.3251 105.853 58.7106C104.348 57.1742 102.954 54.8953 103.002 52.6954C103.034 51.2059 103.714 49.9153 104.795 48.9125C107.531 46.3729 111.436 45.7942 115.013 46.0584C115.804 46.1167 116.668 46.4374 117.423 46.4365L117.613 46.4319C120.695 47.5643 123.515 49.5616 126.509 50.9431L136.498 55.092C138.253 55.8018 140.056 56.4694 141.737 57.3421C145.955 59.5318 149.551 62.6251 152.806 66.0387C155.23 68.5813 157.413 71.4007 159.571 74.1685C160.68 75.591 161.749 77.2795 163.087 78.4907C164.539 79.8047 166.313 80.756 168.133 81.464C169.414 81.9627 171.175 82.1373 172.173 83.1016C173.597 84.4785 174.877 86.0565 176.06 87.6449C176.956 88.8491 177.686 90.2134 178.513 91.4714L180.184 93.9451C180.501 94.4089 180.904 94.8775 181 95.4414C180.82 95.7284 180.732 95.8768 180.387 95.9634C179.753 96.122 179.045 95.735 178.554 95.3829C177.286 94.4727 176.241 93.0648 175.277 91.8493C174.158 90.4377 173.052 89.0918 171.734 87.8558C171.516 87.6508 171.045 87.1189 170.767 87.0334C170.554 86.9682 170.043 87.0443 169.808 87.0507C168.767 87.0785 167.624 87.0906 166.591 87.2253C165.759 87.334 164.533 87.5499 164.014 88.2359C163.751 88.5824 163.649 88.948 163.724 89.3804C163.801 89.8162 164.082 90.2732 164.266 90.6789C164.793 91.8431 165.199 93.2843 164.468 94.4632C164.258 94.8003 163.881 94.9685 163.494 95.0207C163.111 95.0722 162.842 94.9717 162.546 94.7344C161.778 94.1181 161.514 91.9566 161.12 91.0025C160.616 89.7811 159.96 88.6107 159.531 87.36C159.393 86.9575 159.342 86.5552 159.321 86.1333C159.223 84.1455 160.609 81.9558 158.868 80.3857C157.965 79.571 156.651 78.9846 155.567 78.4273L149.497 75.5538L143.459 72.8011C141.914 72.0321 140.349 71.2054 139.101 69.9967C137.845 68.7802 137.013 67.1624 136.869 65.4172C136.747 63.9347 137.139 62.4687 138.127 61.3316C138.672 60.7039 139.299 60.1689 139.957 59.664C138.34 60.3756 137.072 61.273 136.136 62.8056C135.959 63.0944 135.787 63.7136 135.584 63.929C135.449 64.071 133.201 64.2433 132.849 64.2778C125.794 64.9709 118.469 64.8701 111.755 62.3076L108.902 61.0982Z" fill="#002B41"/>
<path d="M177.694 11.0626C179.387 10.9362 181.132 11.0249 182.826 11.1203C190.061 11.5279 196.892 13.516 203.171 17.1467C207.647 19.7355 211.427 23.4262 214.63 27.4501C216.13 29.3348 217.628 31.3822 218.763 33.5138C220.683 37.1193 221.956 40.7581 223 44.6907C222.649 44.184 222.418 43.5386 222.167 42.9753C218.326 34.3525 210.452 27.6612 201.718 24.3376C192.322 20.7625 182.055 21.2352 172.519 24.03C168.724 25.1423 165.069 26.6518 161.466 28.2735C157.548 30.0409 153.782 32.2598 150.151 34.5536L141.545 40.2608L129.289 50L115 43.6394C119.299 39.3222 124.101 35.5904 128.998 31.9846C143.248 21.4914 159.643 12.0841 177.694 11.0626Z" fill="url(#paint8_linear_0_309)"/>
<path d="M75.6354 114C76.0988 114.623 76.4217 115.359 76.8327 116.02C77.4979 117.089 78.2764 118.108 79.0569 119.095C79.2305 119.315 79.6969 119.765 79.7731 119.989C79.9278 120.443 79.8074 121.623 79.8179 122.143C79.1766 122.945 78.1977 123.601 77.3945 124.246L72.3921 128.139C62.4489 135.526 51.7405 141.519 39.5375 144.235C37.3419 144.724 35.1175 144.877 32.9095 145.269L32.8586 145.343C33.637 145.45 34.5096 145.353 35.2994 145.316C37.2832 145.222 39.229 145.016 41.1947 144.729C51.8057 143.182 61.8461 139.155 70.9995 133.602C74.7101 131.351 78.302 128.783 81.8129 126.234L83.3594 127.785C82.341 128.722 81.1195 129.503 79.9758 130.281C63.3106 141.618 42.6181 150.377 22.1135 146.454C22.235 146.546 22.3418 146.618 22.4862 146.673C28.2321 148.841 34.7401 148.962 40.7821 148.562C51.8746 147.829 62.7244 145.102 73.128 141.24L82.9089 137.169L87.1797 135.199L90.345 140.325L90.2564 140.422C89.7793 140.809 88.8318 141.108 88.2563 141.361L81.4754 144.155C68.7511 149.031 54.9746 152.256 41.2978 152.277L34.587 151.993C33.3712 151.896 32.1474 151.7 30.9293 151.667C32.1501 152.12 33.4535 152.326 34.7312 152.559L39.9193 153.401C46.9726 154.385 54.2261 154.583 61.3192 153.904C63.9055 153.656 66.4704 153.213 69.0265 152.756C76.8582 151.356 84.5149 149.151 91.88 146.143L93.6046 145.456L95.0005 147.408C91.7543 148.719 88.4542 149.79 85.1119 150.818C76.1972 153.561 67.1942 155.363 57.8963 156.124C52.1982 156.591 46.2828 156.684 40.5986 155.996C37.291 155.596 34.2029 154.736 30.9797 153.969C35.2594 156.092 40.1463 157.335 44.8325 158.173C48.01 158.742 51.1698 159.27 54.3934 159.509C64.1923 160.237 73.8612 158.829 83.4365 156.911L83.4269 156.965C82.1461 157.785 80.4979 158.835 79.0639 159.337C77.9725 159.719 76.7259 159.9 75.5879 160.108L70.2186 160.99C57.6748 162.727 45.0198 162.608 32.8456 158.765C30.5751 158.048 28.359 157.158 26.235 156.08C25.3067 155.609 24.4594 155.002 23.5133 154.569C25.0169 156.173 27.3013 157.37 29.1713 158.516C36.9156 163.26 45.3924 166.858 54.248 168.931L61.5643 170.272L46.1587 180C34.5858 171.526 24.1484 161.944 15.8793 150.15C13.4012 146.616 11.1582 142.856 9.00049 139.119C10.2345 139.945 11.4434 140.707 12.814 141.297C16.7382 142.985 21.2077 143.394 25.4363 143.287C30.0804 143.169 34.7289 142.098 39.1088 140.595C50.1687 136.801 59.624 129.894 68.004 121.86L75.6354 114Z" fill="url(#paint9_linear_0_309)"/>
<path d="M97.9852 44.6089C98.9971 44.6608 100.099 44.8417 101.103 44.748C102.505 44.6171 103.86 44.1961 105.282 44.0826C108.764 43.8045 112.506 44.2237 115.784 45.4135C116.612 45.7143 117.488 46.0134 118.24 46.4749L118.05 46.4795C117.293 46.4804 116.428 46.1617 115.636 46.1038C112.051 45.8413 108.138 46.4163 105.396 48.9395C104.313 49.9359 103.631 51.2182 103.6 52.6981C103.552 54.8839 104.948 57.148 106.456 58.6746C107.06 59.2851 107.746 59.8067 108.454 60.2931C108.689 60.4546 109.398 60.8183 109.512 61.0468L109.479 61.4365C113.529 63.6237 117.9 65.2161 122.48 65.8679C124.282 66.124 126.108 66.2687 127.927 66.3351C128.218 66.3457 129.443 66.2436 129.633 66.3489C129.741 66.4089 130.058 67.0842 130.135 67.2206L133.453 73.845C133.955 74.9515 134.536 76.0958 134.864 77.2645C135.764 80.4699 134.985 84.3401 133.292 87.1878C131.769 89.75 129.683 91.8294 127.038 93.2441L127.148 93.309C131.082 91.7544 134.873 88.8562 136.627 84.9542L137.33 82.8755C137.98 84.7085 138.871 86.9974 139 88.9422C137.172 92.4195 133.199 94.8705 129.497 96.0205C125.657 97.213 121.534 97.2952 117.623 96.3839C116.443 96.109 115.247 95.8044 114.173 95.2308L113.928 95.0852C112.724 89.647 110.125 85.887 105.344 82.8805C101.195 80.2715 96.4922 78.8819 92.861 75.4365C89.5808 78.5762 86.2948 81.8148 82.5675 84.4431C80.9386 85.5915 79.254 86.8089 77.1592 86.8284C76.3164 86.8364 75.4888 86.5848 74.9129 85.9545C74.0389 84.9986 73.9198 83.4793 74.0396 82.2607C74.1339 81.2994 74.5067 80.3175 74.8174 79.4078L77.1585 73.2661C77.9944 70.9472 78.6692 68.553 79.6051 66.2737C80.2581 64.684 80.9756 63.0541 81.8553 61.5728C83.0612 59.5424 84.4477 57.9714 86.3226 56.5108L87.2074 55.8805C85.7458 60.7909 86.0596 65.1949 88.5709 69.7379C89.0974 70.6908 89.7352 71.7724 90.4805 72.5734C90.2622 71.7065 89.5018 70.7092 89.0852 69.9005C88.5874 68.934 88.186 67.9036 87.8378 66.8759C86.8213 63.8735 86.7059 60.9412 87.2441 57.8399C87.4245 56.8011 87.581 55.8703 88.0612 54.9167L88.5592 55.354C88.8904 55.5993 89.259 55.8364 89.6967 55.6996C90.0432 55.5911 90.3682 55.243 90.6547 55.0198C93.0678 53.1381 94.3763 50.3972 95.9441 47.8498L97.9852 44.6089Z" fill="#002B41"/>
<path d="M97.9479 44.611C98.9498 44.663 100.041 44.8446 101.035 44.7505C102.422 44.6191 103.764 44.1967 105.172 44.0829C108.619 43.8039 112.324 44.2245 115.569 45.4183C116.388 45.7201 117.256 46.0202 118 46.4833L117.812 46.4879C117.063 46.4888 116.207 46.1691 115.422 46.1109C111.873 45.8475 108 46.4245 105.285 48.9562C104.213 49.956 103.538 51.2426 103.506 52.7275C103.459 54.9207 104.841 57.1925 106.334 58.7242C106.932 59.3368 107.611 59.8601 108.312 60.3482C108.545 60.5102 109.246 60.8752 109.36 61.1044L109.327 61.4955C106.318 60.4414 103.381 58.8553 101.927 55.8614C100.976 53.9045 100.576 51.5239 101.303 49.4234C101.848 47.848 102.86 46.8644 104.036 45.7478C103.197 46.2086 102.33 46.7035 101.64 47.3759C98.8934 50.0521 97.91 54.0902 95.2626 56.9089C94.7216 57.4849 94.1402 58.0566 93.4776 58.4931C91.8557 59.5616 90.249 59.8913 89.4841 61.8993L89.3658 62.2597C88.5537 65.0682 89.0186 68.1076 90.1238 70.7709C90.5748 71.8579 91.1688 72.9061 91.5841 74C91.381 73.7764 90.5235 72.9277 90.5182 72.67C90.3021 71.8002 89.5494 70.7995 89.1369 69.9881C88.6441 69.0183 88.2467 67.9844 87.902 66.9532C86.8956 63.9407 86.7813 60.9985 87.3142 57.8867C87.4928 56.8444 87.6477 55.9105 88.1231 54.9536L88.6162 55.3924C88.944 55.6385 89.309 55.8764 89.7423 55.7392C90.0854 55.6303 90.4071 55.2811 90.6907 55.057C93.0797 53.169 94.3751 50.4189 95.9272 47.8628L97.9479 44.611Z" fill="url(#paint10_linear_0_309)"/>
<path d="M197.586 108.487C196.031 108.071 192.337 109.309 190.678 109.77C177.789 113.344 165.276 118.322 152.888 123.33L143 127.446L148.329 121.784L157.193 110.8L167.312 96.2374L172.405 89.2895C173.946 91.1099 177.264 95.8718 179.638 96.0133C180.027 96.0365 180.427 95.9861 180.728 95.7158C180.99 95.4798 181.05 95.3192 181.104 94.9799C180.81 94.0794 180.077 93.2423 179.548 92.4549L177.064 88.4449C176.681 87.8156 176.08 87.035 175.876 86.3393C180.367 80.7458 185.791 75.2644 191.929 71.4862C194.598 69.8436 197.665 68.4322 200.815 68.0899C204.03 67.741 207.449 68.3818 210.006 70.4647C213.716 73.4852 215.502 78.1431 215.924 82.8033C216.122 84.9918 215.931 87.3232 215.396 89.4563C214.994 91.0588 214.285 92.6026 213.72 94.1534L210.366 103.538C207.29 112.392 204.811 121.684 200.73 130.144C198.857 134.025 196.468 137.632 193.695 140.928C183.023 153.619 166.155 158.954 150.418 162C151.58 160.895 153.103 160.021 154.411 159.083L161.142 153.946L170.545 146C175.806 141.281 180.832 136.18 185.566 130.937C189.668 126.394 193.713 121.532 196.834 116.252C197.738 114.723 199.214 112.638 199.255 110.845C199.26 110.626 199.261 110.42 199.21 110.207L199.218 109.978C199.229 109.551 199.161 109.31 198.854 109.009C198.472 108.634 198.115 108.496 197.586 108.487Z" fill="url(#paint11_linear_0_309)"/>
<path d="M212.76 116L212.861 116.016C213.01 116.838 212.975 117.75 213 118.586L212.99 124.391C212.852 131.922 212.053 139.471 210.399 146.826C208.615 154.766 205.788 162.619 202.271 169.958C192.174 191.029 174.014 209.902 151.647 217.717C137.783 222.562 122.843 223.127 108.482 220.265C102.342 219.042 96.3333 217.105 90.4866 214.882L79.2407 210.12L67.0005 203.875C67.3172 203.683 67.7441 203.594 68.0983 203.477L70.2054 202.742L77.2509 200.035L88.2214 195.499L98.8384 190.907L119.933 180.555L126.054 177.246C126.899 176.783 127.958 176.024 128.867 175.782C129.967 175.489 131.517 175.597 132.673 175.548L141.705 175.18L158.307 173.891C162.776 173.362 167.317 172.729 171.662 171.53C178.881 169.539 185.528 165.899 191.224 161.072C193.976 158.74 196.331 156.139 198.6 153.342C204.099 146.565 208.2 138.707 210.451 130.263C211.705 125.563 212.359 120.834 212.76 116Z" fill="url(#paint12_linear_0_309)"/>
<path d="M199.992 110.567C199.703 112.475 198.649 114.068 197.647 115.675C195.242 119.53 192.268 123.103 189.246 126.484L179.142 136.942C172.901 142.939 166.128 148.295 159.183 153.448C147.801 161.893 135.974 169.496 123.558 176.329L117.915 179.444L100.109 188.045L74.9109 199.05L46.422 208.749C37.5439 211.331 28.4216 213.619 19.2098 214.593C17.2212 214.803 15.2398 215.043 13.2358 214.993C12.3415 214.971 11.6775 214.955 11.0302 214.275C10.9916 214.034 10.9827 213.848 11.0517 213.61C11.2771 212.832 11.9832 212.035 12.4906 211.415C13.8597 209.743 15.3742 208.174 16.9119 206.657C21.3345 202.295 26.0999 198.366 30.999 194.555C39.4644 187.97 48.3334 181.975 57.3369 176.156L88.4467 156.894L94.4348 153.479L98.6482 151.203C99.0628 151.874 99.382 152.609 99.7072 153.328C99.7943 153.521 100.041 153.933 100.064 154.127C100.083 154.288 99.8731 154.75 99.8131 154.907C99.0916 156.789 97.8162 158.372 96.5636 159.928C95.4533 161.308 94.2957 162.71 93.009 163.93C92.4361 164.473 91.8473 165.029 91.2258 165.517C90.5917 166.014 89.8707 166.394 89.2373 166.891C88.5298 167.446 87.8637 168.104 87.1928 168.706C86.8015 169.056 86.2013 169.436 86.093 169.971C86.1795 170.087 86.2464 170.189 86.3594 170.285C86.672 170.553 87.1221 170.493 87.5035 170.483C87.8259 170.34 87.9312 170.143 88.1092 169.856C87.8472 169.753 87.9477 169.835 87.7953 169.628C88.1014 169.033 88.5852 168.816 89.0504 168.363C89.4618 167.964 89.7011 167.429 90.095 167.019C90.8695 166.212 92.0425 165.621 92.9273 164.907C94.4097 163.712 95.6549 162.23 96.9487 160.839L99.8884 157.527C100.399 156.916 100.968 156.273 101.355 155.573C101.592 155.144 101.757 154.695 101.813 154.206C101.863 153.775 101.789 153.358 101.619 152.961C100.397 150.111 98.4354 147.572 96.7334 144.995L88.9865 132.944L85.1926 126.013C84.5695 124.901 83.746 124.099 83.3016 122.854C82.8836 121.684 82.7815 120.485 82.9174 119.253C83.0856 117.729 83.8918 115.215 85.1608 114.279C86.3683 113.388 88.2584 113.309 89.6833 113.533C91.5919 113.832 94.1854 115.048 95.3062 116.645L95.5449 116.952C95.5284 116.714 95.5595 116.784 95.4469 116.581C95.0581 115.88 94.527 115.287 93.9902 114.697C92.1496 112.675 90.3322 111.694 87.7575 110.864C92.1322 106.957 97.27 104.429 102.818 102.651C105.321 101.849 107.869 101.167 110.482 100.842C112.182 100.63 114.281 100.614 115.846 101.403C116.482 101.723 117.055 102.218 117.614 102.655C117.199 101.938 116.527 101.37 115.911 100.83C114.249 99.3749 113.155 98.2883 112.413 96.1512C113.306 96.7757 114.209 97.4313 115.201 97.8932C118.222 99.2995 122.234 99.5035 125.524 99.2236C129.538 98.8817 133.865 97.4269 137.057 94.9301C138.151 94.0742 139.073 93.0528 139.971 92C141.523 95.5665 142.448 100.151 141.785 104.022C141.168 107.625 139.174 110.972 136.17 113.095C133.321 115.109 129.531 116.064 126.073 115.708C125.505 115.649 124.937 115.513 124.379 115.398C124.279 115.378 123.962 115.276 123.867 115.291C123.642 115.327 122.955 115.859 122.714 116.001C122.002 116.422 121.265 116.777 120.513 117.121C114.6 119.828 107.983 121.971 101.417 120.83C101.369 119.929 101.305 118.863 101.473 117.976C101.735 116.602 102.164 115.449 102.727 114.166C101.957 114.866 101.262 116.402 100.881 117.364C100.168 119.167 99.8708 121.117 100.655 122.923C99.4799 121.478 97.9184 120.147 96.0458 119.746C93.4031 119.18 90.4421 119.786 88.166 121.197C89.3215 120.909 90.4855 120.562 91.6821 120.513C94.1097 120.413 96.2393 121.565 97.9779 123.202C101.973 126.965 103.736 132.267 104.573 137.547C105.141 141.126 105.542 144.775 107.077 148.104C107.5 149.02 108.013 149.923 108.604 150.741C109.775 152.36 112.452 154.774 112.45 156.863C112.45 158.161 111.869 159.14 110.99 160.041C110.377 160.669 109.633 161.326 108.889 161.792C107.468 162.682 105.902 163.279 104.503 164.241C103.65 164.827 102.818 165.464 102.063 166.173C101.184 166.997 100.362 167.906 99.3195 168.529C98.6514 168.929 97.8988 169.216 97.1141 169.225L96.7945 168.806C96.5187 168.769 96.2622 168.716 95.9899 168.801L95.8556 168.857L95.3407 168.557C95.1602 168.581 95.0751 168.614 94.9389 168.737C94.7092 168.946 94.5753 169.107 94.2632 169.183C94.0715 169.229 93.9616 169.255 93.7962 169.376C93.9058 169.9 93.4202 170.103 93.5102 170.497C93.949 170.5 94.2497 170.487 94.6561 170.314C94.9151 169.691 95.0591 169.469 95.684 169.205C96.0123 169.261 96.2222 169.229 96.5455 169.148L96.6565 169.119L96.8238 169.285L95.7995 170.203C98.0111 170.117 100.361 169.978 102.329 168.859C103.325 168.293 104.185 167.52 105.057 166.786C106.002 165.991 106.962 165.19 108.074 164.638C110.092 163.639 112.372 163.482 114.39 162.357C115.359 161.817 116.554 160.631 116.764 159.51C116.824 159.195 116.67 158.735 116.583 158.419C116.083 156.587 115.078 155.095 113.935 153.608C116.038 152.875 118.078 152.048 120.027 150.961C120.856 150.499 121.773 149.986 122.419 149.277C123.023 148.613 123.231 147.813 123.181 146.933C123.059 144.807 120.811 143.716 119.371 142.453C120.588 141.616 122.155 141.021 123.49 140.367L135.042 134.927L176.428 116.822C183.57 113.914 190.827 110.545 198.371 108.85C198.899 108.859 199.255 108.998 199.637 109.372C199.943 109.672 200.01 109.913 199.999 110.339L199.992 110.567Z" fill="#002B41"/>
<path d="M92.4032 168.037C92.6502 167.988 92.7621 167.98 93.0005 168.061L92.9887 168.223C92.7551 168.548 92.5928 168.718 92.1911 168.868C91.9667 168.952 91.829 168.973 91.6788 169.158L91.8356 169.446C91.5954 169.74 91.2164 169.819 90.8559 169.942C90.5391 169.984 90.3114 170.045 90.0005 169.949C90.5618 169.033 91.4456 168.567 92.4032 168.037Z" fill="white"/>
<path d="M90.6583 168.002L90.7114 168C91.0881 168.082 91.3409 168.086 91.7237 168.053L91.8766 168.038L92.0005 168.206L91.813 168.503C91.5198 168.67 91.2758 168.825 90.9378 168.857C90.4141 168.908 90.1406 169.258 89.7459 169.608C89.7975 169.843 89.8321 170.007 89.7349 170.238C89.5594 170.657 89.0467 170.81 88.6781 171L88.1249 170.997C88.3996 170.692 88.5308 170.494 88.6783 170.103L88.5641 169.866L88.0005 169.764C88.2635 168.976 89.5371 169.269 89.987 168.748L90.2838 168.4L90.6583 168.002Z" fill="white"/>
<path d="M105.241 152.035L105.477 152C105.794 152.004 105.854 152.162 106 152.376C105.93 154.519 104.596 156.064 103.312 157.756L103.131 158H103C103.517 156.811 104.075 155.628 104.5 154.407C104.772 153.628 104.838 152.763 105.241 152.035Z" fill="white"/>
</g>
<defs>
<linearGradient id="paint0_linear_0_309" x1="131.409" y1="69.5047" x2="137" y2="69.5047" gradientUnits="userSpaceOnUse">
<stop stop-color="#FF372A"/>
<stop offset="1" stop-color="#FF1514"/>
</linearGradient>
<linearGradient id="paint1_linear_0_309" x1="107.226" y1="123.507" x2="124" y2="123.507" gradientUnits="userSpaceOnUse">
<stop stop-color="#FF372A"/>
<stop offset="1" stop-color="#FF1514"/>
</linearGradient>
<linearGradient id="paint2_linear_0_309" x1="88.4988" y1="89.0094" x2="109" y2="89.0094" gradientUnits="userSpaceOnUse">
<stop stop-color="#FF372A"/>
<stop offset="1" stop-color="#FF1514"/>
</linearGradient>
<linearGradient id="paint3_linear_0_309" x1="114.27" y1="110.035" x2="159" y2="110.035" gradientUnits="userSpaceOnUse">
<stop stop-color="#FF372A"/>
<stop offset="1" stop-color="#FF1514"/>
</linearGradient>
<linearGradient id="paint4_linear_0_309" x1="168.087" y1="66.0174" x2="224" y2="66.0174" gradientUnits="userSpaceOnUse">
<stop stop-color="#FF372A"/>
<stop offset="1" stop-color="#FF1514"/>
</linearGradient>
<linearGradient id="paint5_linear_0_309" x1="141.226" y1="87.0147" x2="158" y2="87.0147" gradientUnits="userSpaceOnUse">
<stop stop-color="#FF372A"/>
<stop offset="1" stop-color="#FF1514"/>
</linearGradient>
<linearGradient id="paint6_linear_0_309" x1="146.517" y1="43.5194" x2="222" y2="43.5194" gradientUnits="userSpaceOnUse">
<stop stop-color="#FF372A"/>
<stop offset="1" stop-color="#FF1514"/>
</linearGradient>
<linearGradient id="paint7_linear_0_309" x1="159.7" y1="57.5235" x2="224" y2="57.5235" gradientUnits="userSpaceOnUse">
<stop stop-color="#FF372A"/>
<stop offset="1" stop-color="#FF1514"/>
</linearGradient>
<linearGradient id="paint8_linear_0_309" x1="122.356" y1="30.5261" x2="223" y2="30.5261" gradientUnits="userSpaceOnUse">
<stop stop-color="#FF372A"/>
<stop offset="1" stop-color="#FF1514"/>
</linearGradient>
<linearGradient id="paint9_linear_0_309" x1="14.8576" y1="147.044" x2="95.0003" y2="147.044" gradientUnits="userSpaceOnUse">
<stop stop-color="#FF372A"/>
<stop offset="1" stop-color="#FF1514"/>
</linearGradient>
<linearGradient id="paint10_linear_0_309" x1="89.1118" y1="59.0201" x2="118" y2="59.0201" gradientUnits="userSpaceOnUse">
<stop stop-color="#FF372A"/>
<stop offset="1" stop-color="#FF1514"/>
</linearGradient>
<linearGradient id="paint11_linear_0_309" x1="147.972" y1="115.063" x2="216" y2="115.063" gradientUnits="userSpaceOnUse">
<stop stop-color="#FF372A"/>
<stop offset="1" stop-color="#FF1514"/>
</linearGradient>
<linearGradient id="paint12_linear_0_309" x1="76.9439" y1="169.071" x2="213" y2="169.071" gradientUnits="userSpaceOnUse">
<stop stop-color="#FF372A"/>
<stop offset="1" stop-color="#FF1514"/>
</linearGradient>
<clipPath id="clip0_0_309">
<rect width="234" height="234" fill="white" transform="translate(0.000488281)"/>
</clipPath>
</defs>
</svg>
