<svg width="234" height="234" viewBox="0 0 234 234" fill="none" xmlns="http://www.w3.org/2000/svg">
<g clip-path="url(#clip0_0_439)">
<path d="M35.4686 183.255C35.6797 183.174 35.9641 183.154 36.1871 183.188C36.583 183.248 36.9293 183.551 37.1446 183.885C37.3741 184.24 37.464 184.682 37.356 185.097C37.2277 185.59 36.8772 185.79 36.4662 186.025L36.1349 186.049C35.6574 186.049 35.0808 185.81 34.7789 185.42C34.554 185.13 34.4737 184.647 34.5559 184.292C34.6721 183.79 35.0541 183.497 35.4686 183.255Z" fill="url(#paint0_linear_0_439)"/>
<path d="M140.635 127.558C141.058 127.537 141.468 127.539 141.854 127.744C142.295 127.978 142.666 128.368 142.813 128.868C142.961 129.37 142.902 129.858 142.659 130.317C142.351 130.898 141.933 131.203 141.33 131.379C141.075 131.398 140.815 131.376 140.565 131.319C140.057 131.203 139.575 130.953 139.304 130.473C139.085 130.088 138.981 129.419 139.122 128.992C139.381 128.208 139.946 127.871 140.635 127.558Z" fill="url(#paint1_linear_0_439)"/>
<path d="M130.945 140.988C131.486 140.962 131.989 140.964 132.509 141.112C133.221 141.313 133.778 141.815 134.083 142.393C134.376 142.947 134.278 143.619 134.017 144.168C133.595 145.054 132.813 145.416 131.842 145.741C131.297 145.804 130.709 145.776 130.206 145.57C129.444 145.258 128.856 144.739 128.616 144.034C128.395 143.383 128.525 142.784 128.904 142.203C129.369 141.491 130.066 141.206 130.945 140.988Z" fill="url(#paint2_linear_0_439)"/>
<path d="M137.47 134.283C138.145 134.244 138.722 134.227 139.348 134.536C140.015 134.865 140.567 135.501 140.799 136.199C141.056 136.969 141.049 137.749 140.664 138.478C140.254 139.253 139.602 139.688 138.78 139.956C138.166 140.061 137.547 140.038 136.958 139.818C136.261 139.557 135.696 138.926 135.423 138.254C135.144 137.57 135.153 136.694 135.459 136.023C135.878 135.107 136.562 134.643 137.47 134.283Z" fill="url(#paint3_linear_0_439)"/>
<path d="M50.8795 177.418C51.4361 177.416 51.9441 177.431 52.4668 177.642C53.3513 178 54.1004 178.745 54.4379 179.643C54.7843 180.563 54.7345 181.418 54.2733 182.295C53.7496 183.291 52.9141 183.825 51.8581 184.126C51.2112 184.139 50.626 184.148 50.0173 183.882C49.1348 183.497 48.4925 182.813 48.1731 181.903C47.8574 181.003 47.853 180.049 48.3213 179.198C48.8661 178.208 49.8522 177.741 50.8795 177.418Z" fill="url(#paint4_linear_0_439)"/>
<path d="M42.0561 174.57C42.8045 174.526 43.4024 174.487 44.1045 174.823C44.966 175.236 45.5874 176.051 45.8635 176.971C46.1565 177.948 46.0723 178.724 45.5894 179.621C45.0792 180.568 44.2759 180.985 43.2946 181.244C42.6866 181.28 41.9625 181.225 41.3878 181.014C40.6121 180.728 39.8682 179.992 39.5391 179.22C39.1969 178.416 39.2771 177.363 39.6283 176.576C40.1284 175.455 40.9754 174.966 42.0561 174.57Z" fill="url(#paint5_linear_0_439)"/>
<path d="M79.5981 116.041C80.484 115.001 81.6319 114.126 82.7099 113.283C85.4378 111.151 88.397 109.163 91.5346 107.659C96.0442 105.497 100.812 104.183 105.81 103.73C108.473 103.489 111.242 103.487 113.875 104.012C114.94 104.225 115.974 104.615 117 104.959C115.476 105.008 113.965 104.974 112.444 105.102C106.946 105.564 101.443 107.041 96.3608 109.099L87.7716 113.014C86.2372 113.787 84.5533 114.889 82.9376 115.448C82.3979 115.635 81.7375 115.677 81.1718 115.775C80.6364 115.867 80.1466 116.01 79.5981 116.041Z" fill="url(#paint6_linear_0_439)"/>
<path d="M152.544 101.703L154.254 101.656L155.568 107.093C156.432 110.387 158.188 114.72 156.703 118.05C156.847 115.808 156.91 113.898 155.96 111.799C155.965 112.06 155.95 111.966 156.001 112.198C156.36 113.847 156.612 115.672 156.333 117.354C156.124 118.612 155.364 120.661 154.288 121.348C153.998 121.534 153.67 121.628 153.343 121.554C154.012 120.47 154.718 119.461 154.974 118.166C155.302 116.507 155.406 113.715 154.477 112.219C154.335 112.663 154.752 113.819 154.808 114.367C155.016 116.413 154.607 119.209 153.285 120.809C152.938 121.229 152.171 121.751 151.627 121.76C151.358 121.765 151.097 121.837 150.854 121.714C151.318 121.19 151.695 120.821 152.062 120.207C152.511 119.262 152.873 118.255 152.973 117.197C153.105 115.78 153.044 114.558 152.499 113.229C152.683 115.54 152.704 117.576 151.733 119.733C151.245 120.816 150.651 121.176 149.848 121.933C149.542 122.22 149.25 122.61 148.856 122.754C147.909 121.717 149.37 120.106 149.901 119.201C150.17 118.743 150.383 118.227 150.551 117.719C150.927 116.582 150.911 114.998 150.693 113.823C150.54 113.002 150.065 111.983 149.367 111.538C147.423 110.301 145.112 114.18 143.309 114.707C143.045 114.556 143.028 114.54 142.894 114.258C143.023 113.209 146.03 108.066 146.888 107.3C147.939 106.363 149.354 106.099 150.242 104.909C150.68 104.322 150.518 103.648 150.446 102.965C150.967 102.375 151.837 101.98 152.544 101.703Z" fill="#002B41"/>
<path d="M82.3548 195.639C84.6503 196.386 86.9887 197.651 89.1886 198.671C83.6337 202.312 77.7093 205.253 71.3379 207.06C64.3885 209.031 56.7694 209.539 49.6249 208.629C47.2213 208.258 44.4064 207.798 42.1968 206.738C44.8612 207.07 47.4697 207.025 50.1453 206.878C57.6599 206.465 65.2475 204.656 72.1371 201.527C75.677 199.919 79.1236 197.824 82.3548 195.639Z" fill="url(#paint7_linear_0_439)"/>
<path d="M69.3709 187.967C70.531 188.453 71.6624 189.332 72.7687 189.961L79.5986 193.642L75.3259 196.104C62.372 202.837 47.4059 204.223 33.4705 199.804C29.7923 198.476 26.2575 197.016 23.0166 194.789L28.2048 196.263C42.5004 199.366 57.1614 195.795 69.3709 187.967Z" fill="url(#paint8_linear_0_439)"/>
<path d="M58.2105 181.254L69.0491 188.37C64.2852 190.947 59.1215 193.169 53.9001 194.659C44.286 197.402 33.8485 197.63 24.8687 192.749C22.2817 191.199 20.1154 189.387 18.2212 187.049L22.3817 189.286C24.8838 190.419 27.79 191.361 30.5394 191.653C35.4775 192.177 40.3727 191.012 44.9677 189.318C44.4866 188.851 43.9252 188.326 43.8188 187.633C43.6788 186.722 43.8996 185.854 44.4767 185.127C45.0224 184.44 45.8272 184.051 46.6969 183.962C47.4704 183.883 48.25 184.212 48.8361 184.692C49.6579 185.366 49.6718 186.053 49.7585 187.022C50.1598 186.959 50.7543 186.503 51.116 186.291C53.6366 184.809 55.93 183.068 58.2105 181.254Z" fill="url(#paint9_linear_0_439)"/>
<path d="M75.7622 43.6906C76.7498 41.7601 78.0427 40.2761 80.203 39.6131C81.787 39.1271 83.4929 39.2314 84.9533 40.0287C86.2892 40.7578 87.3068 41.9955 87.7114 43.4574L87.8541 44.2474L87.8827 44.4348C88.0031 45.2761 87.9135 46.1348 87.7947 46.9714L94.4787 47.3116C95.0803 48.1138 95.9017 48.7201 96.7175 49.2951C99.6376 51.3535 103.136 52.5725 106.412 53.9657C107.048 54.0355 107.799 53.5583 108.494 53.5488C109.698 53.5321 111.005 53.928 112.205 54.1041C110.655 54.3592 109.188 54.6265 107.721 55.21C104.579 56.4594 101.823 58.9098 99.6893 61.4583C98.6646 62.6822 97.7462 64.0563 96.6447 65.2077C95.9732 65.9098 95.1074 66.5761 94.1744 65.8736C93.3798 65.2752 93.1801 64.1104 92.8615 63.2287C92.654 62.8021 92.6032 62.1912 92.4492 61.7274C92.1941 60.9592 91.686 60.247 91.2718 59.554C91.0832 59.4917 90.3296 58.5506 90.1553 58.3614L89.5962 58.5179C87.3803 59.1371 86.1718 61.4294 83.6547 61.5077C83.3652 61.5168 83.178 61.4624 82.9695 61.2513C82.4771 60.7529 82.1021 59.4312 82.1552 58.7335C82.1793 58.417 82.1793 58.6515 82.1693 58.3558C81.8439 58.3371 81.6941 58.3073 81.4045 58.1362L81.3467 57.9043C81.5963 57.2346 82.1208 56.7964 82.6239 56.3091C82.18 56.491 81.1344 57.1111 80.7236 57.0014C80.743 56.8303 80.8015 56.6423 80.7332 56.4777C80.6092 56.1779 80.302 55.9438 80.0724 55.7204C79.99 55.6398 79.6146 55.2156 79.5247 55.1919C79.4721 55.1779 79.0657 55.3016 78.9991 55.3163C78.4891 55.4285 78.0968 55.526 77.5931 55.3522C77.388 55.1337 77.2793 55.0391 77.2206 54.7344C77.1077 54.149 77.2629 53.4235 77.3409 52.8344L77.7098 49.6086C77.7255 49.3874 77.809 49.0481 77.7266 48.8371C77.5309 48.335 77.2194 47.8513 77.0048 47.3499C76.494 46.1567 76.0899 44.9445 75.7622 43.6906Z" fill="#002B41"/>
<path d="M80.5102 47.988L82.4752 47.9507L82.1221 48.1545C81.7149 48.3651 81.475 48.4798 81.2304 48.8116C81.0008 49.1228 80.7632 49.377 80.4683 49.6581C80.2436 49.7991 80.1321 49.8392 79.8377 49.8687C79.3849 49.5472 79.6076 49.4042 79.4593 48.986C79.1647 48.9245 78.948 48.865 78.6912 48.7427C78.6602 48.5821 78.5714 48.4939 78.7348 48.3636C79.1493 48.0326 79.9348 48.0335 80.5102 47.988Z" fill="white"/>
<path d="M91.1064 59.4574C92.0273 59.8827 93.0146 61.3327 93.7244 62.11C93.9882 62.3988 94.2923 62.785 94.6952 62.8262C94.8308 61.7967 94.3845 60.617 94.1196 59.6154L92.0642 52.9167L92.1697 52.7461C92.8579 54.0786 93.3577 55.5377 93.8097 56.9648C94.0035 57.5764 94.2554 58.1627 94.3863 58.7927L94.5053 59.2998C94.6565 59.7695 94.7319 60.2251 94.8333 60.7044C95.0448 61.703 94.9821 62.6876 94.9567 63.702L95.3275 63.4104C96.066 62.8202 96.6561 62.0454 97.2756 61.3336C98.3432 60.1071 99.3973 58.8612 100.575 57.7376C101.673 56.6909 102.898 55.6319 104.23 54.8951C104.931 54.5073 105.708 54.2451 106.366 53.7875C107.008 53.8583 107.764 53.3741 108.465 53.3645C109.678 53.3475 110.996 53.7492 112.205 53.9279C110.643 54.1867 109.164 54.4579 107.686 55.0499C104.519 56.3176 101.741 58.8037 99.5904 61.3895C98.5576 62.6313 97.632 64.0254 96.5217 65.1937C95.8449 65.906 94.9723 66.5821 94.032 65.8693C93.2311 65.2622 93.0297 64.0804 92.7086 63.1858C92.4995 62.7529 92.4483 62.1331 92.2931 61.6625C92.036 60.8831 91.5239 60.1605 91.1064 59.4574Z" fill="url(#paint10_linear_0_439)"/>
<path d="M93.8427 200.435L106.963 205.238C101.88 207.778 96.9337 210.162 91.3662 211.382L86.637 212.309L84.1367 212.719C83.6738 212.799 83.2716 212.79 82.8201 212.946C83.2713 213.033 83.7956 212.943 84.2553 212.907L86.9712 212.627C94.5917 211.683 101.494 209.57 108.221 205.75L126.59 211.462L113.252 214.792L106.641 216.009C96.1945 217.8 85.3559 218.312 74.8418 216.83C69.7544 216.114 64.8076 214.895 59.881 213.437L55.1623 211.97C54.4246 211.737 53.3755 211.552 52.7461 211.091C62.9844 212.987 74.3579 210.685 83.7035 206.271C87.216 204.613 90.5682 202.539 93.8427 200.435Z" fill="url(#paint11_linear_0_439)"/>
<path d="M93.9836 82.9063C92.0048 83.9683 90.3956 85.5932 88.6596 87.0022C86.7128 88.5827 84.6694 90.0208 82.5093 91.29C80.838 92.2724 79.1117 93.1657 77.3031 93.8648L75.1 94.6489C74.9774 94.6912 74.5514 94.7954 74.4706 94.8654C74.3766 94.9468 74.1951 95.3689 74.1221 95.4973L73.094 97.1234C71.3494 99.7285 69.3948 101.983 66.8545 103.833C64.7535 105.363 62.4798 106.611 60.2419 107.918L54.4085 111.459C52.6333 112.548 50.5949 113.718 49.0765 115.153C48.6266 115.578 48.0785 116.339 47.9722 116.97C47.8087 117.94 47.9548 118.903 47.5141 119.822C46.8998 121.103 45.5553 121.967 44.9372 123.255L44.8806 123.381L44.8226 123.505C44.5677 124.107 44.8345 124.931 45.0602 125.51L45.118 125.654L45.0351 125.84C44.91 125.883 44.9034 125.894 44.7498 125.899C44.2974 125.913 43.9132 125.622 43.6425 125.287C42.338 123.674 43.7178 122.187 43.902 120.535C43.8231 120.276 43.7514 120.087 43.5558 119.893C43.0031 119.345 41.6893 119.457 40.9604 119.469C40.0214 119.483 38.8967 119.587 38.0455 120.017C36.948 120.572 35.7125 121.978 35.0487 123.031C34.5136 123.88 34.1491 124.73 33.4235 125.448C33.1406 125.728 32.8898 125.921 32.4807 125.922L32.3614 125.711C32.5262 124.761 32.953 123.795 33.341 122.914C34.0749 121.248 35.1477 119.973 36.3776 118.659C36.9677 118.028 37.6248 117.319 38.3692 116.873C39.078 116.448 40.0408 116.189 40.8123 115.893C40.5671 115.78 39.5041 116.193 39.2106 116.291C38.7547 116.443 38.292 116.602 37.8951 116.881C37.3025 117.297 36.7784 117.948 36.2813 118.478C35.3927 119.424 34.3338 120.447 33.7008 121.59C32.9514 122.944 32.46 124.462 31.7574 125.848C31.5017 126.352 31.3415 126.419 30.8258 126.59C30.4469 126.517 30.4099 126.497 30.1308 126.229C30.0662 125.456 30.4369 125.054 30.858 124.458C30.7316 124.29 30.8035 124.36 30.6256 124.231L30.2839 123.976C29.8886 123.644 29.7699 123.217 29.7295 122.721C29.8929 122.194 30.3328 121.802 30.7001 121.407C31.4408 120.609 32.2705 119.853 32.9541 119.005C33.7325 118.041 34.1427 116.892 35.1628 116.134L35.2178 116.337L34.6819 116.912L34.7063 117.079L35.6221 116.133C36.6645 115.184 37.9789 115.353 39.2827 115.4C38.4123 115.693 37.1631 115.883 36.4109 116.405C35.6695 116.919 34.9615 118.062 34.4422 118.81L34.478 118.978C35.0548 118.246 35.7013 117.335 36.4285 116.763C36.9195 116.378 37.6194 116.206 38.2085 116.02C39.907 115.481 41.55 115.175 43.2974 114.86C44.2988 114.68 45.48 114.352 46.4958 114.524C46.7236 114.563 46.8185 114.595 47.0479 114.553C47.0064 114.289 46.7843 114.025 46.5759 113.866C46.1634 113.551 45.687 113.67 45.2082 113.7C46.102 112.936 47.0178 112.163 47.7994 111.281C49.1349 109.773 50.2724 108.069 51.4342 106.423C53.6611 103.269 55.8675 100.06 58.5667 97.2927C59.8735 95.9531 61.3141 94.6273 62.9539 93.713C64.5611 92.8174 66.2694 92.3136 68.0339 91.8424C68.6324 90.7487 69.369 89.7259 70.0668 88.695C73.1848 84.0886 77.1774 79.83 82.2503 77.4326L82.4783 75.3289C83.0037 71.5385 85.991 67.481 88.9283 65.2129C88.6087 66.086 88.2853 66.9728 88.1255 67.8926C87.632 70.7315 88.178 74.0662 89.378 76.6729C90.0084 78.0425 90.8726 79.4099 91.8457 80.5588L93.9548 82.8741L93.9836 82.9063Z" fill="#002B41"/>
<path d="M72.2977 93.9959L73.8441 93.9834C70.5173 95.1666 67.4297 96.2763 64.3465 98.111L63.2949 98.7785L63.3568 98.6714C63.6639 98.2576 64.2693 97.872 64.6672 97.5661C66.906 95.8453 69.5725 94.4702 72.2977 93.9959Z" fill="white"/>
<path d="M74.1283 44.1147L74.403 44.1484L75.0299 46.0644L67.8742 51.6425C61.8049 56.8136 56.3202 62.7825 51.3995 69.0277C47.934 73.4265 44.7542 78.0715 42.1817 83.0422C41.9371 83.5149 41.2601 84.5928 41.3238 85.0982C44.5 78.9714 48.5225 73.3017 53.327 68.3081C56.1324 65.3925 59.1938 62.74 62.2555 60.0941C66.1582 56.7215 70.2446 53.3776 74.7126 50.7504L74.8349 50.8181C68.5965 55.3191 62.4184 60.5436 57.5337 66.485C54.7839 69.8294 52.3965 73.4376 50.0746 77.0806L47.4398 81.5241C47.0361 82.2785 46.5355 83.0836 46.3546 83.9243C46.8614 83.4803 47.2738 82.2719 47.6464 81.6452C48.6567 79.9471 49.8293 78.2513 51.0488 76.695C55.2933 71.2775 60.3344 66.6531 66.1417 62.9091C69.0939 61.0058 72.2657 59.3654 75.4023 57.7823L75.5367 57.8622C68.8964 62.1069 62.8499 67.224 57.8022 73.2606C56.5549 74.7524 55.2927 76.2639 54.3281 77.9531C55.3274 77.0635 56.0866 75.7917 56.993 74.7874C58.7842 72.8025 60.7907 71.1326 62.9005 69.491C68.6447 65.0748 75.2611 61.7152 82.386 60.108C80.501 61.47 78.1085 62.3264 76.0546 63.441C73.3566 64.9048 70.8202 66.6943 68.3919 68.558C66.4049 70.083 64.4048 71.6927 62.72 73.546C63.7839 72.8938 64.7132 71.9785 65.7332 71.2478C67.8685 69.7185 70.1485 68.3567 72.4859 67.1535C76.0461 65.3207 87.1572 61.058 91.0335 62.2583L91.1066 62.4069C88.4272 64.7224 84.673 65.8899 81.4499 67.2919L74.9802 70.3052C60.313 77.4566 46.527 86.7579 35.3258 98.603C32.6696 101.412 30.0974 104.295 27.8115 107.41C29.7309 101.844 31.8223 96.3596 34.3725 91.0424C39.5614 80.223 46.4454 70.0007 54.6187 61.1571C60.5066 54.7864 67.0717 49.18 74.1283 44.1147Z" fill="url(#paint12_linear_0_439)"/>
<path d="M111.668 53.7051C112.563 53.8094 113.893 53.8664 114.699 54.2629C113.696 54.3333 112.599 54.3502 111.62 54.5927C110.015 54.9903 107.93 56.1486 106.78 57.3317C107.393 57.2429 107.944 56.8001 108.519 56.564C109.604 56.1192 110.749 55.7291 111.894 55.4782C114.551 54.8957 117 55.2633 119.522 56.2078C120.267 56.4868 121.036 56.7497 121.708 57.1816C123.213 57.7303 124.814 58.6737 126.066 59.667C122.294 58.2191 117.467 57.316 113.617 59.0226C112.776 59.3954 111.995 59.8912 111.31 60.5038L111.415 60.5646L111.562 60.4612C114.46 58.4451 118.158 58.4584 121.506 59.0905C123.876 59.538 126.144 60.2463 128.29 61.3535C132.682 63.62 136.771 67.0247 140.563 70.1819C143.119 72.3098 146.099 74.6508 147.972 77.42C148.765 78.5919 149.33 79.8516 149.782 81.1879C150.329 82.8026 150.695 84.4721 151.095 86.1267L152.962 94.1698C153.465 96.4117 154.193 98.7681 154.402 101.05C152.789 101.243 151.848 101.513 150.599 102.615C149.409 99.3586 147.744 96.344 145.732 93.5233C142.411 88.8694 137.366 84.8779 138.752 78.5161L134.341 77.2167L138.254 89.1317C138.844 91.6552 139.395 94.2275 139.512 96.8243C139.535 97.3446 139.627 98.0025 139.441 98.4915C139.367 98.4566 139.302 98.3867 139.22 98.3869C138.893 98.3873 138.238 98.6893 137.9 98.7832L134.025 99.7576C129.568 100.785 124.894 101.55 120.31 101.403C118.945 101.359 117.676 101.324 116.358 100.938C116.107 99.9757 115.847 98.9258 115.777 97.9325C115.737 97.3703 115.637 96.6815 116.032 96.2376C116.03 96.0876 116.044 96.1478 115.968 95.986C115.592 95.1907 115.01 94.503 114.45 93.8316C111.886 90.7594 108.173 88.4779 104.41 87.1697C102.547 86.5218 100.554 86.1964 98.7267 85.4984L98.5904 85.4451C98.1969 85.2833 97.831 85.0534 97.4626 84.8415C96.6516 84.3871 95.9722 83.814 95.2816 83.198C94.9234 83.0946 94.5891 82.8462 94.2721 82.6504L94.2433 82.6185L92.133 80.3252C91.1594 79.1872 90.2948 77.8327 89.664 76.4761C88.4634 73.894 87.9171 70.591 88.4108 67.779C88.5707 66.8679 88.8943 65.9895 89.2141 65.1247C89.5363 64.7354 90.1897 64.3831 90.6259 64.1318C91.0263 63.6893 91.7626 63.2807 92.2532 62.9163C92.5729 63.8064 92.7734 64.9822 93.571 65.5863C94.5073 66.2955 95.3763 65.6228 96.0503 64.9141C97.1559 63.7517 98.0777 62.3646 99.1061 61.1291C101.247 58.5563 104.014 56.0827 107.167 54.8214C108.64 54.2324 110.112 53.9626 111.668 53.7051Z" fill="#002B41"/>
<path d="M106.79 57.8029C107.394 57.7121 107.938 57.2596 108.506 57.0184C109.575 56.5639 110.705 56.1652 111.835 55.9088C114.456 55.3137 116.872 55.6893 119.36 56.6544C120.095 56.9394 120.854 57.2082 121.517 57.6494C121.145 57.6077 120.796 57.5577 120.433 57.4629C119.837 57.3067 119.212 57.2897 118.6 57.2457C116.52 57.0957 114.674 57.3372 112.868 58.4837C111.191 59.5488 109.795 61.3188 109.335 63.3108C108.886 65.2556 109.369 67.471 110.398 69.1299C111.869 71.5029 114.198 73.2586 116.873 73.8547C119.416 74.421 121.874 73.4838 124.379 74.0263L126.59 74.7198C125.936 75.0947 124.975 75.2423 124.239 75.3762C121.234 75.9232 118.429 75.9448 115.473 75.0779C111.554 73.929 107.734 71.3026 105.744 67.5611C104.661 65.5264 104.184 63.1981 104.816 60.9238C105.18 59.6131 105.772 58.6607 106.79 57.8029Z" fill="url(#paint13_linear_0_439)"/>
<path d="M90.6475 64.2539C88.9012 68.3601 88.7049 72.0198 90.4226 76.1678C91.4291 78.599 93.2528 80.8458 95.1336 82.6672C103.458 81.1836 110.006 80.1647 117.405 85.2116C121.048 87.697 124.537 91.7659 126.225 95.8414C126.735 95.7982 127.324 95.5201 127.815 95.3477C129.747 94.6687 131.943 93.8171 133.649 92.6852C133.699 89.3434 133.538 86.0628 132.896 82.7722L132.074 79.3218L131.415 77.104C131.318 76.7742 131.173 76.4729 131.232 76.1296C132.121 76.6631 133.346 81.7288 133.625 82.867C134.365 85.8877 134.788 89.057 134.778 92.1655C136.106 91.3657 137.724 90.5381 138.704 89.3292C139.298 91.8603 139.854 94.4403 139.973 97.0451C139.996 97.5669 140.089 98.2267 139.901 98.7172C139.827 98.6823 139.761 98.6121 139.679 98.6123C139.348 98.6128 138.687 98.9156 138.346 99.0098L134.436 99.9871C129.94 101.018 125.224 101.785 120.598 101.637C119.221 101.593 117.94 101.559 116.61 101.172C116.357 100.206 116.095 99.1529 116.024 98.1566C115.984 97.5927 115.884 96.9018 116.282 96.4565C116.279 96.3061 116.294 96.3665 116.217 96.2042C115.838 95.4065 115.251 94.7167 114.685 94.0433C112.099 90.9618 108.352 88.6735 104.555 87.3613C102.676 86.7115 100.665 86.3851 98.8211 85.685L98.6835 85.6315C98.2865 85.4692 97.9173 85.2386 97.5456 85.026C96.7273 84.5703 96.0418 83.9954 95.3449 83.3776C94.9836 83.2739 94.6462 83.0247 94.3264 82.8284L94.2974 82.7964L92.1681 80.4961C91.1858 79.3547 90.3133 77.9961 89.6769 76.6354C88.4655 74.0456 87.9143 70.7326 88.4125 67.9121C88.5738 66.9983 88.9003 66.1172 89.2229 65.2498C89.5481 64.8594 90.2073 64.506 90.6475 64.2539Z" fill="url(#paint14_linear_0_439)"/>
<path d="M98.7788 85.5008C99.7632 85.3299 100.824 85.3507 101.823 85.3565C105.608 85.3786 109.63 86.2428 112.77 88.4157C115.785 90.5016 117.676 93.4817 118.918 96.8458C118.073 96.8467 117.073 96.9838 116.38 96.4093L116.097 96.0803C116.095 95.9333 116.109 95.9923 116.033 95.8337C115.66 95.0541 115.082 94.3799 114.526 93.7218C111.981 90.7102 108.293 88.4737 104.557 87.1913C102.707 86.5563 100.729 86.2373 98.9142 85.5531L98.7788 85.5008Z" fill="#002B41"/>
<path d="M95.9019 83.4683L100.851 82.6915C106.672 82.0664 112.552 82.6816 117.424 86.0952C121.028 88.62 123.519 92.2418 125.631 95.9768L120.751 96.8608C119.453 92.7363 116.413 88.8649 112.473 86.8115C109.276 85.1453 105.807 84.5935 102.216 84.7198C100.829 84.7685 99.4693 84.9745 98.0885 85.0783C97.2754 84.6332 96.5942 84.0717 95.9019 83.4683Z" fill="#002B41"/>
<path d="M115.978 101.334C117.294 101.721 118.561 101.756 119.925 101.8C124.503 101.947 129.172 101.181 133.623 100.152L137.493 99.1757C137.831 99.0817 138.485 98.7793 138.812 98.7788C138.893 98.7786 138.959 98.8487 139.032 98.8836C139.263 99.8711 139.549 100.841 139.676 101.849C140.168 105.762 139.297 109.885 137.235 113.249C135.309 116.39 132.493 118.631 129.06 119.936C128.185 120.269 127.056 120.411 126.248 120.844C125.387 121.306 124.575 122.08 123.785 122.663C122.459 123.641 121.099 124.553 119.681 125.392L106.444 132.524C103.973 133.927 101.348 135.461 99.3058 137.456C99.5431 137.905 99.7582 138.294 100.162 138.618C100.978 139.274 102.125 139.664 103.068 140.116C105.525 141.296 107.989 143.12 109.567 145.364C110.869 147.215 111.5 149.363 112.03 151.535L113.561 158.476C114.368 161.924 115.28 165.37 116.637 168.646C117.225 170.065 117.903 171.461 118.717 172.765L121.646 177.159C122.535 178.491 123.369 179.692 123.703 181.285L105.623 174.677L105.566 174.755L124.112 184.354L131.763 188.432L140.931 192.937L155.394 199.684L161.604 202.228C165.15 203.484 168.721 204.474 172.374 205.358C179.328 207.041 186.552 208.11 193.721 207.628C186.696 210.631 179.357 211.983 171.773 212.569C145.708 214.584 119.97 207.178 96.0091 197.58C87.8228 194.3 79.8691 190.488 72.0963 186.33C58.5708 179.093 45.2947 170.614 33.8588 160.331L27.6771 154.279C25.5005 152.06 23.446 149.843 21.5253 147.394C20.1886 145.69 18.8772 143.894 18.0139 141.894C17.4888 140.677 16.9663 138.971 17.4605 137.672C17.6642 137.136 18.129 136.631 18.6665 136.423C19.4549 136.119 20.4771 136.213 21.2898 136.386C24.3472 137.035 27.3262 138.287 30.2037 139.482L39.6692 143.591L58.1213 151.855L62.4032 153.755C62.6659 153.863 63.3667 154.216 63.6206 154.19C63.7581 154.176 64.0854 153.965 64.2211 153.901C64.6881 153.681 65.0788 153.513 65.5916 153.433L65.7706 153.402C68.4344 152.974 77.3529 154.579 78.7594 153.5C79.1348 152.853 79.1565 152.117 79.2439 151.387L79.5733 146.764L79.3584 126.207C79.2984 125.035 79.4186 123.585 79.1583 122.451C78.7683 120.75 77.0299 119.212 78.0838 117.35C78.3385 116.9 78.7402 116.343 79.1805 116.065C79.7313 116.033 80.2233 115.887 80.7612 115.792C81.3294 115.692 81.9927 115.649 82.5349 115.456C84.1579 114.881 85.8492 113.749 87.3905 112.955L96.0182 108.932C101.123 106.817 106.651 105.299 112.173 104.825C113.702 104.693 115.219 104.728 116.75 104.678L116.871 104.522C116.858 103.514 116.303 102.289 115.978 101.334Z" fill="#002B41"/>
<path d="M97.8198 140.017C98.0699 140.118 98.2173 140.459 98.3604 140.695L99.8617 143.298L106.451 154.402L106.364 154.387C105.382 153.304 104.572 151.907 103.776 150.673C101.554 147.227 99.5017 143.778 97.8198 140.017Z" fill="white"/>
<path d="M94.4961 135.231L95.0998 135.221C95.2661 135.254 95.3712 135.304 95.4667 135.429C95.9321 136.039 95.9672 136.827 95.8336 137.55C95.732 138.102 95.5434 138.716 95.041 139.057L94.7103 138.923C94.2075 138.484 93.6515 138.01 93.2969 137.455C93.1078 137.158 92.9514 136.736 93.0603 136.395C93.2435 135.822 93.9697 135.489 94.4961 135.231Z" fill="white"/>
<path d="M81.6721 116.042C81.928 116.035 82.2094 116.059 82.4336 116.201C82.9348 116.517 83.2122 117.173 83.3466 117.734C83.5967 118.778 83.2891 119.936 82.7394 120.836L82.4893 120.786C81.5507 120.148 80.9191 119.068 80.6334 117.971C80.5102 117.498 80.5151 116.908 80.8151 116.496C81.0355 116.194 81.3312 116.124 81.6721 116.042Z" fill="white"/>
<path d="M123.103 104.117C127.111 103.503 131.378 102.993 135.221 101.656C134.594 102.586 133.986 103.617 133.232 104.446C131.052 106.841 128.627 107.256 125.701 108.198C124.082 108.719 122.439 109.389 120.933 110.184C119.137 111.131 117.459 112.297 115.795 113.458C110.818 116.929 106.539 120.879 102.595 125.515C100.21 128.318 97.8549 131.362 96.528 134.834C95.9284 134.773 95.3984 134.723 94.7989 134.83L94.6341 134.858C93.6561 135.039 92.8704 135.63 92.0654 136.18C93.0477 132.671 94.9591 129.35 96.9652 126.348C98.6133 123.88 100.305 121.498 102.257 119.262C106.048 114.919 110.711 110.979 115.547 107.872C117.097 106.877 118.705 105.916 120.391 105.178C121.181 104.832 122.261 104.661 122.966 104.21L123.103 104.117Z" fill="url(#paint15_linear_0_439)"/>
<path d="M91.821 135.523C91.5845 136.041 91.4018 136.634 91.2955 137.195C91.1657 137.879 91.1939 138.141 91.4974 138.777C91.8971 139.614 92.6066 140.245 93.1241 141.005L95.476 144.698L109.085 164.233L113.966 170.66C113.551 170.946 112.812 171.081 112.323 171.2C108.868 172.043 105.427 171.64 101.962 172.103L101.759 172.132C101.074 172.226 100.501 172.387 99.8547 172.623C97.0907 171.797 94.3378 170.113 91.7392 168.833L75.5893 160.451L69.0493 156.875C70.2691 157.085 71.5711 157.745 72.75 158.174L83.3942 162.276C83.9156 160.2 83.6809 158.492 82.7849 156.561C82.604 156.171 82.2344 155.478 82.2023 155.047C82.186 154.824 82.3328 154.38 82.3923 154.145C82.7846 152.603 83.5021 151.089 84.1417 149.638L86.9386 143.426C89.0851 138.838 91.5783 134.115 90.6384 128.868C90.3369 127.184 89.7678 125.611 88.8484 124.166C88.3472 123.378 87.0736 122.45 86.9207 121.646C87.0456 121.281 87.1547 121.154 87.4909 120.958C90.5039 119.199 94.5677 121.247 97.6028 122.053L99.3583 119.616C103.565 114.385 108.865 110.192 114.57 106.749C116.182 105.776 117.893 104.737 119.679 104.129C120.664 103.793 121.726 103.681 122.754 103.574L122.617 103.667C121.915 104.116 120.838 104.287 120.052 104.631C118.371 105.367 116.768 106.324 115.224 107.316C110.404 110.411 105.756 114.338 101.978 118.665C100.033 120.893 98.3468 123.267 96.7042 125.725C94.7049 128.718 92.7999 132.027 91.821 135.523Z" fill="white"/>
<path d="M95.661 152.533C95.7685 152.508 95.8641 152.481 95.9772 152.484C96.2458 152.49 96.521 152.629 96.6745 152.852C96.8528 153.11 96.9078 153.446 96.818 153.745C96.7072 154.114 96.4056 154.235 96.1005 154.401C95.5733 154.386 95.5242 154.384 95.109 154.064C94.9622 153.702 94.8808 153.565 94.999 153.171C95.1013 152.83 95.3786 152.7 95.661 152.533Z" fill="url(#paint16_linear_0_439)"/>
<path d="M95.4835 157.279L96.3838 157.303C96.8973 157.357 97.3223 157.671 97.5849 158.008C97.8039 158.29 97.8832 158.679 97.7642 158.997C97.5376 159.603 96.9077 159.891 96.2353 160.152C95.9461 160.158 95.6929 160.163 95.4065 160.119C94.8688 160.037 94.4318 159.755 94.1734 159.38C93.9523 159.059 93.9306 158.611 94.075 158.267C94.2984 157.736 94.8891 157.51 95.4835 157.279Z" fill="url(#paint17_linear_0_439)"/>
<path d="M90.3608 157.279C90.7072 157.309 91.0548 157.338 91.3811 157.469C92.0419 157.735 92.6385 158.257 92.894 158.942C93.1009 159.497 93.0542 160.047 92.8085 160.58C92.4172 161.427 91.8151 161.748 90.9975 162.061C90.4441 162.102 89.8573 162.057 89.3579 161.785C88.8186 161.492 88.4302 160.932 88.2987 160.33C88.159 159.691 88.222 158.97 88.5687 158.411C89.0029 157.711 89.599 157.465 90.3608 157.279Z" fill="url(#paint18_linear_0_439)"/>
<path d="M104.935 161.157L105.416 161.115C105.763 161.334 106.033 161.808 106.278 162.137L107.928 164.394C109.346 166.288 111.052 168.097 112.205 170.173C111.222 170.496 110.122 170.586 109.096 170.657C105.681 170.895 102.749 170.228 99.5674 168.991L90.1475 164.743L104.935 161.157Z" fill="url(#paint19_linear_0_439)"/>
<path d="M75.0546 43.2773L74.8745 42.4104C74.5451 40.0987 75.3849 37.5533 76.814 35.7357C78.3483 33.7847 80.5411 32.3543 82.9284 31.6739C84.1466 31.3266 85.4527 31.1907 86.7024 30.9848C88.3485 30.7139 90.1819 30.4613 91.7295 29.8417C94.803 28.6111 96.1353 25.8705 96.8009 22.8314C97.8647 25.0925 98.3249 27.3627 97.8743 29.8616C97.7339 30.6414 97.3931 31.4707 97.339 32.2476C98.6992 31.8429 100.546 31.3086 101.31 29.9774C101.99 28.7901 102.068 27.196 101.668 25.9125C101.602 25.7027 101.54 25.5273 101.521 25.3045L105.837 23.5583L114.827 20.3507C133.387 14.6878 153.251 14.5078 171.088 22.7569C182.365 27.9717 192.451 36.2234 199.829 46.1728C204.764 52.8269 208.537 60.1916 211.369 67.9533C215.648 79.6814 217.278 92.6222 216.583 105.064C216.357 109.101 215.789 113.113 215.1 117.095C213.546 126.084 210.871 134.959 206.975 143.228C206.866 143.46 206.759 143.696 206.613 143.908C206.321 144.815 205.802 145.701 205.373 146.555L201.797 153.051C194.458 165.53 184.705 176.372 173.221 185.199C168.304 188.978 163.114 192.428 157.585 195.261L156.843 195.639L153.049 194.169C161.187 188.93 167.744 180.855 172.425 172.502C173.529 170.531 174.634 168.523 175.416 166.402H175.316C173.598 169.736 171.743 172.947 169.516 175.973C164.515 182.769 157.917 188.764 150.843 193.354L146.9 191.544C148.357 190.312 149.782 189.052 151.037 187.611C153.565 184.706 155.578 181.145 157.013 177.593C157.483 176.429 158.006 175.235 158.305 174.016C157.376 175.546 156.659 177.18 155.686 178.69C153.637 181.87 150.829 184.925 147.727 187.103C146.402 188.034 144.9 188.902 143.31 189.289C142.977 189.37 142.389 189.547 142.071 189.47C141.492 189.329 140.872 188.971 140.323 188.725C139.181 188.214 137.979 187.723 136.892 187.107C138.174 186.384 139.466 185.686 140.654 184.812C144.52 181.97 147.973 177.651 150.381 173.538C148.406 175.61 146.894 178.336 144.597 180.1C142.008 182.787 138.674 184.936 135.25 186.398C133.216 185.635 131.269 184.613 129.299 183.701C128.327 183.251 126.82 182.756 126.014 182.079L126.107 181.926C126.325 181.591 126.552 181.3 126.579 180.882C126.607 180.454 126.415 179.905 126.258 179.514C125.522 177.684 123.906 175.937 122.691 174.389L123.749 173.979C125.728 173.025 126.577 171.119 127.23 169.15L129.1 170.221C130.774 171.065 132.84 171.216 134.625 170.629C139.548 169.011 141.86 163.92 144.01 159.648L145.853 160.413C148.924 161.562 152.251 161.065 155.175 159.739C162.213 156.547 166.287 149.558 168.88 142.638C169.912 143.942 171.276 144.936 172.952 145.237C176.644 145.9 180.554 143.679 183.469 141.663C187.724 138.72 191.504 134.528 194.679 130.473C198.04 126.181 201.153 121.735 203.702 116.908C206.755 111.126 208.938 104.927 210.683 98.6427C211.428 95.9618 212.211 93.3886 212.712 90.6413C211.213 92.6452 209.527 94.4915 207.91 96.3991L191.09 114.977L182.16 124.694C180.882 126.06 179.653 127.527 178.281 128.798C177.862 129.185 177.252 129.769 176.681 129.869C175.203 130.127 174.419 127.776 173.301 127.112C172.626 126.712 171.652 126.851 170.928 127.042C165.798 128.399 164.082 134.816 162.391 139.154C161.61 141.159 160.748 143.159 159.635 145.006C158.039 147.652 155.574 150.902 152.361 151.625C150.887 151.957 149.844 151.563 148.858 150.471C148.476 150.048 148.111 149.562 147.615 149.265C146.876 148.823 146.047 148.706 145.216 148.94C144.096 149.255 143.201 150.014 142.421 150.841C139.172 154.29 138.545 158.859 136.221 162.785C135.574 163.878 134.688 165.074 133.377 165.376C131.836 165.731 130.823 164.175 129.652 163.478C128.931 163.049 128.039 162.81 127.209 163.032C124.392 163.785 123.729 166.8 122.462 168.967C122.213 169.392 121.77 169.859 121.27 169.974C120.894 170.06 120.538 169.976 120.221 169.764C117.82 168.162 115.702 159.403 115.093 156.512C130.162 150.664 144.373 142.353 155.575 130.605C157.996 128.066 160.157 125.331 162.189 122.479C167.943 114.4 172.639 104.478 172.348 94.3718C172.198 89.1745 170.757 84.2686 167.837 79.9245C162.552 72.0623 153.076 67.248 144.007 65.2323L139.086 64.3172L135.639 63.8432C135.108 63.7827 134.071 63.7859 133.62 63.5278C133.284 63.3358 132.932 62.9017 132.653 62.6308L130.766 60.8536C128.642 58.9414 126.338 57.3555 123.815 56.0069C123.278 55.7198 122.572 55.4168 122.129 55.0011C125.46 54.6009 128.745 54.0728 132.107 53.9365C145.166 53.4066 158.733 56.5273 169.842 63.5107C177.775 68.4973 185.326 75.9694 187.425 85.3888C188.542 90.4024 188.246 95.763 186.345 100.561C185.544 102.583 184.464 104.437 183.291 106.261L183.355 106.364C186.98 101.884 188.978 95.7082 189.103 89.9933C189.277 82.0264 185.391 74.6109 179.934 68.9814C173.911 62.7678 166.277 58.2874 158.25 55.1409C153.234 53.1749 148.038 51.6939 142.694 50.9334C139.798 50.5211 136.914 50.3953 133.992 50.3419C134.147 50.2703 134.254 50.2332 134.424 50.2163C136.568 50.0038 138.942 50.2056 141.093 50.3805C155.154 51.5235 169.192 57.7935 180.053 66.664C186.498 71.927 192.068 79.8228 192.969 88.2263C193.495 93.1425 192.488 97.8792 190.452 102.363C190.097 103.145 187.677 106.75 187.707 107.056C188.403 106.309 188.981 105.417 189.542 104.568C190.926 102.478 191.971 100.455 192.853 98.1093C195.45 91.208 195.199 83.5868 192.102 76.8758C188.383 68.8143 181.91 62.8732 174.627 57.9971C172.064 56.2812 169.428 54.6201 166.68 53.2123C162.85 51.2499 158.641 49.6355 154.531 48.3734C151.978 47.5895 149.338 46.967 146.712 46.4751C145.351 46.2204 143.638 46.157 142.352 45.6859L142.41 45.6538C144.952 45.991 147.492 46.1625 150.026 46.6379C160.49 48.6005 170.979 52.606 179.862 58.4812C188.848 64.4255 196.924 72.3981 199.044 83.3453C199.94 87.9723 199.36 92.7579 198.008 97.2276C197.512 98.8677 196.958 100.521 196.187 102.056C195.411 103.604 194.352 105.038 193.379 106.47C193.968 106.071 194.489 105.238 194.903 104.669C197.202 101.519 199.019 98.1219 200.14 94.3805C201.218 90.7804 201.809 86.894 201.327 83.1433C200.888 79.7245 199.558 76.3557 197.905 73.3494C194.348 66.8818 188.686 61.163 182.987 56.5419C180.688 54.678 178.342 52.8335 175.86 51.215C170.762 47.89 165.007 44.943 159.262 42.9535C147.078 38.7333 133.682 38.0966 121.05 40.5554C116.006 41.5373 110.977 43.091 106.194 44.9531C105.456 45.2406 100.698 47.3489 100.389 47.2602C109.192 42.4713 118.311 38.511 128.181 36.4977C131.4 35.841 134.655 35.3649 137.943 35.2612C141.89 35.1369 145.744 35.5273 149.631 36.1881C155.846 37.245 161.818 39.0523 167.393 42.0227C169.784 43.2967 171.836 44.9341 174.078 46.4065C173.851 45.9415 173.074 45.4385 172.665 45.1063C170.49 43.34 168.155 41.6289 165.701 40.2629C162.035 38.2223 158.198 36.5153 154.178 35.281C142.454 31.681 129.835 32.0064 118.063 35.1871C115.577 35.8584 113.143 36.6612 110.739 37.5765C109.396 38.088 108.073 38.762 106.69 39.1487L106.742 39.091C107.328 38.6544 108.262 38.3497 108.942 38.0483C111.436 36.9442 113.897 35.9092 116.49 35.0507C128.7 31.0083 141.294 30.1988 153.871 33.0117C156.817 33.6707 159.824 34.4467 162.634 35.5565C165.428 36.6599 168.161 38.077 170.743 39.6052C173.742 41.3808 176.571 43.4333 179.174 45.7479L181.777 48.2751C182.04 48.551 182.63 49.3361 182.967 49.4264C181.484 47.1033 179.097 44.9205 177.09 43.0258C163.949 30.6214 144.979 26.0365 127.292 28.5055C120.908 29.3966 114.639 31.2238 108.646 33.5546C108.404 33.6486 108.517 33.6541 108.309 33.5788C111.789 31.8885 115.52 30.6405 119.237 29.5759C122.653 28.5974 126.046 27.7647 129.569 27.2564C138.983 25.8981 148.702 26.5641 157.852 29.1315C166.46 31.5471 174.493 35.9924 181.249 41.81C183.077 43.3847 184.861 45.0105 186.468 46.8126C189.494 50.204 191.988 53.9702 194.212 57.9198L194.304 57.8633C190.111 49.5641 184.563 42.1525 177.056 36.5388C174.719 34.7917 172.226 33.3237 169.69 31.8855C166.766 30.2271 163.731 28.6713 160.579 27.4851C147.706 22.641 133.693 22.5161 120.413 25.6331C116.922 26.4526 113.457 27.5036 110.105 28.7719L106.505 30.1938C106.256 30.298 105.658 30.6537 105.416 30.6683C105.361 30.6718 105.312 30.6325 105.26 30.6145C112.008 27.0952 119.393 24.7477 126.879 23.4124C134.267 22.0948 141.647 21.7262 149.105 22.7721C157.497 23.9492 165.583 26.5911 173.035 30.5986C174.42 31.3435 175.818 32.0629 177.145 32.9089C186.658 38.9734 194.465 47.7146 200.278 57.288C202.123 60.3252 203.84 63.4555 205.268 66.7103C206.623 69.7984 207.78 73.0364 208.635 76.2932C208.813 76.9691 209.603 81.1784 209.812 81.4538C209.563 79.4855 209.341 77.5462 208.951 75.592C208.165 71.6404 206.868 67.6261 205.332 63.9006C201.046 53.5003 194.179 44.4297 185.722 37.0334C183.324 34.9362 180.798 32.8553 178.128 31.1055C176.604 30.1065 174.966 29.2724 173.358 28.418C170.974 27.1515 168.581 25.9184 166.085 24.8807C161.332 22.9044 156.37 21.6228 151.286 20.8259C147.4 20.2169 143.485 19.8252 139.546 19.8646C129.489 19.9653 119.339 22.1882 109.88 25.5036L102.662 28.3525C102.985 29.4988 103.238 30.6772 103.117 31.8732C102.682 36.1801 98.2575 38.9873 95.2135 41.5229C96.2498 41.4458 97.3042 41.4005 98.3155 41.1458C100.109 40.6936 101.482 39.6483 102.795 38.4029L101.934 40.9259C100.54 44.1545 96.9787 45.7299 93.8957 46.935C91.2681 46.8008 89.7949 46.7256 87.1672 46.5914C87.2868 45.7464 87.377 44.879 87.2559 44.0291L87.227 43.8398L87.0834 43.0418C86.6761 41.5651 85.6517 40.3148 84.3069 39.5783C82.8368 38.773 81.1195 38.6676 79.525 39.1585C77.3503 39.8282 76.0487 41.3273 75.0546 43.2773Z" fill="url(#paint20_linear_0_439)"/>
<path d="M178.003 122.82C178.184 122.771 178.418 122.737 178.605 122.763C178.862 122.798 179.126 122.966 179.248 123.205C179.354 123.414 179.352 123.667 179.307 123.893C179.235 124.252 178.988 124.423 178.699 124.6C178.551 124.644 178.422 124.682 178.266 124.67C178.029 124.651 177.775 124.561 177.625 124.36C177.425 124.091 177.382 123.774 177.445 123.446C177.502 123.144 177.767 122.969 178.003 122.82Z" fill="white"/>
<path d="M152.528 139.115C152.779 139.059 153.054 139.069 153.311 139.058C153.64 139.188 153.938 139.3 154.128 139.612C154.342 139.962 154.472 140.361 154.361 140.765C154.215 141.3 153.972 141.555 153.494 141.828C153.208 141.91 152.982 141.962 152.682 141.92C152.308 141.868 152.048 141.71 151.827 141.41C151.569 141.06 151.449 140.544 151.574 140.122C151.723 139.618 152.083 139.352 152.528 139.115Z" fill="white"/>
<path d="M121.163 157.285C121.356 157.27 121.554 157.281 121.742 157.333C122.157 157.447 122.522 157.741 122.673 158.154C122.787 158.469 122.78 158.928 122.655 159.239C122.455 159.734 122.034 159.968 121.56 160.141C121.33 160.154 121.084 160.179 120.861 160.107C120.49 159.987 120.096 159.61 119.959 159.243C119.839 158.922 119.848 158.443 120.007 158.135C120.252 157.665 120.677 157.429 121.163 157.285Z" fill="white"/>
<path d="M170.742 120.892C171.038 120.846 171.335 120.793 171.626 120.893C171.987 121.017 172.358 121.322 172.517 121.692C172.66 122.023 172.655 122.456 172.524 122.791C172.356 123.219 171.996 123.443 171.618 123.633C171.333 123.702 170.927 123.756 170.645 123.664C170.357 123.571 170.035 123.259 169.888 122.985C169.721 122.673 169.709 122.171 169.813 121.833C169.955 121.369 170.35 121.094 170.742 120.892Z" fill="white"/>
<path d="M158.223 134.343C158.493 134.257 158.837 134.239 159.116 134.291C159.477 134.357 159.796 134.677 159.977 134.975C160.18 135.31 160.213 135.886 160.061 136.245C159.857 136.728 159.579 136.875 159.116 137.07C158.904 137.119 158.725 137.163 158.506 137.124C158.075 137.047 157.696 136.788 157.465 136.42C157.285 136.133 157.232 135.693 157.321 135.368C157.457 134.873 157.802 134.605 158.223 134.343Z" fill="white"/>
<path d="M207.103 132.344L207.147 132.433C206.899 133.434 206.243 134.483 205.76 135.402C204.08 138.6 202.209 141.683 200.147 144.647C199.12 146.125 197.911 147.487 196.733 148.843C193.486 152.584 190.083 155.848 185.792 158.383C183.552 159.706 181.226 160.751 178.651 161.194C175.493 161.736 172.356 161.196 169.726 159.345L166.663 162.182C162.862 165.08 158.454 166.535 153.821 167.421C152.795 167.618 151.608 167.934 150.565 167.793L150.887 167.646L153.666 166.808C161.361 163.993 166.431 157.435 169.8 150.212C173.56 152.795 177.756 153.702 182.242 152.852C186.121 152.118 189.713 150.078 192.889 147.801C195.757 145.745 198.454 143.389 200.801 140.74C203.149 138.091 205.127 135.276 207.103 132.344Z" fill="white"/>
<path d="M74.8793 42.5336L75.1548 43.3505C75.9655 41.5531 77.3828 39.9893 79.582 39.3294C81.1944 38.8456 82.931 38.9494 84.4177 39.743C85.7776 40.4687 86.8135 41.7007 87.2254 43.1557L87.3998 44.1286C87.5223 44.966 87.4311 45.8207 87.3101 46.6534L94.1143 46.992C97.2319 45.8046 100.847 44.2522 102.256 41.0709L103.183 38.4075C101.856 39.6347 100.364 40.6253 98.5503 41.0709C97.5276 41.3219 96.8185 41.3648 95.7706 41.4407C98.8488 38.9422 103.09 36.3602 103.53 32.1163C103.653 30.9379 103.51 29.7632 103.183 28.6337L101.909 25.6005C102.314 26.8652 102.25 29.0366 101.561 30.2065C100.79 31.5182 99.1148 31.8299 97.7394 32.2287C97.794 31.4632 98.0606 30.9174 98.2026 30.149C98.7817 27.5103 98.236 25.2446 97.1603 23.0166C96.3495 26.0498 94.9407 28.7692 91.8326 29.9818C90.2676 30.5923 88.5169 30.726 86.8523 30.9929C85.5885 31.1958 84.1463 31.4371 82.9145 31.7793C80.5004 32.4498 78.2819 33.9138 76.7762 35.936C75.331 37.7269 74.5462 40.2557 74.8793 42.5336Z" fill="#002B41"/>
</g>
<defs>
<linearGradient id="paint0_linear_0_439" x1="34.7204" y1="184.613" x2="37.4015" y2="184.613" gradientUnits="userSpaceOnUse">
<stop stop-color="#FF372A"/>
<stop offset="1" stop-color="#FF1514"/>
</linearGradient>
<linearGradient id="paint1_linear_0_439" x1="139.319" y1="129.47" x2="142.894" y2="129.47" gradientUnits="userSpaceOnUse">
<stop stop-color="#FF372A"/>
<stop offset="1" stop-color="#FF1514"/>
</linearGradient>
<linearGradient id="paint2_linear_0_439" x1="128.9" y1="143.376" x2="134.262" y2="143.376" gradientUnits="userSpaceOnUse">
<stop stop-color="#FF372A"/>
<stop offset="1" stop-color="#FF1514"/>
</linearGradient>
<linearGradient id="paint3_linear_0_439" x1="135.613" y1="137.143" x2="140.975" y2="137.143" gradientUnits="userSpaceOnUse">
<stop stop-color="#FF372A"/>
<stop offset="1" stop-color="#FF1514"/>
</linearGradient>
<linearGradient id="paint4_linear_0_439" x1="48.4079" y1="180.779" x2="54.6638" y2="180.779" gradientUnits="userSpaceOnUse">
<stop stop-color="#FF372A"/>
<stop offset="1" stop-color="#FF1514"/>
</linearGradient>
<linearGradient id="paint5_linear_0_439" x1="39.777" y1="177.902" x2="46.0329" y2="177.902" gradientUnits="userSpaceOnUse">
<stop stop-color="#FF372A"/>
<stop offset="1" stop-color="#FF1514"/>
</linearGradient>
<linearGradient id="paint6_linear_0_439" x1="82.1454" y1="109.816" x2="117" y2="109.816" gradientUnits="userSpaceOnUse">
<stop stop-color="#FF372A"/>
<stop offset="1" stop-color="#FF1514"/>
</linearGradient>
<linearGradient id="paint7_linear_0_439" x1="45.3972" y1="202.361" x2="89.1885" y2="202.361" gradientUnits="userSpaceOnUse">
<stop stop-color="#FF372A"/>
<stop offset="1" stop-color="#FF1514"/>
</linearGradient>
<linearGradient id="paint8_linear_0_439" x1="26.8701" y1="195.17" x2="79.5984" y2="195.17" gradientUnits="userSpaceOnUse">
<stop stop-color="#FF372A"/>
<stop offset="1" stop-color="#FF1514"/>
</linearGradient>
<linearGradient id="paint9_linear_0_439" x1="21.6829" y1="188.936" x2="69.0489" y2="188.936" gradientUnits="userSpaceOnUse">
<stop stop-color="#FF372A"/>
<stop offset="1" stop-color="#FF1514"/>
</linearGradient>
<linearGradient id="paint10_linear_0_439" x1="92.5434" y1="59.4682" x2="112.205" y2="59.4682" gradientUnits="userSpaceOnUse">
<stop stop-color="#FF372A"/>
<stop offset="1" stop-color="#FF1514"/>
</linearGradient>
<linearGradient id="paint11_linear_0_439" x1="57.7753" y1="209.077" x2="126.59" y2="209.077" gradientUnits="userSpaceOnUse">
<stop stop-color="#FF372A"/>
<stop offset="1" stop-color="#FF1514"/>
</linearGradient>
<linearGradient id="paint12_linear_0_439" x1="32.1223" y1="75.8047" x2="91.1064" y2="75.8047" gradientUnits="userSpaceOnUse">
<stop stop-color="#FF372A"/>
<stop offset="1" stop-color="#FF1514"/>
</linearGradient>
<linearGradient id="paint13_linear_0_439" x1="106.035" y1="65.7062" x2="126.59" y2="65.7062" gradientUnits="userSpaceOnUse">
<stop stop-color="#FF372A"/>
<stop offset="1" stop-color="#FF1514"/>
</linearGradient>
<linearGradient id="paint14_linear_0_439" x1="91.7565" y1="82.9798" x2="140.016" y2="82.9798" gradientUnits="userSpaceOnUse">
<stop stop-color="#FF372A"/>
<stop offset="1" stop-color="#FF1514"/>
</linearGradient>
<linearGradient id="paint15_linear_0_439" x1="95.0046" y1="118.941" x2="135.221" y2="118.941" gradientUnits="userSpaceOnUse">
<stop stop-color="#FF372A"/>
<stop offset="1" stop-color="#FF1514"/>
</linearGradient>
<linearGradient id="paint16_linear_0_439" x1="95.073" y1="153.444" x2="96.8604" y2="153.444" gradientUnits="userSpaceOnUse">
<stop stop-color="#FF372A"/>
<stop offset="1" stop-color="#FF1514"/>
</linearGradient>
<linearGradient id="paint17_linear_0_439" x1="94.2447" y1="158.719" x2="97.8195" y2="158.719" gradientUnits="userSpaceOnUse">
<stop stop-color="#FF372A"/>
<stop offset="1" stop-color="#FF1514"/>
</linearGradient>
<linearGradient id="paint18_linear_0_439" x1="88.5561" y1="159.68" x2="93.0246" y2="159.68" gradientUnits="userSpaceOnUse">
<stop stop-color="#FF372A"/>
<stop offset="1" stop-color="#FF1514"/>
</linearGradient>
<linearGradient id="paint19_linear_0_439" x1="91.6497" y1="165.916" x2="112.205" y2="165.916" gradientUnits="userSpaceOnUse">
<stop stop-color="#FF372A"/>
<stop offset="1" stop-color="#FF1514"/>
</linearGradient>
<linearGradient id="paint20_linear_0_439" x1="84.4697" y1="106.091" x2="216.737" y2="106.091" gradientUnits="userSpaceOnUse">
<stop stop-color="#FF372A"/>
<stop offset="1" stop-color="#FF1514"/>
</linearGradient>
<clipPath id="clip0_0_439">
<rect width="234" height="234" fill="white"/>
</clipPath>
</defs>
</svg>
