<svg width="82" height="45" viewBox="0 0 82 45" fill="none" xmlns="http://www.w3.org/2000/svg">
<path d="M0.744044 12.9915C0.574515 12.9915 0.452078 12.9238 0.367313 12.7884C0.339058 12.7546 0.32964 12.6868 0.32964 12.6022V9.63151C0.32964 9.52148 0.376731 9.41992 0.461496 9.33529C0.555679 9.25065 0.668698 9.20833 0.800554 9.20833H11.2454C11.4621 9.20833 11.6316 9.16602 11.7446 9.08138C11.8576 8.99675 11.9141 8.88672 11.9141 8.74284C11.9141 8.60742 11.8576 8.48893 11.7352 8.39583C11.6222 8.30273 11.4526 8.26042 11.2454 8.26042L4.95402 8.22656C4.05928 8.2181 3.23047 8.05729 2.48643 7.74414C1.73296 7.43099 1.13019 6.96549 0.678116 6.33073C0.226039 5.69596 0 4.93425 0 4.04557C0 2.66602 0.470914 1.65039 1.40332 0.990234C2.34515 0.330078 3.52244 0 4.96344 0H16.3596C16.4443 0 16.5102 0.033854 16.5668 0.0930988C16.6233 0.152344 16.6515 0.228515 16.6515 0.313151V3.54622C16.6515 3.63086 16.6233 3.70703 16.5668 3.76628C16.5102 3.82552 16.4443 3.85938 16.3596 3.85938H5.75457C5.53795 3.85938 5.36842 3.90169 5.2554 3.98633C5.14238 4.07096 5.08587 4.18099 5.08587 4.32487C5.08587 4.46029 5.14238 4.57878 5.26482 4.67187C5.37784 4.76497 5.54737 4.80729 5.75457 4.80729L12.3285 4.82422C13.7036 4.82422 14.8338 5.17122 15.7003 5.8737C16.5668 6.57617 17 7.5918 17 8.92904C17 9.69922 16.7928 10.3932 16.3878 11.0111C15.9828 11.6289 15.4271 12.1198 14.7114 12.4668C14.005 12.8223 13.2044 13 12.3191 13H0.744044V12.9915Z" fill="#002B41"/>
<path d="M21.0566 12.9915C20.3208 12.9915 19.6509 12.8225 19.0283 12.4844C18.4057 12.1463 17.9151 11.6899 17.5472 11.1066C17.1792 10.5319 17 9.89792 17 9.20481V0.262028C17 0.185956 17.0283 0.126788 17.0849 0.0760723C17.1415 0.0253571 17.2075 0 17.2925 0H21.6415C21.7075 0 21.7736 0.0253571 21.8396 0.0760723C21.9057 0.126788 21.934 0.185956 21.934 0.262028V7.92848C21.934 8.12289 22 8.29194 22.1415 8.42718C22.283 8.56242 22.4434 8.63004 22.6415 8.63004H28.3774C28.566 8.63004 28.7358 8.56242 28.8774 8.42718C29.0189 8.29194 29.0849 8.12289 29.0849 7.92848V0.262028C29.0849 0.185956 29.1132 0.126788 29.1792 0.0760723C29.2453 0.0253571 29.3113 0 29.3774 0H33.7075C33.7925 0 33.8585 0.0253571 33.9151 0.0760723C33.9717 0.126788 34 0.185956 34 0.262028V9.21326C34 9.90637 33.8208 10.5403 33.4528 11.1151C33.0849 11.6899 32.5943 12.1463 31.9717 12.4928C31.3491 12.8309 30.6698 13 29.9245 13H21.0566V12.9915Z" fill="#002B41"/>
<path d="M34.3339 12.9831C34.2437 12.9831 34.1624 12.9492 34.0993 12.89C34.0361 12.8307 34 12.7546 34 12.6699V0.313151C34 0.228516 34.0361 0.152344 34.0993 0.0930988C34.1624 0.033854 34.2437 0 34.3339 0H45.2713C46.1196 0 46.8957 0.169271 47.6176 0.507812C48.3395 0.846354 48.9171 1.35417 49.3503 2.02279C49.7834 2.69141 50 3.49544 50 4.4349C50 5.28971 49.7744 6.06836 49.3232 6.76237C48.872 7.45638 48.2764 7.98958 47.5364 8.36198C48.4117 10.0124 49.1246 11.4681 49.6932 12.7292L49.7112 12.7884C49.7112 12.8392 49.6932 12.8815 49.6481 12.9154C49.612 12.9492 49.5578 12.9746 49.5127 12.9746H44.9193C44.784 12.9746 44.7028 12.9238 44.6576 12.8223L42.7355 9.08984C42.6994 8.98828 42.6091 8.9375 42.4738 8.9375H39.0085C38.8911 8.9375 38.8009 8.99674 38.7287 9.10677C38.7016 9.13216 38.6926 9.18294 38.6926 9.25911V12.6784C38.6926 12.7292 38.6836 12.7799 38.6565 12.8307C38.6024 12.9408 38.5031 13 38.3587 13H34.3339V12.9831ZM44.5133 5.04427C44.7118 5.04427 44.8652 5.00195 44.9825 4.90885C45.0908 4.81576 45.154 4.69727 45.154 4.54492C45.154 4.40951 45.0998 4.29102 44.9915 4.19792C44.8832 4.10482 44.7298 4.0625 44.5133 4.0625H39.1258C39.0716 4.0625 39.0175 4.07943 38.9453 4.12175C38.9092 4.1556 38.8821 4.20638 38.8821 4.2487V4.88346C38.8821 4.93425 38.9002 4.97656 38.9453 5.01042C38.9994 5.04427 39.0536 5.06966 39.1258 5.06966L44.5133 5.04427Z" fill="#002B41"/>
<path d="M51.3016 13C51.2194 13 51.1554 12.9746 51.0914 12.9239C51.0274 12.8731 51 12.8139 51 12.7378V0.296031C51 0.211451 51.0274 0.135329 51.0823 0.0845804C51.1371 0.0253741 51.2011 0 51.2834 0H65.7166C65.7989 0 65.8629 0.0253741 65.9177 0.0845804C65.9726 0.143787 66 0.211451 66 0.296031V3.72999C66 3.81457 65.9726 3.8907 65.9177 3.94144C65.8629 4.00065 65.7989 4.02602 65.7166 4.02602H56.0183C55.936 4.02602 55.872 4.0514 55.8172 4.10215C55.7623 4.1529 55.7349 4.2121 55.7349 4.28822V4.78725C55.7349 4.86337 55.7623 4.92258 55.8172 4.97333C55.872 5.02407 55.936 5.04945 56.0183 5.04945H65.7166C65.7989 5.04945 65.8629 5.07482 65.9177 5.13403C65.9726 5.19323 66 5.25244 66 5.32856V8.66949C66 8.74561 65.9726 8.80482 65.9177 8.86402C65.8629 8.92323 65.7989 8.9486 65.7166 8.9486H56.0183C55.936 8.9486 55.872 8.97398 55.8172 9.02472C55.7623 9.07547 55.7349 9.13468 55.7349 9.2108V12.7378C55.7349 12.8139 55.7075 12.8731 55.6435 12.9239C55.5795 12.9746 55.5155 13 55.4333 13H51.3016Z" fill="#002B41"/>
<path d="M5.88591 27.9915C5.79278 27.9915 5.71828 27.9662 5.6624 27.907C5.60652 27.8479 5.57858 27.7887 5.57858 27.7126V19.3023C5.57858 19.2263 5.55064 19.1671 5.49476 19.1164C5.43888 19.0657 5.37369 19.0403 5.28987 19.0403H0.288708C0.223516 19.0403 0.14901 19.0065 0.0838184 18.9473C0.0279395 18.8797 0 18.8121 0 18.7529V15.2789C0 15.2198 0.0279395 15.1521 0.0838184 15.0761C0.139697 15.0254 0.204889 15 0.288708 15H15.7113C15.7951 15 15.8603 15.0254 15.9162 15.0761C15.9721 15.1521 16 15.2198 16 15.2789V18.7529C16 18.8121 15.9721 18.8797 15.9162 18.9558C15.851 19.015 15.7765 19.0488 15.7113 19.0488H10.7008C10.6356 19.0488 10.5704 19.0741 10.5052 19.1248C10.44 19.1756 10.4121 19.2347 10.4121 19.3108V27.7211C10.4121 27.7971 10.3842 27.8563 10.3283 27.9155C10.2724 27.9746 10.1979 28 10.1048 28H5.88591V27.9915Z" fill="#002B41"/>
<path d="M16.3339 27.9831C16.2437 27.9831 16.1624 27.9492 16.0993 27.89C16.0361 27.8307 16 27.7546 16 27.6699V15.3131C16 15.2285 16.0361 15.1523 16.0993 15.0931C16.1624 15.0339 16.2437 15 16.3339 15H27.2713C28.1196 15 28.8957 15.1693 29.6176 15.5078C30.3395 15.8464 30.9171 16.3542 31.3503 17.0228C31.7834 17.6914 32 18.4954 32 19.4349C32 20.2897 31.7744 21.0684 31.3232 21.7624C30.872 22.4564 30.2764 22.9896 29.5364 23.362C30.4117 25.0124 31.1246 26.4681 31.6932 27.7292L31.7112 27.7884C31.7112 27.8392 31.6932 27.8815 31.6481 27.9154C31.612 27.9492 31.5578 27.9746 31.5127 27.9746H26.9193C26.784 27.9746 26.7028 27.9238 26.6576 27.8223L24.7355 24.0898C24.6994 23.9883 24.6091 23.9375 24.4738 23.9375H21.0085C20.8911 23.9375 20.8009 23.9967 20.7287 24.1068C20.7016 24.1322 20.6926 24.1829 20.6926 24.2591V27.6784C20.6926 27.7292 20.6836 27.7799 20.6565 27.8307C20.6024 27.9408 20.5031 28 20.3587 28H16.3339V27.9831ZM26.5223 20.0443C26.7208 20.0443 26.8742 20.002 26.9915 19.9089C27.0998 19.8158 27.163 19.6973 27.163 19.5449C27.163 19.4095 27.1089 19.291 27.0006 19.1979C26.8923 19.1048 26.7389 19.0625 26.5223 19.0625H21.1348C21.0807 19.0625 21.0265 19.0794 20.9543 19.1217C20.9182 19.1556 20.8911 19.2064 20.8911 19.2487V19.8835C20.8911 19.9342 20.9092 19.9766 20.9543 20.0104C21.0085 20.0443 21.0626 20.0697 21.1348 20.0697L26.5223 20.0443Z" fill="#002B41"/>
<path d="M33.4871 28C33.3188 28 33.1973 27.9408 33.1038 27.8308C33.0104 27.7209 32.9823 27.5856 33.0104 27.4418L36.5995 15.3129C36.6276 15.2115 36.6836 15.1353 36.7771 15.0846C36.8706 15.0254 36.9641 15 37.0762 15H44.9181C45.0303 15 45.1331 15.0338 45.2266 15.093C45.32 15.1522 45.3761 15.2284 45.3948 15.3129L48.984 27.4418C49.0214 27.594 48.9933 27.7209 48.8999 27.8308C48.8064 27.9408 48.6755 28 48.5073 28H44.3854C44.2732 28 44.1797 27.9746 44.0863 27.9154C43.9928 27.8562 43.9367 27.7801 43.9087 27.6871L43.6189 26.6805C43.6096 26.6298 43.5722 26.5875 43.5161 26.5537C43.46 26.5198 43.404 26.4945 43.3292 26.4945H38.6465C38.581 26.4945 38.5156 26.5114 38.4595 26.5537C38.4035 26.5875 38.3661 26.6383 38.3567 26.6805C38.3287 26.7905 38.3006 26.8835 38.2726 26.9597C38.2446 27.0358 38.2259 27.1034 38.2072 27.1627C38.1137 27.4841 38.0576 27.704 38.0389 27.8139C38.0015 27.9408 37.8987 28 37.7492 28H33.4871ZM42.002 22.4684C42.0954 22.4684 42.1702 22.4346 42.2263 22.3669C42.2824 22.2993 42.2917 22.2147 42.2637 22.1132L41.3851 19.1614C41.3757 19.0852 41.3196 19.0514 41.2168 19.0514H40.7682C40.6841 19.0514 40.628 19.0852 40.5999 19.1614L39.7213 22.1132V22.1893C39.7213 22.2655 39.7494 22.3247 39.7961 22.3839C39.8429 22.4431 39.9083 22.4684 39.9924 22.4684H42.002Z" fill="#002B41"/>
<path d="M49.0827 27.907C49.0276 27.8562 49 27.7885 49 27.704V24.2531C49 24.1685 49.0276 24.1008 49.0827 24.0501C49.1195 23.9909 49.1838 23.9571 49.2665 23.9571H53.807C53.8989 23.9571 53.9724 23.9317 54.0276 23.8809C54.0827 23.8302 54.1103 23.771 54.1103 23.6949V19.3136C54.1103 19.2375 54.0827 19.1783 54.0276 19.1275C53.9724 19.0768 53.8989 19.0514 53.807 19.0514H49.2665C49.1838 19.0514 49.1287 19.026 49.0827 18.9753C49.0276 18.9245 49 18.8569 49 18.7723V15.296C49 15.2115 49.0276 15.1438 49.0827 15.093C49.1195 15.0338 49.1838 15 49.2665 15H63.7151C63.7794 15 63.8529 15.0338 63.9173 15.093C63.9724 15.1692 64 15.2368 64 15.296V18.7723C64 18.8315 63.9724 18.8992 63.9173 18.9753C63.8621 19.026 63.7978 19.0514 63.7151 19.0514H59.1746C59.1103 19.0514 59.046 19.0768 58.9816 19.136C58.9173 19.1952 58.8897 19.2544 58.8897 19.3136V23.6949C58.8897 23.771 58.9173 23.8302 58.9816 23.8809C59.046 23.9317 59.1103 23.9571 59.1746 23.9571H63.7151C63.7794 23.9571 63.8529 23.9909 63.9173 24.0501C63.9724 24.1262 64 24.1939 64 24.2531V27.704C64 27.7632 63.9724 27.8308 63.9173 27.907C63.8529 27.9662 63.7794 28 63.7151 28H49.2665C49.1838 28 49.1287 27.9746 49.0827 27.907Z" fill="#002B41"/>
<path d="M76.072 23.5088C76.0811 23.5426 76.1177 23.5595 76.1634 23.5511C76.2091 23.5426 76.2366 23.5257 76.2366 23.4834V15.296C76.2366 15.2115 76.264 15.1353 76.328 15.0846C76.392 15.0254 76.456 15 76.5383 15H80.6983C80.7806 15 80.8446 15.0254 80.9086 15.0846C80.9726 15.1438 81 15.2115 81 15.296V27.7378C81 27.8139 80.9726 27.8731 80.9086 27.9239C80.8446 27.9746 80.7806 28 80.7166 28L72.6617 27.9831C72.5154 27.9831 72.424 27.9239 72.3783 27.797L69.9646 19.4574C69.9554 19.4066 69.9189 19.3897 69.8549 19.3897C69.7909 19.3982 69.7634 19.4236 69.7634 19.4743V27.7209C69.7634 27.797 69.736 27.8562 69.6811 27.9154C69.6263 27.9746 69.5531 28 69.4617 28H65.3017C65.2194 28 65.1554 27.9746 65.0914 27.9154C65.0274 27.8562 65 27.797 65 27.7209V15.2622C65 15.203 65.0274 15.1438 65.0823 15.0846C65.1371 15.0254 65.2011 15 65.2834 15H73.3931C73.5303 15 73.6126 15.0592 73.6583 15.1861L76.072 23.5088Z" fill="#002B41"/>
<path d="M53.1546 45C52.401 45 51.715 44.8309 51.0773 44.4928C50.4396 44.1547 49.9372 43.6983 49.5604 43.1151C49.1836 42.5403 49 41.9148 49 41.2302V35.7698C49 35.0852 49.1836 34.4597 49.5604 33.8849C49.9372 33.3101 50.4396 32.8537 51.0773 32.5072C51.715 32.1691 52.4106 32 53.1546 32H64.5942C64.7101 32 64.8068 32.0338 64.8841 32.1014C64.9614 32.169 65 32.2536 65 32.355V35.7107C65 35.8121 64.9614 35.8966 64.8841 35.9642C64.8068 36.0319 64.7101 36.0657 64.5942 36.0657H54.43C54.314 36.0657 54.2174 36.0995 54.1401 36.1671C54.0628 36.2347 54.0242 36.3192 54.0242 36.4207V40.4863C54.0242 40.5878 54.0628 40.6723 54.1401 40.7399C54.2174 40.8075 54.314 40.8414 54.43 40.8414H64.5942C64.7101 40.8414 64.8068 40.8752 64.8841 40.9428C64.9614 41.0104 65 41.0949 65 41.1964V44.645C65 44.7464 64.9614 44.8309 64.8841 44.8986C64.8068 44.9662 64.7101 45 64.5942 45H53.1546Z" fill="#002B41"/>
<path d="M69.0656 45C68.3281 45 67.6568 44.8308 67.0328 44.4925C66.4088 44.1542 65.9171 43.6975 65.5484 43.1139C65.1796 42.5387 65 41.9128 65 41.2277V35.7892C65 35.0956 65.1796 34.4613 65.5484 33.8861C65.9171 33.311 66.4088 32.8543 67.0328 32.5075C67.6568 32.1692 68.3376 32 69.0656 32H77.9344C78.6813 32 79.3715 32.1692 79.9861 32.5075C80.6101 32.8458 81.1018 33.3025 81.4611 33.8861C81.8204 34.4613 82 35.0956 82 35.7892V41.2277C82 41.9128 81.8204 42.5387 81.4611 43.1139C81.1018 43.689 80.6101 44.1457 79.9861 44.4925C79.3621 44.8308 78.6813 45 77.9344 45H69.0656ZM76.3932 40.6357C76.5823 40.6357 76.7525 40.568 76.8943 40.4411C77.0362 40.3142 77.1023 40.1451 77.1023 39.9506V36.9987C77.1023 36.8042 77.0362 36.635 76.8943 36.4997C76.7525 36.3643 76.5918 36.2967 76.3932 36.2967H70.6446C70.4461 36.2967 70.2853 36.3643 70.134 36.4997C69.9922 36.635 69.9166 36.8042 69.9166 36.9987V39.9506C69.9166 40.1451 69.9922 40.3142 70.134 40.4411C70.2759 40.568 70.4461 40.6357 70.6446 40.6357H76.3932Z" fill="#002B41"/>
</svg>
