<svg width="311" height="169" viewBox="0 0 311 169" fill="none" xmlns="http://www.w3.org/2000/svg">
<path d="M2.75734 50.9668C2.12909 50.9668 1.67535 50.7012 1.36122 50.1699C1.25651 50.0371 1.22161 49.7715 1.22161 49.4394V37.7852C1.22161 37.3535 1.39612 36.9551 1.71025 36.623C2.05928 36.291 2.47812 36.125 2.96676 36.125H41.6742C42.477 36.125 43.1053 35.959 43.5241 35.627C43.9429 35.2949 44.1524 34.8633 44.1524 34.2988C44.1524 33.7676 43.9429 33.3027 43.4892 32.9375C43.0704 32.5723 42.4421 32.4063 41.6742 32.4063L18.359 32.2734C15.0432 32.2402 11.9717 31.6094 9.2144 30.3809C6.42216 29.1523 4.18837 27.3262 2.51302 24.8359C0.837673 22.3457 0 19.3574 0 15.8711C0 10.459 1.74515 6.47461 5.20055 3.88476C8.69086 1.29492 13.0537 0 18.3939 0H60.6266C60.9407 0 61.185 0.132812 61.3945 0.365234C61.6039 0.597656 61.7086 0.896483 61.7086 1.22851V13.9121C61.7086 14.2441 61.6039 14.543 61.3945 14.7754C61.185 15.0078 60.9407 15.1406 60.6266 15.1406H21.3258C20.523 15.1406 19.8947 15.3066 19.4759 15.6387C19.0571 15.9707 18.8476 16.4023 18.8476 16.9668C18.8476 17.498 19.0571 17.9629 19.5108 18.3281C19.9296 18.6934 20.5579 18.8594 21.3258 18.8594L45.6881 18.9258C50.7839 18.9258 54.9723 20.2871 58.1834 23.043C61.3945 25.7988 63 29.7832 63 35.0293C63 38.0508 62.2321 40.7734 60.7313 43.1973C59.2305 45.6211 57.1712 47.5469 54.5186 48.9082C51.9008 50.3027 48.9341 51 45.6532 51H2.75734V50.9668Z" fill="white"/>
<path d="M81.0333 50.9668C78.3063 50.9668 75.8241 50.3036 73.5166 48.9772C71.2092 47.6508 69.3912 45.8602 68.0277 43.5722C66.6643 41.3173 66 38.8303 66 36.1112V1.02796C66 0.729518 66.1049 0.497397 66.3147 0.298438C66.5244 0.0994778 66.7691 0 67.0838 0H83.2009C83.4456 0 83.6903 0.0994778 83.9351 0.298438C84.1798 0.497397 84.2847 0.729518 84.2847 1.02796V31.104C84.2847 31.8667 84.5294 32.5299 85.0538 33.0605C85.5782 33.591 86.1726 33.8563 86.9068 33.8563H108.163C108.862 33.8563 109.492 33.591 110.016 33.0605C110.541 32.5299 110.785 31.8667 110.785 31.104V1.02796C110.785 0.729518 110.89 0.497397 111.135 0.298438C111.38 0.0994778 111.624 0 111.869 0H127.916C128.231 0 128.476 0.0994778 128.685 0.298438C128.895 0.497397 129 0.729518 129 1.02796V36.1443C129 38.8635 128.336 41.3505 126.972 43.6053C125.609 45.8602 123.791 47.6508 121.483 49.0104C119.176 50.3368 116.659 51 113.897 51H81.0333V50.9668Z" fill="white"/>
<path d="M132.294 50.9336C131.944 50.9336 131.629 50.8008 131.385 50.5684C131.14 50.3359 131 50.0371 131 49.7051V1.22852C131 0.896486 131.14 0.597656 131.385 0.365234C131.629 0.132812 131.944 0 132.294 0H174.676C177.963 0 180.971 0.664062 183.768 1.99219C186.566 3.32031 188.804 5.3125 190.482 7.93555C192.161 10.5586 193 13.7129 193 17.3984C193 20.752 192.126 23.8066 190.377 26.5293C188.629 29.252 186.321 31.3437 183.453 32.8047C186.845 39.2793 189.608 44.9902 191.811 49.9375L191.881 50.1699C191.881 50.3691 191.811 50.5352 191.636 50.668C191.496 50.8008 191.287 50.9004 191.112 50.9004H173.312C172.788 50.9004 172.473 50.7012 172.298 50.3027L164.85 35.6602C164.71 35.2617 164.36 35.0625 163.836 35.0625H150.408C149.953 35.0625 149.603 35.2949 149.324 35.7266C149.219 35.8262 149.184 36.0254 149.184 36.3242V49.7383C149.184 49.9375 149.149 50.1367 149.044 50.3359C148.834 50.7676 148.45 51 147.89 51H132.294V50.9336ZM171.739 19.7891C172.508 19.7891 173.103 19.623 173.557 19.2578C173.977 18.8926 174.222 18.4277 174.222 17.8301C174.222 17.2988 174.012 16.834 173.592 16.4688C173.173 16.1035 172.578 15.9375 171.739 15.9375H150.862C150.653 15.9375 150.443 16.0039 150.163 16.1699C150.023 16.3027 149.918 16.502 149.918 16.668V19.1582C149.918 19.3574 149.988 19.5234 150.163 19.6563C150.373 19.7891 150.583 19.8887 150.862 19.8887L171.739 19.7891Z" fill="white"/>
<path d="M195.166 51C194.848 51 194.601 50.9005 194.353 50.7014C194.106 50.5023 194 50.27 194 49.9714V1.16135C194 0.829538 194.106 0.530904 194.318 0.331815C194.53 0.0995446 194.778 0 195.096 0H250.904C251.222 0 251.47 0.0995446 251.682 0.331815C251.894 0.564086 252 0.829538 252 1.16135V14.633C252 14.9649 251.894 15.2635 251.682 15.4626C251.47 15.6949 251.222 15.7944 250.904 15.7944H213.404C213.086 15.7944 212.838 15.894 212.626 16.093C212.414 16.2921 212.308 16.5244 212.308 16.823V18.7807C212.308 19.0794 212.414 19.3116 212.626 19.5107C212.838 19.7098 213.086 19.8094 213.404 19.8094H250.904C251.222 19.8094 251.47 19.9089 251.682 20.1412C251.894 20.3735 252 20.6057 252 20.9044V34.0111C252 34.3097 251.894 34.542 251.682 34.7742C251.47 35.0065 251.222 35.1061 250.904 35.1061H213.404C213.086 35.1061 212.838 35.2056 212.626 35.4047C212.414 35.6038 212.308 35.836 212.308 36.1347V49.9714C212.308 50.27 212.202 50.5023 211.955 50.7014C211.707 50.9005 211.46 51 211.142 51H195.166Z" fill="white"/>
<path d="M22.0722 108.967C21.7229 108.967 21.4435 108.867 21.234 108.635C21.0244 108.403 20.9197 108.171 20.9197 107.873V74.8784C20.9197 74.58 20.8149 74.3479 20.6054 74.1489C20.3958 73.9499 20.1513 73.8505 19.837 73.8505H1.08265C0.838184 73.8505 0.558789 73.7178 0.314319 73.4857C0.104773 73.2204 0 72.9551 0 72.723V59.0943C0 58.8622 0.104773 58.5969 0.314319 58.2984C0.523865 58.0995 0.768335 58 1.08265 58H58.9173C59.2317 58 59.4761 58.0995 59.6857 58.2984C59.8952 58.5969 60 58.8622 60 59.0943V72.723C60 72.9551 59.8952 73.2204 59.6857 73.5189C59.4412 73.751 59.1618 73.8836 58.9173 73.8836H40.1281C39.8836 73.8836 39.6391 73.9831 39.3946 74.1821C39.1502 74.381 39.0454 74.6131 39.0454 74.9116V107.906C39.0454 108.204 38.9406 108.436 38.7311 108.668C38.5215 108.901 38.2421 109 37.8929 109H22.0722V108.967Z" fill="white"/>
<path d="M63.2939 108.934C62.9442 108.934 62.6294 108.801 62.3847 108.568C62.1399 108.336 62 108.037 62 107.705V59.2285C62 58.8965 62.1399 58.5976 62.3847 58.3652C62.6294 58.1328 62.9442 58 63.2939 58H105.676C108.963 58 111.971 58.6641 114.768 59.9922C117.566 61.3203 119.804 63.3125 121.482 65.9355C123.161 68.5586 124 71.7129 124 75.3984C124 78.752 123.126 81.8066 121.377 84.5293C119.629 87.252 117.321 89.3438 114.453 90.8047C117.845 97.2793 120.608 102.99 122.811 107.938L122.881 108.17C122.881 108.369 122.811 108.535 122.636 108.668C122.496 108.801 122.287 108.9 122.112 108.9H104.312C103.788 108.9 103.473 108.701 103.298 108.303L95.85 93.6602C95.7101 93.2617 95.3604 93.0625 94.8359 93.0625H81.4078C80.9532 93.0625 80.6035 93.2949 80.3237 93.7266C80.2188 93.8262 80.1839 94.0254 80.1839 94.3242V107.738C80.1839 107.938 80.1489 108.137 80.044 108.336C79.8342 108.768 79.4495 109 78.89 109H63.2939V108.934ZM102.774 77.7891C103.543 77.7891 104.138 77.6231 104.592 77.2578C105.012 76.8926 105.257 76.4277 105.257 75.8301C105.257 75.2988 105.047 74.834 104.627 74.4687C104.208 74.1035 103.613 73.9375 102.774 73.9375H81.8973C81.6875 73.9375 81.4777 74.0039 81.198 74.1699C81.0581 74.3027 80.9532 74.5019 80.9532 74.668V77.1582C80.9532 77.3574 81.0231 77.5234 81.198 77.6562C81.4078 77.7891 81.6176 77.8887 81.8973 77.8887L102.774 77.7891Z" fill="white"/>
<path d="M127.826 109C127.196 109 126.74 108.768 126.389 108.336C126.039 107.905 125.934 107.374 126.039 106.81L139.498 59.2277C139.603 58.8295 139.814 58.5309 140.164 58.3318C140.515 58.0995 140.865 58 141.286 58H170.693C171.114 58 171.499 58.1327 171.85 58.365C172.2 58.5973 172.41 58.8959 172.481 59.2277L185.94 106.81C186.08 107.407 185.975 107.905 185.624 108.336C185.274 108.768 184.783 109 184.152 109H168.695C168.275 109 167.924 108.9 167.574 108.668C167.223 108.436 167.013 108.137 166.908 107.772L165.821 103.824C165.786 103.625 165.646 103.459 165.435 103.326C165.225 103.193 165.015 103.094 164.734 103.094H147.174C146.929 103.094 146.684 103.16 146.473 103.326C146.263 103.459 146.123 103.658 146.088 103.824C145.983 104.255 145.877 104.62 145.772 104.919C145.667 105.217 145.597 105.483 145.527 105.715C145.176 106.976 144.966 107.839 144.896 108.27C144.756 108.768 144.37 109 143.809 109H127.826ZM159.757 87.2993C160.108 87.2993 160.388 87.1666 160.599 86.9011C160.809 86.6357 160.844 86.3038 160.739 85.9057L157.444 74.3253C157.409 74.0267 157.199 73.8939 156.813 73.8939H155.131C154.815 73.8939 154.605 74.0267 154.5 74.3253L151.205 85.9057V86.2043C151.205 86.5029 151.31 86.7352 151.485 86.9675C151.661 87.1997 151.906 87.2993 152.222 87.2993H159.757Z" fill="white"/>
<path d="M188.314 108.635C188.105 108.436 188 108.17 188 107.839V94.3006C188 93.9688 188.105 93.7033 188.314 93.5042C188.454 93.272 188.699 93.1392 189.013 93.1392H206.267C206.616 93.1392 206.895 93.0397 207.105 92.8406C207.314 92.6415 207.419 92.4092 207.419 92.1106V74.9226C207.419 74.6239 207.314 74.3917 207.105 74.1926C206.895 73.9935 206.616 73.8939 206.267 73.8939H189.013C188.699 73.8939 188.489 73.7944 188.314 73.5953C188.105 73.3962 188 73.1308 188 72.799V59.1614C188 58.8295 188.105 58.5641 188.314 58.365C188.454 58.1327 188.699 58 189.013 58H243.917C244.162 58 244.441 58.1327 244.686 58.365C244.895 58.6636 245 58.9291 245 59.1614V72.799C245 73.0312 244.895 73.2967 244.686 73.5953C244.476 73.7944 244.232 73.8939 243.917 73.8939H226.664C226.419 73.8939 226.175 73.9935 225.93 74.2258C225.686 74.458 225.581 74.6903 225.581 74.9226V92.1106C225.581 92.4092 225.686 92.6415 225.93 92.8406C226.175 93.0397 226.419 93.1392 226.664 93.1392H243.917C244.162 93.1392 244.441 93.272 244.686 93.5042C244.895 93.8029 245 94.0683 245 94.3006V107.839C245 108.071 244.895 108.336 244.686 108.635C244.441 108.867 244.162 109 243.917 109H189.013C188.699 109 188.489 108.9 188.314 108.635Z" fill="white"/>
<path d="M290.212 91.3806C290.247 91.5133 290.386 91.5797 290.561 91.5465C290.735 91.5133 290.839 91.447 290.839 91.2811V59.1614C290.839 58.8295 290.944 58.5309 291.188 58.3318C291.432 58.0995 291.676 58 291.99 58H307.85C308.163 58 308.407 58.0995 308.651 58.3318C308.895 58.5641 309 58.8295 309 59.1614V107.971C309 108.27 308.895 108.502 308.651 108.701C308.407 108.9 308.163 109 307.919 109L277.21 108.934C276.653 108.934 276.304 108.701 276.13 108.204L266.927 75.4867C266.893 75.2876 266.753 75.2212 266.509 75.2212C266.265 75.2544 266.161 75.3539 266.161 75.553V107.905C266.161 108.204 266.056 108.436 265.847 108.668C265.638 108.9 265.359 109 265.01 109H249.15C248.837 109 248.593 108.9 248.349 108.668C248.105 108.436 248 108.204 248 107.905V59.0286C248 58.7964 248.105 58.5641 248.314 58.3318C248.523 58.0995 248.767 58 249.081 58H279.999C280.522 58 280.835 58.2323 281.01 58.73L290.212 91.3806Z" fill="white"/>
<path d="M203.06 169C200.328 169 197.842 168.337 195.53 167.01C193.219 165.684 191.397 163.893 190.031 161.605C188.665 159.35 188 156.897 188 154.211V132.789C188 130.103 188.665 127.65 190.031 125.395C191.397 123.14 193.219 121.349 195.53 119.99C197.842 118.663 200.364 118 203.06 118H244.529C244.949 118 245.3 118.133 245.58 118.398C245.86 118.663 246 118.995 246 119.393V132.557C246 132.955 245.86 133.287 245.58 133.552C245.3 133.817 244.949 133.95 244.529 133.95H207.684C207.263 133.95 206.913 134.083 206.633 134.348C206.353 134.613 206.213 134.945 206.213 135.343V151.293C206.213 151.69 206.353 152.022 206.633 152.287C206.913 152.553 207.263 152.685 207.684 152.685H244.529C244.949 152.685 245.3 152.818 245.58 153.083C245.86 153.349 246 153.68 246 154.078V167.607C246 168.005 245.86 168.337 245.58 168.602C245.3 168.867 244.949 169 244.529 169H203.06Z" fill="white"/>
<path d="M263.067 169C260.334 169 257.846 168.336 255.533 167.009C253.221 165.682 251.399 163.89 250.032 161.601C248.666 159.344 248 156.889 248 154.201V132.865C248 130.144 248.666 127.656 250.032 125.399C251.399 123.143 253.221 121.351 255.533 119.991C257.846 118.664 260.369 118 263.067 118H295.933C298.701 118 301.259 118.664 303.537 119.991C305.849 121.318 307.671 123.11 309.003 125.399C310.334 127.656 311 130.144 311 132.865V154.201C311 156.889 310.334 159.344 309.003 161.601C307.671 163.857 305.849 165.649 303.537 167.009C301.224 168.336 298.701 169 295.933 169H263.067ZM290.222 151.878C290.923 151.878 291.553 151.613 292.079 151.115C292.605 150.617 292.85 149.954 292.85 149.191V137.61C292.85 136.847 292.605 136.183 292.079 135.653C291.553 135.122 290.958 134.856 290.222 134.856H268.918C268.182 134.856 267.587 135.122 267.026 135.653C266.501 136.183 266.22 136.847 266.22 137.61V149.191C266.22 149.954 266.501 150.617 267.026 151.115C267.552 151.613 268.182 151.878 268.918 151.878H290.222Z" fill="white"/>
</svg>
