<svg width="82" height="51" viewBox="0 0 82 51" fill="none" xmlns="http://www.w3.org/2000/svg">
<g id="&#208;&#155;&#208;&#190;&#208;&#179;&#208;&#190;">
<g id="Group">
<path id="Vector" d="M0.744044 14.6902C0.574515 14.6902 0.452078 14.6152 0.367313 14.4653C0.339058 14.4278 0.32964 14.3529 0.32964 14.2592V10.9706C0.32964 10.8488 0.376731 10.7364 0.461496 10.6427C0.555679 10.549 0.668698 10.5022 0.800554 10.5022H11.2454C11.4621 10.5022 11.6316 10.4553 11.7446 10.3616C11.8576 10.268 11.9141 10.1462 11.9141 9.98688C11.9141 9.83697 11.8576 9.70581 11.7352 9.60275C11.6222 9.49969 11.4526 9.45284 11.2454 9.45284L4.95402 9.41536C4.05928 9.40599 3.23047 9.22798 2.48643 8.88132C1.73296 8.53467 1.13019 8.01937 0.678116 7.31668C0.226039 6.614 0 5.77078 0 4.78703C0 3.25986 0.470914 2.13557 1.40332 1.40478C2.34515 0.673989 3.52244 0.308594 4.96344 0.308594H16.3596C16.4443 0.308594 16.5102 0.34607 16.5668 0.411654C16.6233 0.477237 16.6515 0.561559 16.6515 0.65525V4.23425C16.6515 4.32794 16.6233 4.41226 16.5668 4.47785C16.5102 4.54343 16.4443 4.58091 16.3596 4.58091H5.75457C5.53795 4.58091 5.36842 4.62775 5.2554 4.72144C5.14238 4.81513 5.08587 4.93693 5.08587 5.09621C5.08587 5.24611 5.14238 5.37728 5.26482 5.48034C5.37784 5.5834 5.54737 5.63025 5.75457 5.63025L12.3285 5.64898C13.7036 5.64898 14.8338 6.03312 15.7003 6.81075C16.5668 7.58839 17 8.71268 17 10.193C17 11.0456 16.7928 11.8139 16.3878 12.4978C15.9828 13.1817 15.4271 13.7252 14.7114 14.1093C14.005 14.5028 13.2044 14.6995 12.3191 14.6995H0.744044V14.6902Z" fill="#002B41"/>
<path id="Vector_2" d="M21.0566 14.6902C20.3208 14.6902 19.6509 14.503 19.0283 14.1288C18.4057 13.7545 17.9151 13.2492 17.5472 12.6036C17.1792 11.9673 17 11.2655 17 10.4983V0.598658C17 0.514446 17.0283 0.448947 17.0849 0.392805C17.1415 0.336664 17.2075 0.308594 17.2925 0.308594H21.6415C21.7075 0.308594 21.7736 0.336664 21.8396 0.392805C21.9057 0.448947 21.934 0.514446 21.934 0.598658V9.08539C21.934 9.3006 22 9.48773 22.1415 9.63744C22.283 9.78716 22.4434 9.86201 22.6415 9.86201H28.3774C28.566 9.86201 28.7358 9.78716 28.8774 9.63744C29.0189 9.48773 29.0849 9.3006 29.0849 9.08539V0.598658C29.0849 0.514446 29.1132 0.448947 29.1792 0.392805C29.2453 0.336664 29.3113 0.308594 29.3774 0.308594H33.7075C33.7925 0.308594 33.8585 0.336664 33.9151 0.392805C33.9717 0.448947 34 0.514446 34 0.598658V10.5076C34 11.2749 33.8208 11.9767 33.4528 12.6129C33.0849 13.2492 32.5943 13.7545 31.9717 14.1381C31.3491 14.5124 30.6698 14.6995 29.9245 14.6995H21.0566V14.6902Z" fill="#002B41"/>
<path id="Vector_3" d="M34.3339 14.6808C34.2437 14.6808 34.1624 14.6433 34.0993 14.5777C34.0361 14.5122 34 14.4278 34 14.3341V0.655251C34 0.56156 34.0361 0.477237 34.0993 0.411654C34.1624 0.34607 34.2437 0.308594 34.3339 0.308594H45.2713C46.1196 0.308594 46.8957 0.495976 47.6176 0.87074C48.3395 1.2455 48.9171 1.80765 49.3503 2.54781C49.7834 3.28797 50 4.17803 50 5.21801C50 6.16428 49.7744 7.02624 49.3232 7.79451C48.872 8.56278 48.2764 9.15303 47.5364 9.56527C48.4117 11.3922 49.1246 13.0037 49.6932 14.3997L49.7112 14.4653C49.7112 14.5215 49.6932 14.5684 49.6481 14.6058C49.612 14.6433 49.5578 14.6714 49.5127 14.6714H44.9193C44.784 14.6714 44.7028 14.6152 44.6576 14.5028L42.7355 10.371C42.6994 10.2586 42.6091 10.2024 42.4738 10.2024H39.0085C38.8911 10.2024 38.8009 10.268 38.7287 10.3898C38.7016 10.4179 38.6926 10.4741 38.6926 10.5584V14.3435C38.6926 14.3997 38.6836 14.4559 38.6565 14.5122C38.6024 14.634 38.5031 14.6995 38.3587 14.6995H34.3339V14.6808ZM44.5133 5.89258C44.7118 5.89258 44.8652 5.84574 44.9825 5.74268C45.0908 5.63962 45.154 5.50845 45.154 5.3398C45.154 5.1899 45.0998 5.05873 44.9915 4.95567C44.8832 4.85261 44.7298 4.80576 44.5133 4.80576H39.1258C39.0716 4.80576 39.0175 4.8245 38.9453 4.87135C38.9092 4.90882 38.8821 4.96504 38.8821 5.01189V5.71457C38.8821 5.77078 38.9002 5.81763 38.9453 5.8551C38.9994 5.89258 39.0536 5.92069 39.1258 5.92069L44.5133 5.89258Z" fill="#002B41"/>
<path id="Vector_4" d="M51.3016 14.6995C51.2194 14.6995 51.1554 14.6715 51.0914 14.6153C51.0274 14.5591 51 14.4936 51 14.4093V0.636299C51 0.542669 51.0274 0.458402 51.0823 0.402224C51.1371 0.336683 51.2011 0.308594 51.2834 0.308594H65.7166C65.7989 0.308594 65.8629 0.336683 65.9177 0.402224C65.9726 0.467765 66 0.542669 66 0.636299V4.43768C66 4.53131 65.9726 4.61558 65.9177 4.67176C65.8629 4.7373 65.7989 4.76539 65.7166 4.76539H56.0183C55.936 4.76539 55.872 4.79348 55.8172 4.84965C55.7623 4.90583 55.7349 4.97137 55.7349 5.05564V5.60806C55.7349 5.69232 55.7623 5.75787 55.8172 5.81404C55.872 5.87022 55.936 5.89831 56.0183 5.89831H65.7166C65.7989 5.89831 65.8629 5.9264 65.9177 5.99194C65.9726 6.05748 66 6.12302 66 6.20729V9.90568C66 9.98995 65.9726 10.0555 65.9177 10.121C65.8629 10.1866 65.7989 10.2147 65.7166 10.2147H56.0183C55.936 10.2147 55.872 10.2427 55.8172 10.2989C55.7623 10.3551 55.7349 10.4206 55.7349 10.5049V14.4093C55.7349 14.4936 55.7075 14.5591 55.6435 14.6153C55.5795 14.6715 55.5155 14.6995 55.4333 14.6995H51.3016Z" fill="#002B41"/>
</g>
<g id="Group_2">
<path id="Vector_5" d="M5.88591 31.2957C5.79278 31.2957 5.71828 31.2676 5.6624 31.2021C5.60652 31.1366 5.57858 31.0711 5.57858 30.9869V21.6767C5.57858 21.5925 5.55064 21.527 5.49476 21.4709C5.43888 21.4147 5.37369 21.3867 5.28987 21.3867H0.288708C0.223516 21.3867 0.14901 21.3492 0.0838184 21.2837C0.0279395 21.2089 0 21.134 0 21.0685V17.2228C0 17.1573 0.0279395 17.0825 0.0838184 16.9983C0.139697 16.9421 0.204889 16.9141 0.288708 16.9141H15.7113C15.7951 16.9141 15.8603 16.9421 15.9162 16.9983C15.9721 17.0825 16 17.1573 16 17.2228V21.0685C16 21.134 15.9721 21.2089 15.9162 21.2931C15.851 21.3586 15.7765 21.396 15.7113 21.396H10.7008C10.6356 21.396 10.5704 21.4241 10.5052 21.4802C10.44 21.5364 10.4121 21.6019 10.4121 21.6861V30.9962C10.4121 31.0804 10.3842 31.1459 10.3283 31.2114C10.2724 31.2769 10.1979 31.305 10.1048 31.305H5.88591V31.2957Z" fill="#002B41"/>
<path id="Vector_6" d="M16.3339 31.2863C16.2437 31.2863 16.1624 31.2488 16.0993 31.1832C16.0361 31.1176 16 31.0333 16 30.9396V17.2607C16 17.167 16.0361 17.0827 16.0993 17.0171C16.1624 16.9515 16.2437 16.9141 16.3339 16.9141H27.2713C28.1196 16.9141 28.8957 17.1014 29.6176 17.4762C30.3395 17.851 30.9171 18.4131 31.3503 19.1533C31.7834 19.8934 32 20.7835 32 21.8235C32 22.7698 31.7744 23.6317 31.3232 24.4C30.872 25.1682 30.2764 25.7585 29.5364 26.1707C30.4117 27.9977 31.1246 29.6092 31.6932 31.0052L31.7112 31.0708C31.7112 31.127 31.6932 31.1738 31.6481 31.2113C31.612 31.2488 31.5578 31.2769 31.5127 31.2769H26.9193C26.784 31.2769 26.7028 31.2207 26.6576 31.1083L24.7355 26.9765C24.6994 26.8641 24.6091 26.8078 24.4738 26.8078H21.0085C20.8911 26.8078 20.8009 26.8734 20.7287 26.9952C20.7016 27.0233 20.6926 27.0795 20.6926 27.1639V30.949C20.6926 31.0052 20.6836 31.0614 20.6565 31.1176C20.6024 31.2394 20.5031 31.305 20.3587 31.305H16.3339V31.2863ZM26.5223 22.498C26.7208 22.498 26.8742 22.4512 26.9915 22.3481C27.0998 22.2451 27.163 22.1139 27.163 21.9453C27.163 21.7954 27.1089 21.6642 27.0006 21.5611C26.8923 21.4581 26.7389 21.4112 26.5223 21.4112H21.1348C21.0807 21.4112 21.0265 21.43 20.9543 21.4768C20.9182 21.5143 20.8911 21.5705 20.8911 21.6174V22.32C20.8911 22.3763 20.9092 22.4231 20.9543 22.4606C21.0085 22.498 21.0626 22.5262 21.1348 22.5262L26.5223 22.498Z" fill="#002B41"/>
<path id="Vector_7" d="M33.4871 31.305C33.3188 31.305 33.1973 31.2395 33.1038 31.1177C33.0104 30.996 32.9823 30.8462 33.0104 30.687L36.5995 17.2605C36.6276 17.1481 36.6836 17.0639 36.7771 17.0077C36.8706 16.9422 36.9641 16.9141 37.0762 16.9141H44.9181C45.0303 16.9141 45.1331 16.9515 45.2266 17.0171C45.32 17.0826 45.3761 17.1669 45.3948 17.2605L48.984 30.687C49.0214 30.8556 48.9933 30.996 48.8999 31.1177C48.8064 31.2395 48.6755 31.305 48.5073 31.305H44.3854C44.2732 31.305 44.1797 31.2769 44.0863 31.2114C43.9928 31.1458 43.9367 31.0616 43.9087 30.9586L43.6189 29.8444C43.6096 29.7882 43.5722 29.7414 43.5161 29.7039C43.46 29.6665 43.404 29.6384 43.3292 29.6384H38.6465C38.581 29.6384 38.5156 29.6571 38.4595 29.7039C38.4035 29.7414 38.3661 29.7976 38.3567 29.8444C38.3287 29.9661 38.3006 30.0691 38.2726 30.1534C38.2446 30.2376 38.2259 30.3125 38.2072 30.3781C38.1137 30.7339 38.0576 30.9773 38.0389 31.099C38.0015 31.2395 37.8987 31.305 37.7492 31.305H33.4871ZM42.002 25.1816C42.0954 25.1816 42.1702 25.1441 42.2263 25.0692C42.2824 24.9943 42.2917 24.9007 42.2637 24.7884L41.3851 21.5207C41.3757 21.4364 41.3196 21.3989 41.2168 21.3989H40.7682C40.6841 21.3989 40.628 21.4364 40.5999 21.5207L39.7213 24.7884V24.8726C39.7213 24.9569 39.7494 25.0224 39.7961 25.088C39.8429 25.1535 39.9083 25.1816 39.9924 25.1816H42.002Z" fill="#002B41"/>
<path id="Vector_8" d="M49.0827 31.202C49.0276 31.1458 49 31.0709 49 30.9773V27.1572C49 27.0636 49.0276 26.9887 49.0827 26.9325C49.1195 26.8669 49.1838 26.8295 49.2665 26.8295H53.807C53.8989 26.8295 53.9724 26.8014 54.0276 26.7452C54.0827 26.689 54.1103 26.6235 54.1103 26.5392V21.6892C54.1103 21.6049 54.0827 21.5394 54.0276 21.4832C53.9724 21.427 53.8989 21.3989 53.807 21.3989H49.2665C49.1838 21.3989 49.1287 21.3709 49.0827 21.3147C49.0276 21.2585 49 21.1836 49 21.09V17.2418C49 17.1481 49.0276 17.0732 49.0827 17.0171C49.1195 16.9515 49.1838 16.9141 49.2665 16.9141H63.7151C63.7794 16.9141 63.8529 16.9515 63.9173 17.0171C63.9724 17.1013 64 17.1762 64 17.2418V21.09C64 21.1555 63.9724 21.2304 63.9173 21.3147C63.8621 21.3709 63.7978 21.3989 63.7151 21.3989H59.1746C59.1103 21.3989 59.046 21.427 58.9816 21.4926C58.9173 21.5581 58.8897 21.6237 58.8897 21.6892V26.5392C58.8897 26.6235 58.9173 26.689 58.9816 26.7452C59.046 26.8014 59.1103 26.8295 59.1746 26.8295H63.7151C63.7794 26.8295 63.8529 26.8669 63.9173 26.9325C63.9724 27.0167 64 27.0917 64 27.1572V30.9773C64 31.0428 63.9724 31.1177 63.9173 31.202C63.8529 31.2676 63.7794 31.305 63.7151 31.305H49.2665C49.1838 31.305 49.1287 31.2769 49.0827 31.202Z" fill="#002B41"/>
<path id="Vector_9" d="M76.072 26.3333C76.0811 26.3707 76.1177 26.3894 76.1634 26.3801C76.2091 26.3707 76.2366 26.352 76.2366 26.3052V17.2418C76.2366 17.1481 76.264 17.0639 76.328 17.0077C76.392 16.9422 76.456 16.9141 76.5383 16.9141H80.6983C80.7806 16.9141 80.8446 16.9422 80.9086 17.0077C80.9726 17.0732 81 17.1481 81 17.2418V31.0148C81 31.099 80.9726 31.1646 80.9086 31.2207C80.8446 31.2769 80.7806 31.305 80.7166 31.305L72.6617 31.2863C72.5154 31.2863 72.424 31.2207 72.3783 31.0803L69.9646 21.8484C69.9554 21.7922 69.9189 21.7735 69.8549 21.7735C69.7909 21.7828 69.7634 21.8109 69.7634 21.8671V30.996C69.7634 31.0803 69.736 31.1458 69.6811 31.2114C69.6263 31.2769 69.5531 31.305 69.4617 31.305H65.3017C65.2194 31.305 65.1554 31.2769 65.0914 31.2114C65.0274 31.1458 65 31.0803 65 30.996V17.2043C65 17.1388 65.0274 17.0732 65.0823 17.0077C65.1371 16.9422 65.2011 16.9141 65.2834 16.9141H73.3931C73.5303 16.9141 73.6126 16.9796 73.6583 17.12L76.072 26.3333Z" fill="#002B41"/>
</g>
<g id="Group_3">
<path id="Vector_10" d="M53.1546 50.1234C52.401 50.1234 51.715 49.9362 51.0773 49.562C50.4396 49.1877 49.9372 48.6824 49.5604 48.0368C49.1836 47.4005 49 46.7081 49 45.9502V39.9056C49 39.1477 49.1836 38.4553 49.5604 37.819C49.9372 37.1827 50.4396 36.6775 51.0773 36.2938C51.715 35.9196 52.4106 35.7324 53.1546 35.7324H64.5942C64.7101 35.7324 64.8068 35.7698 64.8841 35.8447C64.9614 35.9196 65 36.0131 65 36.1254V39.8401C65 39.9524 64.9614 40.046 64.8841 40.1208C64.8068 40.1957 64.7101 40.2331 64.5942 40.2331H54.43C54.314 40.2331 54.2174 40.2705 54.1401 40.3454C54.0628 40.4202 54.0242 40.5138 54.0242 40.6261V45.1268C54.0242 45.2391 54.0628 45.3326 54.1401 45.4075C54.2174 45.4823 54.314 45.5198 54.43 45.5198H64.5942C64.7101 45.5198 64.8068 45.5572 64.8841 45.632C64.9614 45.7069 65 45.8005 65 45.9128V49.7304C65 49.8427 64.9614 49.9362 64.8841 50.0111C64.8068 50.0859 64.7101 50.1234 64.5942 50.1234H53.1546Z" fill="#002B41"/>
<path id="Vector_11" d="M69.0656 50.1234C68.3281 50.1234 67.6568 49.9361 67.0328 49.5616C66.4088 49.1871 65.9171 48.6815 65.5484 48.0354C65.1796 47.3987 65 46.7059 65 45.9475V39.9271C65 39.1593 65.1796 38.4571 65.5484 37.8204C65.9171 37.1837 66.4088 36.6781 67.0328 36.2942C67.6568 35.9197 68.3376 35.7324 69.0656 35.7324H77.9344C78.6813 35.7324 79.3715 35.9197 79.9861 36.2942C80.6101 36.6687 81.1018 37.1743 81.4611 37.8204C81.8204 38.4571 82 39.1593 82 39.9271V45.9475C82 46.7059 81.8204 47.3987 81.4611 48.0354C81.1018 48.6721 80.6101 49.1777 79.9861 49.5616C79.3621 49.9361 78.6813 50.1234 77.9344 50.1234H69.0656ZM76.3932 45.2921C76.5823 45.2921 76.7525 45.2171 76.8943 45.0767C77.0362 44.9363 77.1023 44.749 77.1023 44.5337V41.266C77.1023 41.0506 77.0362 40.8634 76.8943 40.7135C76.7525 40.5637 76.5918 40.4888 76.3932 40.4888H70.6446C70.4461 40.4888 70.2853 40.5637 70.134 40.7135C69.9922 40.8634 69.9166 41.0506 69.9166 41.266V44.5337C69.9166 44.749 69.9922 44.9363 70.134 45.0767C70.2759 45.2171 70.4461 45.2921 70.6446 45.2921H76.3932Z" fill="#002B41"/>
</g>
</g>
</svg>
