<svg width="1920" height="956" viewBox="0 0 1920 956" fill="none" xmlns="http://www.w3.org/2000/svg">
<path d="M-13.215 112.164C-3.59223 106.349 6.11639 100.609 14.9946 93.6687C21.7665 88.3753 28.0832 82.6354 34.1961 76.5958C51.3607 59.6369 36.31 73.8518 51.7382 57.863C53.3496 56.1931 54.773 54.1851 56.8349 53.1206C57.5586 52.7469 58.8893 53.2787 59.0869 54.0691C59.7559 56.746 57.7405 69.4227 57.6646 70.9048C57.446 75.1675 56.6823 82.5356 61.6945 85.3694C67.3504 88.5672 81.8409 87.2551 86.5853 86.7921C96.0567 85.8678 116.025 82.2975 125.225 80.6269C126.589 80.3794 153.195 75.3284 156.517 74.6989C163.147 73.4423 164.662 73.1368 170.503 72.0905C171.221 71.9618 174.625 71.4095 175.481 71.142C178.166 70.3026 182.611 68.2235 184.726 67.1109C190.016 64.3282 195.903 60.839 200.609 57.1517C205.304 53.4728 207.934 50.4276 211.75 46.0069C213.162 44.3716 214.504 42.6767 215.899 41.0273C217.111 39.594 218.398 38.2228 219.573 36.759C222.079 33.6383 221.386 34.7994 222.181 32.0166C222.569 30.657 222.384 31.2445 224.551 31.0681C236.827 30.0686 231.741 30.8367 248.02 28.6968C263.205 26.7008 276.246 24.5542 291.401 22.2945C298.556 21.2276 309.654 19.5402 317.477 18.7376C318.379 18.6451 321.912 18.2402 323.403 18.7376C325.741 19.5172 321.996 19.33 325.3 19.9232C327.899 20.3899 333.644 20.0545 335.493 19.9232C354.904 18.5453 374.078 15.155 393.098 11.1497C395.949 10.5492 398.778 9.84503 401.632 9.25268C402.967 8.97539 404.299 8.60325 405.662 8.5413C406.861 8.48675 407.076 9.40845 407.558 10.2012C408.225 11.2973 408.79 12.588 410.166 13.0466C413.226 14.0671 421.201 14.0154 423.204 13.9951C434.135 13.8847 446.337 13.1552 457.103 12.0982C472.4 10.5961 477.882 9.48276 492.424 7.35567C493.731 7.16441 503.324 5.48395 506.41 5.93293C507.956 6.15781 509.176 7.96216 509.966 9.01554C510.877 10.2304 512.796 13.4795 514.233 14.2323C518.016 16.2142 525.79 16.155 529.119 16.1296L529.167 16.1293C544.099 16.0157 573.224 14.2227 585.586 13.2838C641.102 9.06719 626.551 9.38737 683.016 3.79882C696.498 2.46449 732.031 -2.15117 748.68 1.19046C761.631 3.78975 758.57 7.59529 763.378 16.1293C768.486 25.1976 769.983 24.2818 782.342 24.6657C790.326 24.9137 798.302 23.9912 806.285 23.7172C814.422 23.4379 822.562 22.7928 830.702 23.0058C843.978 23.3533 845.813 23.4887 855.829 28.9339C865.697 34.2985 862.018 34.7652 874.794 37.2333C885.271 39.2573 900.529 39.4222 910.826 39.6045C923.547 39.8297 935.383 39.5184 948.044 40.0788C950.043 40.1672 959.267 40.3913 962.504 42.2129C963.506 42.7767 964.162 45.6455 964.401 46.4811C965.131 49.0386 964.97 49.0766 966.06 51.4607C966.339 52.0717 966.69 52.6476 967.008 53.2392C967.243 53.6752 967.414 54.1539 967.719 54.5433C969.234 56.4713 972.872 59.4811 974.357 60.4714C982.886 66.1588 991.462 70.3438 1001.14 73.9875C1014.61 79.0537 1024.81 81.3902 1038.58 84.5459L1039.07 84.658C1041.87 85.2991 1055.05 87.6447 1059.22 89.6376C1062.19 91.0561 1062.84 93.1427 1063.71 95.9951L1063.73 96.04C1064.32 97.9556 1064.59 101.971 1066.57 103.391C1070.06 105.892 1078.43 105.632 1081.51 105.762C1097.75 106.449 1099.02 105.837 1116.35 107.659C1129.41 109.032 1141.28 110.975 1154.04 113.824C1161.64 115.519 1170.18 118.108 1177.75 120.227C1184.86 122.215 1190.22 123.68 1197.43 125.443C1203.53 126.936 1214.29 129.452 1220.42 130.423C1231.43 132.168 1241.96 132.866 1253.13 133.506C1264.22 134.14 1281.14 134.7 1292.49 135.165C1296 135.31 1299.52 135.409 1303.03 135.64C1304.34 135.726 1305.71 135.677 1306.95 136.114C1307.22 136.212 1307.14 136.674 1307.08 136.99L1307.06 137.062C1306.96 137.64 1306.69 138.179 1306.47 138.722C1305.35 141.457 1304.37 143.034 1303.63 146.073C1303.05 148.443 1302.12 153.774 1303.39 156.269C1305.15 159.738 1309.7 159.975 1312.87 159.826C1318.29 159.572 1327.16 157.226 1332.07 155.558C1338.85 153.257 1343.53 150.839 1349.85 147.733C1351.79 146.782 1356.72 144.041 1359.33 143.465C1361.26 143.041 1361.57 143.634 1362.89 144.65C1365.06 146.316 1366.16 147.562 1369.29 147.97C1376.9 148.963 1387.08 147.296 1393.94 145.362C1410.37 140.733 1427.42 132.99 1442.3 124.969C1457.83 116.599 1492.25 90.8939 1506.55 80.3898C1508.9 78.6533 1509.76 79.1751 1512 80.8641C1516.01 83.8888 1516.07 85.5247 1520.77 87.9778C1525.06 90.2166 1529.5 90.7607 1534.28 90.8233C1540.83 90.9089 1553.29 89.6705 1559.17 88.9263C1570.16 87.5361 1580.97 85.5604 1591.89 83.7096C1594.4 83.283 1607.27 81.0197 1611.32 80.6269L1611.47 80.6132C1612.15 80.5462 1612.9 80.4735 1613.64 80.4913C1596.93 65.1203 1605.79 72.9069 1614.56 80.5685C1615.37 80.6929 1616.14 80.9829 1616.78 81.5754C1631.37 95.2041 1623.01 87.9442 1614.56 80.5685C1614.26 80.5221 1613.95 80.4987 1613.64 80.4913C1615.76 82.4405 1618.29 84.7621 1621.28 87.5035C1632.67 97.9349 1649.47 98.0904 1663.95 97.4627C1673.27 97.059 1687.06 95.2084 1696.43 93.9059C1699.67 93.4549 1709.91 91.8155 1714.21 91.2975L1714.26 91.291C1714.71 91.2301 1717.91 90.7986 1718.71 91.2975C1719.06 91.519 1719.57 93.5557 1719.65 93.8663L1719.66 93.9059C1720.96 96.3744 1723.09 98.556 1725.58 99.834C1733.01 103.644 1742.84 105.61 1750.71 106.948C1764.6 109.308 1777.74 110.235 1791.72 111.69C1795.45 112.078 1809.97 113.19 1815.19 115.247C1821.29 117.651 1819.18 125.549 1819.46 130.423C1819.58 132.54 1819.84 135.546 1821.36 137.3C1823.23 139.46 1826.85 140.553 1829.42 141.094C1832.49 141.743 1837.38 141.972 1840.56 142.042C1844.82 142.136 1849.09 142.042 1853.36 142.042H1872.56C1875.48 142.042 1878.41 141.854 1881.33 142.042C1883.39 142.175 1883.34 144.277 1883.46 145.836C1883.51 146.476 1883.53 147.838 1883.94 148.444C1884.6 149.441 1885.96 149.871 1887.02 150.104C1888.87 150.51 1890.83 150.487 1892.71 150.578C1893.35 150.61 1895.06 150.545 1895.79 151.053C1896.05 151.23 1896.65 152.536 1896.74 152.713C1897.32 153.88 1897.93 155.047 1898.4 156.269C1899.78 159.894 1898.98 158.29 1900.06 161.96C1900.37 163.042 1900.67 164.571 1901.95 165.043C1903.24 165.516 1906.92 165.157 1907.88 165.043C1910.67 164.715 1914.4 163.957 1917.13 163.383C1917.61 163.282 1923.77 161.891 1924.71 161.723L1924.77 161.712C1925.19 161.633 1927.27 161.24 1927.79 161.723C1928.28 162.174 1928.26 164.668 1928.27 164.806C1928.31 166.702 1928.04 168.614 1928.27 170.497C1928.48 172.242 1928.83 173.074 1930.64 173.579C1931.98 173.953 1936.85 174.054 1937.99 174.054C1940.73 174.054 1943.1 173.913 1945.81 173.579C1952.77 172.722 1946.64 173.232 1953.87 172.394C1956.75 172.06 1958.6 171.972 1961.45 171.92C1963.19 171.887 1964.94 171.728 1966.67 171.92C1968.13 172.081 1969.23 172.422 1969.99 173.817C1971.23 176.09 1970.45 178.697 1971.17 181.049C1971.58 182.356 1972.29 182.332 1973.54 182.472C1975.06 182.64 1978.07 182.59 1979.47 182.59C1980.87 182.59 1983.88 182.54 1985.4 182.709L1985.47 182.716C1986.66 182.849 1987.14 182.902 1987.89 183.776C1988.7 184.726 1988.23 184.913 1989.43 185.673C1990.68 186.468 1992.01 186.602 1993.46 186.74C1996.59 187.038 1999.8 186.858 2002.94 186.858H2007.09C2008.01 186.858 2009.37 186.761 2010.29 187.096C2011.51 187.539 2011.97 188.351 2012.78 189.348C2014.09 190.963 2015.38 192.593 2016.69 194.209C2017.73 195.499 2018.94 196.82 2019.65 198.359C2020.11 199.355 2020.01 199.817 2020.01 200.849C2020.01 204.299 2020.18 207.747 2019.53 211.164C2017.76 220.487 2013.5 229.113 2010.88 238.196C2010.3 240.198 2009.58 242.854 2009.58 245.072C2009.58 246.547 2009.86 246.687 2010.53 247.918C2011.97 250.603 2013.39 253.396 2014.56 256.217C2015.7 258.99 2015.74 261.802 2015.74 264.754C2015.74 267.677 2015.6 270.378 2014.67 273.171C2014.14 274.768 2013.96 274.831 2013.73 276.491C2013.56 277.617 2013.61 278.799 2013.61 279.93V280.309C2013.61 284.648 2013.6 289.181 2015.03 293.327C2016.03 296.244 2016.99 297.696 2019.3 299.729C2021.89 302.015 2023.21 302.188 2025.93 304.235L2026.13 304.379C2027.56 305.447 2028.89 306.449 2029.02 308.384C2029.1 309.707 2028.23 310.588 2027.59 311.586C2026.79 312.848 2026.09 314.311 2026.53 315.854C2026.88 317.079 2028.18 317.122 2028.42 318.462C2028.6 319.408 2028.54 321.547 2028.54 322.375V326.406C2028.54 327.946 2028.62 329.851 2030.79 329.488C2032 329.287 2032.65 328.714 2033.5 327.954L2033.64 327.828C2033.66 327.806 2034.45 326.627 2034.94 326.999C2035.29 327.259 2035.95 328.871 2036.01 329.014C2036.62 330.61 2036.77 331.274 2036.96 333.045C2037.3 336.319 2037.08 339.721 2037.08 343.004V363.99C2037.08 368.221 2035.95 372.205 2034.59 376.202C2032.85 381.317 2032.01 383.042 2029.85 387.939C2028.68 390.57 2027.51 392.785 2026.76 395.527C2026.41 396.82 2026.29 397.808 2026.53 399.084C2026.73 400.226 2027.14 400.698 2027.59 401.811C2028.63 404.325 2028.74 404.935 2029.61 407.739C2030.27 409.876 2031.02 411.987 2031.62 414.142C2032.82 418.404 2032.81 422.761 2032.81 427.147L2032.81 427.895V442.952C2032.81 447.605 2032.68 452.177 2033.88 456.705C2034.44 458.867 2034.77 459.149 2034.59 461.566C2034.37 464.516 2033.57 466.953 2032.57 469.747C2030.57 475.316 2027.52 480.541 2026.65 486.464C2026.06 490.388 2026.57 494.515 2027.59 498.321C2028.61 502.094 2030.61 505.455 2031.62 509.228C2032.57 512.739 2032.99 516.368 2033.88 519.899C2034.84 523.742 2035.25 527.684 2034.7 531.636C2034.06 536.303 2031.83 540.452 2030.91 545.034C2030.54 546.9 2030.68 548.835 2030.68 550.725C2030.68 552.793 2030.62 554.832 2030.91 556.89C2031.43 560.487 2032.08 563.376 2033.05 566.968C2034.28 571.572 2035.89 575.759 2036.72 580.484C2038.94 593.086 2037.7 605.972 2037.19 618.661C2036.97 624.153 2037.25 629.652 2036.96 635.141C2036.66 640.724 2035.52 646.181 2035.06 651.74C2034.81 654.78 2035.1 657.831 2034.82 660.869C2034.32 666.459 2032.26 671.656 2030.68 676.993C2029.22 681.892 2028.52 684.427 2027.71 689.561C2026.93 694.523 2026.72 697.975 2026.53 702.958C2026.28 709.452 2026.28 716.012 2027.59 722.403C2028.56 727.099 2030.23 731.581 2031.62 736.156C2032.55 739.215 2033.08 742.085 2032.57 745.285C2031.79 750.163 2029.56 754.634 2028.78 759.512C2028.42 761.782 2028.54 764.101 2028.54 766.389V781.209V794.37V807.886V814.525C2028.54 817.213 2028.66 820.04 2028.19 822.706C2027.59 826.078 2026.91 827.448 2024.99 830.294C2023.58 832.376 2020.85 835.52 2019.18 837.408L2018.81 837.829C2017.02 839.847 2016.95 839.932 2015.03 841.676C2014.28 842.355 2013.94 842.37 2013.73 843.336C2013.32 845.159 2014.09 844.507 2013.01 846.655C2011.63 849.433 2009.77 851.026 2007.33 853.058C2002.98 856.661 1998.63 859.497 1993.69 862.306C1983.68 868.01 1973.17 872.147 1961.93 874.755C1956.87 875.928 1947.05 877.437 1941.54 877.837L1941.47 877.842C1939.7 877.971 1934.98 878.314 1933.01 876.889C1931.87 876.068 1931.15 873.051 1930.88 871.934L1930.87 871.909C1930.52 870.446 1930.17 867.385 1929.45 865.981C1926.18 859.578 1917.22 862.304 1912.15 864.084C1905.33 866.479 1895.6 871.38 1889.39 874.517C1882.17 878.165 1873.28 883.003 1865.92 886.611L1865.87 886.634C1864.56 887.277 1855.94 891.51 1853.36 891.827C1850.81 892.141 1849.36 890.206 1848.05 888.459L1847.91 888.271C1843 881.767 1846.41 884.747 1840.79 878.074C1838.78 875.676 1835.27 872.109 1832.26 870.724C1823.37 866.629 1813.66 873.09 1807.13 878.549C1802.32 882.574 1797.32 888.326 1793.15 893.013C1791.3 895.092 1786.95 900.246 1784.61 902.498C1783.14 903.908 1781.65 905.086 1779.63 905.581C1778.08 905.962 1776.47 906.066 1774.89 906.292C1772.05 906.698 1769.2 907.043 1766.36 907.478C1758.07 908.745 1752 909.779 1743.84 911.509C1743.58 911.563 1734.96 913.572 1733.17 914.117C1730.32 914.987 1726.85 916.5 1724.4 917.911C1717.6 921.819 1710.13 927.288 1704.01 931.901C1695.48 938.331 1684.07 927.518 1675.8 934.185C1674.28 935.417 1657.17 949.379 1653.99 951.732C1651.7 953.429 1648.47 956 1645.22 956C1644.25 956 1638.63 954.053 1638.11 953.866C1635.24 952.826 1632.47 951.512 1629.58 950.546C1626.07 949.377 1623.34 948.788 1619.62 948.412C1615.91 948.037 1609.75 947.967 1606.11 947.938C1601.13 947.897 1596.15 947.938 1591.17 947.938C1586.35 947.938 1581.53 948.103 1576.71 947.938C1571.89 947.773 1568.07 947.487 1563.44 946.041C1556.53 943.886 1557.38 943.048 1550.64 940.35C1544.81 938.02 1540.95 937.108 1534.52 937.03C1527.94 936.95 1519.37 938.274 1512.95 939.401C1512.62 939.459 1497.55 942.566 1496.12 942.721C1484.16 944.017 1472.99 938.29 1462.45 933.473C1452.58 928.963 1442.76 942.892 1431.87 941.149C1426.87 940.348 1418.68 940.254 1413.86 940.201C1413.59 940.198 1390.5 940.204 1390.39 940.201C1383.23 940.013 1377.14 939.768 1370.24 937.83C1365.33 936.451 1359.92 933.568 1355.3 931.427C1350.45 929.177 1348.57 928.35 1343.69 926.448C1340.25 925.108 1335.18 923.158 1331.6 922.417C1321.14 920.251 1310.45 921.812 1300.07 923.602C1288.31 925.63 1276.52 928.582 1264.51 928.582C1254.99 928.582 1246.11 925.529 1237.01 923.128C1231.61 921.701 1227.16 920.566 1221.61 919.808C1216.52 919.114 1212.38 919.01 1207.39 918.884L1206.43 918.86C1201.04 918.721 1199.17 918.853 1193.87 918.385C1190.01 918.044 1185.36 917.332 1181.54 916.725C1172.85 915.343 1164.19 913.703 1155.47 912.457C1150.42 911.736 1145.14 911.101 1140.06 910.797C1133.26 910.392 1124.69 910.353 1118.01 910.323C1108.61 910.281 1099.21 910.367 1089.8 910.323L1089.56 910.322C1084.91 910.3 1074.36 910.252 1069.42 909.849C1064.74 909.467 1060.15 908.652 1055.67 907.241C1052.23 906.158 1047.08 903.856 1043.81 902.261L1043.55 902.134C1038.75 899.788 1033.65 897.296 1030.54 892.776C1027.9 888.937 1026.17 883.913 1021.53 881.868C1018.65 880.599 1014.76 880.763 1011.81 880.92C1008.42 881.1 998.876 882.208 995.692 882.58C990.875 883.142 985.839 883.839 980.995 884.24C978.822 884.419 971.992 884.798 969.616 884.714C965.87 884.581 963.454 884.118 959.897 882.817C958.414 882.275 947.848 877.523 946.859 877.126C936.978 873.156 926.684 870.841 916.042 870.249C909.922 869.909 903.886 870.133 897.788 870.724C894.774 871.015 891.779 871.487 888.78 871.909C886.169 872.277 883.587 872.889 880.957 873.095C873.304 873.693 872.722 872.882 864.838 871.198C846.984 867.383 844.731 866.444 823.827 865.032C800.56 863.462 784.126 864.084 761.007 864.084C750.86 864.084 741.31 864.58 731.375 862.898C729.551 862.589 727.83 861.834 726.042 861.357C724.273 860.885 722.51 860.375 720.708 860.053C716.426 859.286 712.002 859.137 707.67 859.104C694.675 859.008 681.709 859.887 668.793 861.239C658.744 862.29 648.582 863.828 638.45 862.898C634.138 862.503 630.46 861.657 626.36 860.29C621.753 858.754 619.518 857.426 614.981 855.785C611.268 854.441 607.046 853.212 603.129 852.702C597.28 851.941 590.177 851.915 584.401 852.465C575.952 853.27 568.684 854.945 560.459 856.97C551.637 859.143 547.684 860.633 538.887 862.424C527.087 864.826 515.105 865.507 503.091 865.507C498.45 865.507 493.736 865.369 489.105 865.032C484.91 864.727 480.736 864.161 476.541 863.847C473.004 863.582 467.551 863.335 463.977 863.373C461.26 863.401 457.668 863.516 454.969 864.321C451.306 865.414 448.56 868.386 445.013 869.775C439.816 871.809 434.59 871.843 429.13 870.961C427.293 870.664 416.553 868.377 415.144 868.115C409.65 867.093 405.508 866.467 399.972 865.981C393.641 865.426 387.342 865.688 381.008 865.507C370.024 865.193 359.253 862.409 348.531 860.29C331.979 857.02 315.396 853.62 298.513 852.702C297.863 852.667 293.982 852.738 292.823 852.228C292.019 851.874 291.25 850.178 290.927 849.619L290.596 849.047C289.154 846.554 288.605 845.605 286.66 842.743C285.165 840.544 281.402 835.199 279.548 833.258C277.06 830.653 274.749 828.991 271.251 828.041C268.549 827.307 263.035 827.15 260.347 827.093C256.95 827.02 253.551 827.093 250.153 827.093C248.02 827.093 245.875 827.31 243.753 827.093C242.207 826.934 241.169 826.492 240.197 825.196C238.758 823.276 236.723 818.453 235.93 816.659C233.485 811.13 231.86 806.931 229.055 801.483C226.877 797.251 223.356 791.064 220.284 787.256C218.177 784.643 215.659 782.29 212.462 781.091C210.94 780.52 206.489 780.091 204.876 780.142C201.894 780.237 200.232 780.753 197.527 782.039C196.297 782.624 195.19 783.445 193.971 784.055C191.578 785.252 190.508 786.281 188.282 784.055C186.865 782.637 182.33 774.633 181.763 773.74C179.307 769.869 176.937 766.392 173.94 762.951C172.503 761.301 171.317 759.957 169.318 759.157C167.879 758.581 166.974 758.735 165.525 759.394C162.868 760.602 160.69 762.517 158.294 764.136C155.607 765.953 152.637 768.62 148.931 767.693C144.499 766.585 141.733 761.72 139.686 758.327C136.65 753.295 135.608 750.235 133.404 745.048C132.333 742.529 132.373 740.812 129.492 740.068C126.632 739.33 114.756 739.485 114.202 739.475C89.5185 739.026 106.872 739.196 79.7107 738.646C73.1909 738.513 60.5334 737.996 53.1605 739.001C47.9949 739.706 48.216 740.353 44.3895 742.677C42.2695 743.964 40.4726 745.285 37.8704 745.285C35.012 745.285 32.4007 743.641 30.0476 742.321C27.3656 740.816 21.1703 736.888 18.669 735.444C11.7439 731.448 3.90837 727.264 -4.32539 727.264C-7.40995 727.264 -9.28902 727.725 -11.9112 729.279C-14.3433 730.721 -15.3517 732.023 -17.2449 734.022C-18.2778 735.112 -19.2578 736.447 -20.6822 737.104C-21.7645 737.604 -22.8659 737.483 -24.001 737.341C-25.919 737.102 -26.7304 736.752 -28.7421 736.393C-32.9956 735.633 -33.278 735.809 -37.9872 735.207C-42.1968 734.67 -45.3474 734.523 -49.1288 732.362C-53.1972 730.036 -55.1948 727.091 -57.8999 723.351C-79.2109 693.883 -45.8711 739.224 -65.3671 712.325C-67.9355 708.781 -69.0776 707.607 -71.8861 704.381C-77.119 698.371 -81.78 692.131 -85.5168 685.055C-89.0738 678.321 -92.8994 669.887 -89.4282 662.292C-88.0666 659.312 -86.6122 658.025 -83.6204 656.956C-81.9828 656.371 -78.7607 656.799 -78.7607 655.059C-78.7607 653.658 -79.7108 652.418 -80.3016 651.147C-81.8063 647.909 -83.7118 644.856 -85.0427 641.543C-90.7176 627.418 -92.434 619.948 -94.1693 604.078C-95.9896 587.431 -95.477 572.53 -95.2361 555.823C-94.9933 538.986 -94.6054 522.151 -94.2878 505.316C-93.7771 478.238 -93.1108 451.163 -92.0358 424.101C-91.0481 399.237 -89.3583 374.4 -85.7539 349.762C-83.6033 335.063 -80.0257 320.659 -76.9828 306.132C-72.8023 286.174 -68.3982 266.166 -65.9597 245.902L-65.9403 245.741C-65.32 240.587 -64.3124 232.216 -65.13 226.695C-65.8533 221.812 -66.7005 220.624 -71.6491 219.581C-76.5644 218.546 -87.8858 218.87 -92.1543 218.87H-112.541C-114.042 218.87 -115.547 218.968 -117.045 218.87C-117.382 218.848 -117.938 218.848 -117.993 218.514C-118.064 218.093 -117.559 217.773 -117.282 217.447C-116.648 216.703 -115.942 216.022 -115.267 215.313C-111.766 211.636 -113.149 213.054 -109.222 209.267C-106.94 207.065 -105.14 205.545 -103.296 202.983C-101.893 201.034 -101.342 199.822 -100.925 197.529C-100.602 195.753 -100.688 193.864 -100.688 192.075L-100.688 191.821C-100.689 187.953 -100.689 184.186 -99.5031 180.456C-98.1426 176.179 -96.2911 171.896 -94.2878 167.888C-93.2556 165.823 -92.4621 164.351 -91.0876 162.553C-90.4293 161.692 -88.5287 159.703 -87.8874 158.878C-86.5209 157.12 -85.8027 155.949 -84.9242 153.898C-84.3138 152.474 -84.043 150.914 -83.3833 149.511C-82.4674 147.565 -81.452 146.525 -79.946 144.887C-78.0158 142.789 -75.2608 140.053 -73.1899 138.129C-71.3701 136.439 -69.8565 134.927 -67.6191 133.861C-66.2078 133.189 -63.3012 132.613 -61.9298 132.201C-56.6979 130.631 -51.7745 128.333 -46.4027 127.222C-42.7567 126.467 -43.453 126.843 -39.8837 125.918C-37.6364 125.335 -35.9279 124.693 -33.7202 124.021C-32.255 123.575 -31.0669 123.217 -29.5936 122.964C-29.4571 122.941 -28.7262 122.763 -28.4437 122.964C-28.4174 122.983 -28.397 123.008 -28.3817 123.038C-28.0662 122.468 -27.5939 121.913 -27.2084 121.46L-27.1894 121.438C-25.7219 119.713 -24.1858 117.932 -22.5311 116.38C-21.5149 115.427 -20.3538 115.292 -19.0019 115.005C-18.5755 114.914 -18.0432 114.894 -17.6546 114.688C-17.4287 114.569 -17.2282 114.483 -17.06 114.285C-16.7029 113.862 -13.7884 112.164 -13.215 112.164Z" fill="white"/>
</svg>
