<svg width="1920" height="900" viewBox="0 0 1920 900" fill="none" xmlns="http://www.w3.org/2000/svg">
<path d="M-175.353 138.581C-168.343 130.973 -153.672 127.69 -144.663 124.233C-132.55 119.584 -123.183 116.297 -111.417 110.909C-105.19 108.058 -94.91 99.7188 -87.7604 98.3544C-85.7473 97.9702 -82.3915 111.078 -80.9831 112.703C-68.3843 127.238 -39.8804 114.693 -26.2539 108.86C-14.9792 104.033 -3.49551 93.9769 8.27155 90.6677C12.2966 89.5357 16.6356 90.4885 20.803 90.1553C50.1688 87.8071 78.2238 80.0221 106.094 70.6823C128.775 63.0811 147.481 55.5707 169.007 45.9567C177.169 42.3114 187.362 30.0343 193.942 36.0921C203.345 44.7488 202.66 50.8076 218.365 50.1844C255.667 48.7043 294.265 43.7799 331.532 39.6793C371.06 35.3299 410.789 22.4973 450.197 19.9501C459.357 19.358 457.468 28.8327 463.752 32.505C476.396 39.8949 498.839 35.0391 511.832 32.7612C523.498 30.7157 532.531 28.1675 543.544 24.3059C547.233 23.0123 556.199 17.2812 560.935 19.4376C562.072 19.9555 566.279 24.1659 566.817 24.5621C575.524 30.9767 587.354 31.9561 597.762 32.2488C629.613 33.1445 660.972 26.6871 692.387 22.6404C701.149 21.5117 702.487 23.4752 709.905 26.8681C741.095 41.1335 788.34 26.8039 819.748 21.4874C822.885 20.9563 882.524 4.62403 887.008 10.3417C892.495 17.3384 891.853 26.1612 902.609 27.893C919.765 30.6554 937.854 23.6173 953.52 17.5224L954.525 17.1316C963.382 13.6881 994.568 -6.72713 1004.27 2.27065C1018.7 15.6628 1025.26 24.565 1047.36 26.6119C1078.2 29.4685 1108.74 21.4088 1139.3 19.0533L1139.82 19.0128C1145.51 18.5725 1151.24 18.1289 1156.69 19.9501C1174.54 25.9111 1198.09 20.5247 1215.9 17.6441C1234.18 14.686 1254.37 5.20488 1271.52 15.9786C1289.78 27.4507 1301.73 37.0285 1324.33 39.423C1364.11 43.6381 1404.72 39.7892 1443.51 30.4552C1446.39 29.7613 1498.54 9.48672 1500.79 14.185C1506.4 25.893 1513.07 39.5363 1527.14 42.4977C1547.09 46.6986 1569.31 34.9619 1587.49 28.5335C1595.87 25.5695 1603.08 21.9022 1611.02 27.1243C1624.62 36.0634 1636.47 41.1942 1652.96 44.0351C1683.07 49.2215 1714.5 50.6717 1744.52 44.2913C1751.59 42.7879 1753.76 40.7074 1759.1 45.0599C1784.51 65.7877 1824.06 56.3299 1850.65 43.5226C1858.19 39.8909 1857.88 39.0054 1863.18 45.0599C1871.43 54.4763 1878.8 55.3567 1891.32 53.7715C1905.3 52.0004 1917.86 47.4399 1930.83 42.2415C1941.25 38.0635 1943.49 44.7655 1951.16 51.4655C1966.32 64.7022 1983.91 74.5295 2002.18 82.7248L2003.04 83.111C2013.37 87.7332 2020.97 91.138 2022.77 103.479C2025.82 124.405 2024.98 146.203 2025.07 167.278C2025.11 175.889 2023.37 187.163 2025.45 195.847C2049.34 295.551 2035.34 403.516 2070.98 500.625C2073.62 507.832 2072.7 507.22 2070.21 516.255C2059.69 554.454 2049.36 592.496 2043.74 631.811C2039.28 663.008 2052.12 682.866 2056.53 713.547C2062.92 758.047 2066.56 802.897 2068.29 847.808C2068.58 855.232 2066.68 869.285 2067.43 877.919C2069.74 876.488 2071.84 874.982 2073.28 874.07C2078.28 870.902 2088.9 856.903 2086.7 862.412C2083.99 869.2 2080.35 880.504 2073.79 884.448C2069.58 886.979 2067.92 883.637 2067.43 877.919C2063.75 880.199 2059.52 882.291 2056.53 881.501C2051.75 880.242 2051.11 873.183 2045.53 871.893C2025.51 867.265 2002.42 871.286 1982.1 871.765C1973.82 871.96 1962.81 873.625 1955.51 868.562C1947.89 863.276 1941.1 857.063 1931.47 855.494C1902.79 850.826 1871.57 870.658 1849.12 885.857C1842.43 890.384 1830.13 906.004 1821.5 897.515C1812.69 888.854 1808.05 878.225 1796.43 872.405C1770.66 859.496 1740.25 871.808 1714.85 859.338C1708.15 856.049 1702.55 850.454 1694.9 849.345C1684.51 847.837 1673.47 850.547 1663.06 851.01C1656.06 851.322 1651.1 850.432 1644.78 847.423C1629.08 839.951 1612.34 839.071 1595.16 841.146C1570.04 844.18 1545.97 853.221 1521.64 859.722C1512.79 862.086 1506.52 863.289 1498.49 858.569C1473.71 843.997 1447.59 858.994 1422.02 866.64C1406.17 871.382 1397.17 864.967 1383.92 856.519C1365.18 844.571 1349.49 836.626 1326.89 840.249C1300.99 844.401 1258.21 866.033 1233.29 851.139C1223.61 845.356 1215.21 842.681 1203.75 842.171C1168.18 840.587 1132.31 841.998 1096.72 841.914C1071.3 841.855 1044.13 843.898 1018.97 839.096C1010.01 837.385 1005.24 834.674 995.955 836.534C959.226 843.893 908.555 866.96 872.814 848.32C861.655 842.5 851.193 835.095 838.801 832.05C824.405 828.512 808.47 831.62 793.917 832.178C772.182 833.012 749.987 833.58 728.319 831.281C709.859 829.323 692.702 825.5 673.973 826.797C650.161 828.446 626.545 831.433 602.749 832.947C585.223 834.061 569.021 839.107 551.984 842.683C540.723 845.047 530.527 834.475 521.55 829.103C510.417 822.442 497.448 813.785 484.083 812.961C468.372 811.993 452.215 820.271 436.899 822.954C421 825.739 411.033 821.158 396.107 817.061C372.62 810.614 354.518 825.536 334.601 835.765C323.226 841.607 304.476 853.239 290.613 849.601C282.037 847.351 277.417 837.496 268.491 835.509C255.427 832.6 240.455 837.511 227.444 838.584C210.574 839.974 199.453 835.404 185.119 827.31C151.671 808.422 112.161 844.119 78.6011 849.601C63.8206 852.016 57.6666 847.074 46.761 838.968C39.1691 833.325 28.6554 834.749 19.8244 835.946L19.2685 836.021C6.7189 837.718 -5.7966 841.244 -18.5816 840.377C-31.0031 839.535 -41.0674 831.851 -52.2119 827.182C-62.1459 823.02 -70.4102 820.931 -80.7274 824.491C-92.8851 828.687 -102.596 832.455 -113.591 823.21C-137.677 802.957 -149.799 759.486 -183.537 752.493C-191.035 750.938 -196.149 752.04 -202.206 745.831C-219.808 727.786 -227.401 698.74 -236.987 676.138C-244.819 657.671 -253.233 639.491 -261.655 621.294L-263.073 618.232C-266.421 610.996 -269.722 604.838 -269.722 596.837C-269.722 556.429 -277.312 524.665 -296.064 488.839C-302.983 475.619 -310.057 461.81 -307.445 446.434C-302.092 414.926 -285.842 383.363 -275.349 353.297C-266.461 327.833 -257.809 305.663 -241.974 283.732C-229.888 266.993 -219.955 251.308 -214.993 231.078C-210.833 214.12 -212.18 196.384 -212.18 179.065C-212.18 172.363 -214.89 160.807 -208.727 156.005C-204.712 152.875 -197.334 157.15 -194.278 152.418C-191.639 148.332 -180.262 140.221 -175.353 138.581Z" fill="white"/>
</svg>
