<svg width="217" height="625" viewBox="0 0 217 625" fill="none" xmlns="http://www.w3.org/2000/svg">
<path d="M101.913 311.264L102.301 311.392L120.751 384.185L132.533 427.441L162.195 529.68L179.519 587.751L184.504 604.363C185.211 606.731 185.735 609.33 186.643 611.608L159.476 617.091L101.913 311.264Z" fill="#002B41"/>
<path d="M109.632 390.322L100.647 312.501L100.873 312.602L101.361 314.917L157.651 617.456L129.459 623.165L109.632 390.322Z" fill="#002B41"/>
<path d="M50.462 5.53552L60.9967 12.8073C72.168 21.3241 82.0802 31.4672 90.9476 42.5265C109.988 66.2743 124.346 94.9337 136.377 123.084C162 183.036 178.901 246.397 191.924 310.498L204.442 377.763L212.562 443.004C216.401 483.851 217.986 524.987 214.652 565.946C214.135 572.312 213.609 578.654 212.608 584.962C211.766 590.266 210.555 596.041 207.508 600.485C202.546 607.722 194.552 609.927 186.643 611.608C185.735 609.33 185.211 606.731 184.504 604.363L179.519 587.751L162.195 529.68L132.533 427.441L120.751 384.185L50.462 5.53552Z" fill="url(#paint0_linear_0_176)"/>
<path d="M37.8355 7.70789C38.9695 5.41679 40.8843 1.59531 42.9143 0.110575C45.6196 1.50441 48.2245 3.38511 50.4592 5.49987L50.462 5.53552L120.751 384.185L102.301 311.392L101.913 311.264L101.06 311.213C101.286 312.429 101.639 313.689 101.361 314.917L100.873 312.602L100.647 312.501L109.632 390.322L129.459 623.165L120.587 624.753C114.626 625.37 108.072 624.037 103.376 619.955C99.7678 616.818 96.9347 612.258 94.4419 608.159C88.5458 598.462 83.7885 588.02 79.2204 577.585C65.0467 545.202 54.3722 511.386 44.933 477.208C24.0722 401.671 10.407 323.921 3.50355 245.647L0.515287 180.56C0.278042 160.062 0.819739 139.946 2.50621 119.51C4.06678 100.606 6.56962 81.4204 11.4976 63.1155C16.851 43.2285 25.0957 23.6899 37.8355 7.70789Z" fill="url(#paint1_linear_0_176)"/>
<path d="M37.8355 7.70789C38.9695 5.41679 40.8843 1.59531 42.9143 0.110575C45.6196 1.50441 48.2245 3.38511 50.4592 5.49987L50.462 5.53552L120.751 384.185L102.301 311.392L101.913 311.264L101.06 311.213C101.286 312.429 101.639 313.689 101.361 314.917L100.873 312.602L100.647 312.501L109.632 390.322L37.8355 7.70789Z" fill="white"/>
<defs>
<linearGradient id="paint0_linear_0_176" x1="24.3445" y1="324.65" x2="188.855" y2="294.018" gradientUnits="userSpaceOnUse">
<stop stop-color="#FF372A"/>
<stop offset="1" stop-color="#FF1514"/>
</linearGradient>
<linearGradient id="paint1_linear_0_176" x1="24.3445" y1="324.65" x2="188.855" y2="294.018" gradientUnits="userSpaceOnUse">
<stop stop-color="#FF372A"/>
<stop offset="1" stop-color="#FF1514"/>
</linearGradient>
</defs>
</svg>
