<svg width="218" height="626" viewBox="0 0 218 626" fill="none" xmlns="http://www.w3.org/2000/svg">
<path d="M117.171 312.456L117.484 312.727L108.474 387.436L103.878 432.151L94.6969 538.548L89.9245 599.167L88.5865 616.519C88.3918 618.991 87.9458 621.606 87.9703 624.073L60.8143 618.528L117.171 312.456Z" fill="#002B41"/>
<path d="M95.9624 388.776L115.553 313.108L115.727 313.29L115.348 315.627L58.9916 618.152L30.8048 612.416L95.9624 388.776Z" fill="#002B41"/>
<path d="M179.159 8.867L186.317 19.7306C193.619 31.9976 199.17 45.2799 203.424 59.0029C212.557 88.4703 215.586 120.66 216.641 151.466C218.887 217.076 211.824 282.434 200.9 346.961L188.374 414.224L172.494 477.89C161.398 517.264 148.108 556.024 130.322 592.696C127.558 598.395 124.795 604.07 121.604 609.527C118.92 614.115 115.726 618.995 111.306 621.924C104.109 626.692 95.906 625.609 87.9703 624.073C87.9458 621.606 88.3918 618.991 88.5865 616.519L89.9245 599.167L94.6969 538.548L103.878 432.151L108.474 387.436L179.159 8.867Z" fill="url(#paint0_linear_0_177)"/>
<path d="M166.672 5.94126C168.546 4.26068 171.692 1.46668 174.107 0.884305C176.115 3.235 177.856 5.99784 179.169 8.83286L179.159 8.867L108.474 387.436L117.484 312.727L117.171 312.456L116.398 312.075C116.171 313.291 116.047 314.598 115.348 315.627L115.727 313.29L115.553 313.108L95.9624 388.776L30.8048 612.416L22.0091 610.418C16.2604 608.657 10.6627 604.858 7.77294 599.236C5.5532 594.916 4.56248 589.579 3.72185 584.804C1.73445 573.506 1.07032 561.963 0.578903 550.501C-0.943945 514.931 1.29167 479.403 4.80276 444.021C12.5629 365.825 27.7887 288.392 49.4719 213.118L70.0533 151.603C77.1879 132.505 84.9075 114.066 93.8034 95.778C102.033 78.8613 111.237 62.0526 122.373 47.0089C134.472 30.6648 149.126 15.775 166.672 5.94126Z" fill="url(#paint1_linear_0_177)"/>
<path d="M166.672 5.94126C168.546 4.26068 171.692 1.46668 174.107 0.884305C176.115 3.235 177.856 5.99784 179.169 8.83286L179.159 8.867L108.474 387.436L117.484 312.727L117.171 312.456L116.398 312.075C116.171 313.291 116.047 314.598 115.348 315.627L115.727 313.29L115.553 313.108L95.9624 388.776L166.672 5.94126Z" fill="white"/>
<defs>
<linearGradient id="paint0_linear_0_177" x1="40.4495" y1="294.52" x2="204.961" y2="325.143" gradientUnits="userSpaceOnUse">
<stop stop-color="#FF372A"/>
<stop offset="1" stop-color="#FF1514"/>
</linearGradient>
<linearGradient id="paint1_linear_0_177" x1="40.4495" y1="294.52" x2="204.961" y2="325.143" gradientUnits="userSpaceOnUse">
<stop stop-color="#FF372A"/>
<stop offset="1" stop-color="#FF1514"/>
</linearGradient>
</defs>
</svg>
