<svg width="1918" height="1018" viewBox="0 0 1918 1018" fill="none" xmlns="http://www.w3.org/2000/svg">
<path d="M51.0261 122.706C36.9507 135.305 22.0446 146.511 6.86516 157.535C-10.8472 157.535 -20.8413 182.018 -31.1178 193.581C-85.552 254.834 -111.66 340.918 -142.55 416.071C-162.068 463.559 -181.711 514.516 -187.855 566.224C-195.568 631.15 -198.344 703.806 -182.134 767.647C-176.975 787.966 -170.932 810.803 -159.825 828.536C-155.301 835.759 -151.161 848.27 -142.435 850.334C-137.19 851.575 -132.332 868.231 -130.194 872.133C-122.107 886.89 -111.899 901.047 -99.9904 912.563C-80.3428 931.562 -54.1771 922.119 -30.2025 925.715C-10.6361 928.651 -10.4897 945.268 0.687225 957.865C4.43948 962.094 26.131 921.205 31.3481 916.46C40.9532 907.725 55.3522 917.697 65.2125 921.088C74.0566 924.129 82.8239 884.296 92.098 883.578C94.9882 883.354 106.135 920.076 108.572 922.671C112.931 927.31 112.912 895.802 116.009 901.479C120.442 909.607 109.298 924.178 116.009 928.675C121.873 932.605 140.633 929.308 141.178 935.212C143.365 958.875 154.687 971.502 176.759 971.502C184.064 971.502 192.201 969.307 197.695 975.155C210.203 988.47 228.716 984.759 242.657 974.425C255.462 964.932 249.6 994.639 264.394 997.853C292.078 1003.87 318.896 993.559 346.195 996.148C362.604 997.705 369.507 1012.82 387.839 1009.54C398.293 1007.68 410.481 997.361 420.788 1002.24C437.447 1010.12 464.145 1001.29 481.652 1000.53C504.431 999.543 526.13 1008.62 548.58 1005.16C558.254 1003.67 579.139 990.087 588.507 993.713C591.046 994.695 591.768 997.747 594.571 998.706C603.562 1001.78 615.093 998.941 624.088 997.731C637.204 995.968 650.756 993.256 664.016 994.931C671.397 995.863 678.155 999.353 685.41 1000.9C706.459 1005.38 726.497 997.571 747.303 996.148C766.289 994.85 775.474 1020.34 793.295 1017.82C811.395 1015.27 825.316 992.782 843.977 998.827C854.954 1002.38 865.292 995.514 873.951 989.207C892.905 975.403 909.931 999.769 929.896 1002.97C949.183 1006.06 968.279 1000.05 987.557 1000.05C1008.12 1000.05 1027.21 989.438 1048.42 989.085C1069.45 988.735 1091.49 992.708 1112.15 988.598C1135.64 983.923 1160.99 981.218 1183.54 972.523C1196.71 967.443 1203.42 961.953 1216.83 965.947C1230.58 970.045 1245.55 957.394 1258.24 953.404C1271.82 949.133 1307.33 952.468 1318.19 962.492C1332.47 975.664 1352.23 979.216 1370.59 979.542C1383.54 979.771 1387.5 991.88 1399.08 994.52C1414.48 998.033 1429.45 990.13 1444.27 987.579C1456.58 985.458 1469.14 985.914 1481.11 989.771C1492.04 993.294 1502.73 1000.26 1514.28 1001.22C1530.07 1002.53 1542.81 993.604 1559.13 997.078C1575.95 1000.66 1587.37 997.173 1603.29 990.867C1616.4 985.677 1630.19 995.844 1643.68 996.834C1653.13 997.528 1669.64 991.512 1678 996.225C1685.92 1000.69 1686.85 1004.81 1695.73 998.904C1708.13 990.66 1713.09 986.118 1728 986.118C1743.12 986.118 1757.18 978.784 1772.39 980.029C1780.7 980.71 1787.44 984.482 1793.44 990.502C1796.95 994.032 1800.52 1001.27 1805.56 1002.68C1816.3 1005.69 1824.1 990.298 1835.54 993.181C1849.97 996.819 1855.02 991.68 1869.97 987.701C1876.93 985.849 1884.04 986.118 1891.14 986.118C1899.96 986.118 1909.29 985.164 1917.91 987.457C1930.86 990.903 1933.91 991.137 1945.6 984.169C1951.59 980.596 1957.8 982.121 1964.36 981.734C1973.37 981.201 1981.91 962.749 1985.87 955.429C1989.4 948.899 1995.36 946.303 1999.02 938.502C2001.46 933.317 2005.25 937.95 2006.57 932.779C2011.57 913.299 2031.53 929.658 2046.96 915.701C2051.95 911.185 2049.28 898.441 2052.91 881.875C2056.75 864.366 2083.64 872.22 2085.56 854.321C2086.8 842.821 2044.51 800.15 2046.96 788.836C2047.68 785.498 2051.77 764.868 2051.77 769.717C2051.77 770.675 2050.93 777.632 2052.91 777.632C2055.26 777.632 2061.86 771.414 2063.21 769.595C2068.94 761.867 2070.21 755.366 2070.3 746.213C2070.58 718.605 2072.04 690.756 2075.56 663.404C2078.86 637.79 2077.75 612.746 2079.68 586.927C2080.84 571.446 2079.93 549.715 2088.95 536.51C2095.33 527.166 2103.25 512.286 2103.25 500.464C2103.25 485.183 2107.37 471.108 2107.37 456.136C2107.37 444.347 2106.6 432.231 2108.51 420.577C2110.95 405.719 2115.51 384.011 2111.26 369.308C2110.25 365.813 2102.99 361.749 2100.96 358.713C2090.6 343.217 2084.54 325.018 2076.25 308.297C2067.1 289.841 2072.98 272.944 2062.29 255.495C2058.98 250.09 2057.28 243.64 2059.12 236.532C2064.42 216.029 2068.88 196.334 2062.29 172.879C2058.6 159.731 2061.45 133.584 2054.63 122.256C2048.18 111.567 2029.34 114.685 2023.85 103.465C2019.12 93.7952 2002.52 102.711 1994.22 103.709C1985.41 104.767 1978.42 105.163 1971.8 98.1067C1969.45 95.6122 1965.87 87.8773 1961.84 87.8773C1953.98 87.8773 1943.76 94.8195 1936.44 97.0107C1920.98 101.646 1904.13 104.16 1888.28 100.055C1872 95.8414 1866.97 84.3903 1848.69 85.4418C1831.28 86.4437 1792.8 100.349 1778.79 83.4933C1775.75 79.8372 1774.96 82.8828 1770.1 83.0062C1762.24 83.2054 1761.97 82.8913 1760.94 74.9688C1758.67 57.4416 1749.73 67.5852 1735.32 68.3927C1726.19 68.9041 1719.2 67.3105 1715.3 58.0415C1712.9 52.3571 1712.09 53.0496 1707.71 56.7769L1707.52 56.9455C1703.66 60.2329 1684.52 72.1488 1680.29 63.6434C1678.72 60.4901 1680.76 45.7263 1677.66 44.7676C1674.01 43.641 1661.02 56.1946 1657.98 57.9198C1655.28 59.4477 1644.01 66.6786 1640.36 63.278C1638.08 61.1577 1641.39 59.9351 1636.24 59.8682C1596.56 59.3531 1557.22 61.2791 1517.72 64.2522C1508.02 64.9823 1487.51 71.3634 1487.51 56.0931C1487.51 55.2546 1482.07 61.0102 1481.68 61.3296C1475.53 66.284 1468.66 70.2472 1461.31 72.7768C1449.13 76.9727 1422.38 79.532 1415.89 65.9571C1412.52 58.8976 1408.44 56.2861 1401.02 56.702C1383.34 57.6926 1368.91 58.4586 1351.14 50.613C1345.82 48.2626 1339.32 38.7134 1333.52 38.4351C1311.28 37.3688 1287.74 47.7494 1265.79 50.613C1247.05 53.0582 1225.99 54.4728 1216.26 34.1729C1213.98 29.4245 1214.18 23.4516 1208.48 26.0137C1188.83 34.8431 1169.3 43.567 1148.87 50.2477C1135.58 54.5934 1115.44 62.4603 1101.05 57.9198C1091.46 54.8956 1093.73 45.4366 1087.2 40.6272C1081.91 36.7251 1066.91 44.6043 1060.89 45.0112C1051.63 45.637 1046.09 36.3693 1038.93 37.0956C1012.62 39.7621 983.385 42.5342 957.125 38.6787C921.06 33.3836 883.867 36.123 847.523 33.0769C838.02 32.2803 829.457 30.6715 819.494 30.1542C810.138 29.6684 797.49 29.9329 789.062 24.6741C785.316 22.3371 783.795 15.926 779.452 14.8101C772.724 13.0816 759.468 19.9717 754.168 21.8732C733.228 29.3863 740.24 27.0859 719.16 34.5382C710.274 37.6796 700.087 42.4228 690.558 43.5499C661.063 47.0382 632.106 51.2393 602.236 51.8308C582.542 52.2208 556.212 55.303 537.94 44.7676C528.13 39.1117 527.962 33.8741 515.287 33.0769C492.762 31.6601 470.108 33.0214 447.559 32.1026C440.917 31.8321 432.312 29.43 425.593 30.8849C413.56 33.49 402.022 40.3244 391.156 46.1072C381.517 51.2374 382.588 36.4949 381.661 29.3017C379.468 12.298 379.633 -4.7402 359.008 -1.63007C341.548 1.0028 322.333 7.94511 305.924 14.9318C292.627 20.5933 266.372 44.3649 251.352 35.756C249.465 34.6748 249.773 31.6216 247.462 31.0066C241.314 29.3706 224.377 50.173 221.263 53.0486L221.253 53.0596C220.738 53.6179 200.877 75.1517 198.839 69.367C196.796 63.5665 196.199 65.7287 188.771 69.1234C169.2 78.0679 143.053 72.7584 121.816 75.8474C112.737 77.1678 117.018 92.3224 109.602 98.1067C102.696 103.494 66.3757 133.88 62.4667 115.156C61.4258 110.17 51.4513 122.325 51.0261 122.706Z" fill="white"/>
</svg>
