<svg width="60" height="59" viewBox="0 0 60 59" fill="none" xmlns="http://www.w3.org/2000/svg">
<path d="M45.1549 16L46 16.8101L44.8639 18L44 17.2353L45.1549 16Z" fill="url(#paint0_linear_0_248)"/>
<path d="M14 16.866L14.5223 16.3487C14.6416 16.2273 14.7566 16.0912 14.903 16L16 17.188L15.0458 18L14 16.866Z" fill="url(#paint1_linear_0_248)"/>
<path d="M44.9471 16.3764C44.6792 16.116 44.3596 15.8429 44.1776 15.51C43.9761 15.1415 43.9526 14.6588 44.074 14.2583C44.2197 13.7776 44.5433 13.3907 44.9818 13.1703C45.3649 12.9777 45.8207 12.9449 46.2241 13.0902C46.4116 13.1578 46.5874 13.2556 46.7454 13.3788C47.0817 13.6408 47.3784 13.9895 47.6794 14.2943C48.0679 14.6877 48.6219 15.0981 48.856 15.6126C48.8945 15.6972 48.9189 15.7837 48.9433 15.8732L48.958 15.9256C49.0643 16.323 48.9585 16.7685 48.7567 17.1163C48.5031 17.5536 48.1304 17.8397 47.6454 17.9585C47.3898 18.021 47.0979 18.0108 46.8452 17.9419L46.8011 17.9305C46.4556 17.8378 46.1844 17.6071 45.9409 17.3493L44.9471 16.3764Z" fill="url(#paint2_linear_0_248)"/>
<path d="M14.0006 17.3478C13.7098 17.6405 13.3942 17.8764 12.985 17.9624L12.9396 17.9715C12.7744 18.0054 12.5803 18.0068 12.4126 17.9875C11.9974 17.9396 11.5611 17.6547 11.3118 17.3157C11.0797 17.0002 10.9566 16.5167 11.014 16.1234L11.0213 16.0769C11.0464 15.9075 11.0861 15.7464 11.1584 15.591C11.2871 15.3143 11.4945 15.1178 11.7023 14.9034L12.3626 14.2275C12.6487 13.9361 12.9364 13.5999 13.2579 13.3516C13.4204 13.2261 13.6022 13.1391 13.7957 13.0746C14.2161 12.9344 14.6846 12.9998 15.0738 13.2041C15.4928 13.4241 15.8089 13.7813 15.941 14.2461C16.0653 14.6836 15.9887 15.1518 15.7542 15.537C15.5903 15.8061 15.2953 16.061 15.0675 16.2744C14.8945 16.3875 14.7587 16.5562 14.6177 16.7067L14.0006 17.3478Z" fill="url(#paint3_linear_0_248)"/>
<path d="M26 6.97772C26.155 6.03345 26.7671 5.20594 27.588 4.65008C28.499 4.03315 29.7512 3.90139 30.8377 4.06353C31.888 4.22027 32.775 4.76132 33.3895 5.56046C33.7133 5.98151 33.9201 6.48853 34 7L26 6.97772Z" fill="url(#paint4_linear_0_248)"/>
<path d="M25.8568 7L34.0575 7.0227L34.0919 7.02479L34.984 7.0321C34.9788 7.22633 34.962 7.42733 34.9808 7.62049C35.016 7.98099 34.9921 8.36239 34.9917 8.72471C34.9915 8.85409 35.0207 9.0575 34.9543 9.17058L34.9644 10.3182L32.98 10.3223L32.9653 10.6144L32.9592 11.9777C31.5123 11.784 29.9884 11.7339 28.5315 11.8299C27.9855 11.8659 27.4349 11.9794 26.8927 12L26.8923 10.3174L26.8899 9.17037L25.0185 9.15087L25 7.62604C25.0421 7.43556 25.0143 7.19663 25.0154 7.00016L25.8568 7Z" fill="url(#paint5_linear_0_248)"/>
<path d="M27 10.0144L33 10L32.997 11L27.0025 10.996L27 10.0144Z" fill="url(#paint6_linear_0_248)"/>
<path d="M27 11L32.9909 11.0056C32.9905 11.1187 32.9813 11.2418 33 11.353L32.9939 12.9735C31.5644 12.7432 30.0589 12.6837 28.6194 12.7978C28.08 12.8406 27.5361 12.9756 27.0003 13L27 11Z" fill="url(#paint7_linear_0_248)"/>
<path d="M27.3568 12.2366C27.9094 12.2142 28.4705 12.0907 29.0269 12.0515C30.5118 11.9471 32.0648 12.0016 33.5394 12.2124C33.6539 12.2641 33.7998 12.2672 33.9236 12.2868L34.4898 12.3886C35.0734 12.5013 35.6667 12.6282 36.238 12.7916C38.3548 13.3972 40.443 14.3413 42.2871 15.5334C42.9431 15.9574 43.5518 16.4255 44.1688 16.9016L45.1963 17.7954C47.9439 20.3505 49.9997 23.5504 51.0844 27.127C51.6367 28.9485 51.926 30.8603 51.9874 32.7583C52.0778 35.5488 51.6832 38.3536 50.7131 40.9826C50.2596 42.2116 49.6708 43.3986 49.0042 44.5277C48.2291 45.8404 47.3198 47.0987 46.2592 48.2041C44.868 49.6542 43.2672 50.9794 41.5317 52.0105C38.327 53.9146 34.6168 54.9103 30.8878 54.9948C25.3746 55.1197 19.7928 52.9784 15.807 49.214C15.2449 48.6832 14.6832 48.1283 14.1806 47.5428C11.006 43.8446 9.10849 39.0937 9 34.2373L9.02007 32.9937C9.03455 32.0835 9.06087 31.2012 9.18589 30.2964C9.78831 25.9373 11.803 21.7869 14.8894 18.608L15.6554 17.8418L16.8012 16.8486C19.8193 14.4135 23.4635 12.8009 27.3228 12.2443L27.3568 12.2366Z" fill="url(#paint8_linear_0_248)"/>
<path d="M29.0607 16.01C33.5026 15.8496 37.9108 17.634 41.1875 20.5892C42.0217 21.3414 42.7582 22.1909 43.4289 23.0908C45.4687 25.8274 46.7983 29.1421 46.972 32.572C47.0295 33.7085 47.0042 34.8645 46.8432 35.9924C46.3659 39.3364 44.8172 42.6163 42.5481 45.119C40.0124 47.9156 36.6643 49.8687 32.9624 50.64C31.9843 50.8438 31.0051 50.9447 30.0085 50.9931C25.4236 51.1221 20.9821 49.4272 17.6045 46.3297C14.9743 43.9177 13.1096 40.5932 12.3698 37.1065C12.1588 36.1122 12.0575 35.1204 12.0149 34.1063C11.8199 29.4674 13.5487 24.9938 16.6872 21.5968C18.9638 19.1328 21.9777 17.3454 25.2303 16.53C26.4856 16.2153 27.7697 16.0609 29.0607 16.01Z" fill="white"/>
<path d="M29.4967 48.9974C27.3333 49.0395 25.0496 48.576 23.0676 47.7434C19.0057 46.0369 15.7751 42.8669 14.1431 38.8611C12.8206 35.615 12.6436 31.9702 13.6227 28.6139C13.8058 27.9864 14 27.3807 14.2684 26.7821C14.5987 26.0451 14.9646 25.3173 15.3979 24.6316C17.2528 21.6963 20.0491 19.3988 23.3538 18.144C26.6067 16.909 30.1545 16.6449 33.5452 17.4937C34.4519 17.7207 35.3483 18.0452 36.2064 18.4087C37.0869 18.8212 37.9349 19.2581 38.7434 19.7943C41.724 21.771 43.9319 24.7218 45.1162 28.0152C46.5039 31.8746 46.2513 36.204 44.4017 39.8828C43.0059 42.6589 40.7451 45.0542 38.0226 46.6535C36.9158 47.3038 35.7148 47.8221 34.4899 48.2237C32.8991 48.7451 31.1682 48.9545 29.4967 48.9974Z" fill="url(#paint9_linear_0_248)"/>
<path d="M40.3607 39.0145C40.4544 38.9981 40.5553 38.99 40.6469 39.021C40.7802 39.066 40.901 39.176 40.9563 39.307C41.0082 39.4299 41.0178 39.5709 40.9637 39.6953C40.8931 39.8575 40.7724 39.9258 40.6193 39.9914C40.5313 39.9968 40.4271 40.012 40.3426 39.9815C40.2155 39.9356 40.1097 39.8365 40.0515 39.7138C39.9895 39.5832 39.9821 39.4414 40.0367 39.3064C40.0991 39.1523 40.2187 39.08 40.3607 39.0145Z" fill="#2F201C"/>
<path d="M35.4862 43C35.576 43.0074 35.6586 43.0138 35.7397 43.0553C35.8577 43.1158 35.9418 43.2105 35.9794 43.3371C36.0224 43.4813 35.9965 43.64 35.9166 43.7663C35.8241 43.9122 35.6806 43.9616 35.5191 44C35.4041 43.9808 35.3162 43.9628 35.2181 43.8956C35.105 43.8182 35.0254 43.6901 35.0043 43.5563C34.9848 43.4327 35.0335 43.277 35.1126 43.18C35.2106 43.0597 35.3362 43.0206 35.4862 43Z" fill="#2F201C"/>
<path d="M40.4199 27.0027C40.4971 26.9976 40.5768 26.9978 40.6515 27.0209C40.7872 27.0628 40.9057 27.1782 40.9615 27.3083C41.0151 27.4331 41.0113 27.553 40.959 27.677C40.8869 27.8479 40.759 27.9299 40.5967 27.9978C40.506 28.0043 40.409 27.9973 40.3237 27.9632C40.1895 27.9096 40.0652 27.7783 40.0193 27.6394C39.9769 27.5108 40.0086 27.3574 40.0727 27.2423C40.1518 27.1002 40.2693 27.0437 40.4199 27.0027Z" fill="#2F201C"/>
<path d="M35.4341 22C35.5302 22.0067 35.6171 22.0112 35.7067 22.0493C35.826 22.1001 35.9214 22.1853 35.9687 22.3105C36.014 22.4305 36.0098 22.5781 35.9579 22.6956C35.8795 22.8725 35.7505 22.9338 35.583 22.9976C35.4465 23.0049 35.3326 22.9996 35.2133 22.9202C35.1049 22.848 35.0251 22.7274 35.0065 22.5955C34.9863 22.4513 35.012 22.2985 35.0988 22.1808C35.1879 22.0599 35.2936 22.0236 35.4341 22Z" fill="#2F201C"/>
<path d="M30.0053 45.0131C30.1727 44.9692 30.4196 45.0411 30.5626 45.1432C30.7795 45.298 30.941 45.5497 30.99 45.8323L31 45.9038L30.9868 47.9014C30.932 48.2369 30.858 48.5738 30.5845 48.777C30.4042 48.9108 30.2128 48.9747 30 49L30.0053 45.0131Z" fill="url(#paint10_linear_0_248)"/>
<path d="M31 19.9328L31.0047 19C32.7266 19.0952 34.3968 19.416 36 19.9479C35.8341 20.3139 35.425 20.6186 35.2906 20.9923L35.2752 21C35.185 20.9064 34.9171 20.8398 34.7817 20.7935C33.5598 20.3746 32.297 20.1246 31 19.9328Z" fill="url(#paint11_linear_0_248)"/>
<path d="M35.7791 20C36.3474 20.1854 36.9 20.5008 37.4167 20.7915C40.0349 22.2646 42.0863 24.4363 43.4212 27.039C44.3326 28.8158 44.8107 30.7652 44.9927 32.7281L43.8918 32.73C43.7093 32.73 43.501 32.7112 43.3224 32.7399L43.3453 34.1638L45 34.1665C44.899 35.2067 44.7558 36.2349 44.4784 37.2475C43.9312 39.2449 42.8982 41.0837 41.53 42.6716C40.9319 43.3658 40.305 44.0175 39.5805 44.593C38.8003 45.2127 37.9384 45.8101 37.0484 46.2777C35.7617 46.9536 34.3523 47.4274 32.9205 47.7261C32.298 47.856 31.6372 47.9851 31 48L31.017 45.796C31.0822 46.0392 31.0381 46.358 31.0343 46.6108C31.4442 46.5824 31.8752 46.4719 32.278 46.3888C34.6208 45.9054 36.7178 44.8997 38.55 43.4271C40.7936 41.6239 42.3478 39.1506 43.0128 36.4196C43.1915 35.6855 43.2832 34.9308 43.3517 34.1807L42.0168 34.1855C41.8744 34.1892 41.5376 34.1932 41.4319 34.1063C41.2163 33.9291 41.1341 33.7573 41.1194 33.4842C41.108 33.275 41.1717 33.0359 41.3326 32.8865C41.6294 32.6107 42.3106 32.7151 42.7029 32.7193C42.8861 32.6881 43.1361 32.7202 43.3263 32.7217C43.2659 32.1399 43.2144 31.5565 43.1033 30.9809C42.7879 29.3463 42.1167 27.7796 41.1956 26.3734C39.9528 24.4759 38.2028 22.9462 36.222 21.7753C35.8931 21.5809 35.4428 21.2643 35.0645 21.1816C35.1962 20.7598 35.5968 20.4158 35.7593 20.0026L35.7791 20Z" fill="url(#paint12_linear_0_248)"/>
<path d="M36.9172 18C37.8236 18.418 38.6967 18.8609 39.5291 19.4042C42.5977 21.4075 44.8708 24.398 46.0901 27.7357C47.5188 31.647 47.2587 36.0346 45.3545 39.7629C43.9175 42.5763 41.5899 45.0038 38.787 46.6247C37.6475 47.2837 36.4111 47.809 35.1499 48.2159C33.5122 48.7443 31.7302 48.9566 30.0093 49L30 48.7062C30.277 48.678 30.5263 48.6069 30.7608 48.4578C31.117 48.2314 31.2133 47.856 31.2846 47.4823C31.9291 47.4672 32.5974 47.3369 33.227 47.2057C34.6752 46.9041 36.1006 46.4257 37.402 45.7431C38.3022 45.271 39.1739 44.6677 39.963 44.042C40.6959 43.4609 41.3299 42.8028 41.9349 42.1018C43.3187 40.4984 44.3634 38.6416 44.917 36.6247C45.1975 35.6022 45.3423 34.5639 45.4445 33.5135L43.7709 33.5108L43.7477 32.073C43.9283 32.0441 44.139 32.063 44.3236 32.063L45.4371 32.0611C45.253 30.0791 44.7695 28.1106 43.8477 26.3164C42.4975 23.6883 40.4226 21.4953 37.7745 20.0079C37.2519 19.7143 36.693 19.3958 36.1183 19.2086C36.1855 19.0462 36.3059 18.8853 36.4043 18.7382L36.9172 18Z" fill="url(#paint13_linear_0_248)"/>
<path d="M31 25L32.2044 25.1917L32.2339 25.1887L32.2751 25.2135C32.4444 25.3115 32.671 25.3569 32.855 25.4283C33.1737 25.5518 33.4885 25.7015 33.7898 25.8646C35.6238 26.8571 37.0367 28.5784 37.6385 30.6245C38.2735 32.7837 38.0721 35.3009 37.033 37.2896C36.7013 37.9243 36.268 38.4699 35.799 39L31.5462 34.8192L31.6948 34.6465C32.0023 34.2746 32.181 33.7529 32.1733 33.2661C32.1666 32.8555 32.0727 32.4339 31.8595 32.0837C31.8049 31.9939 31.6817 31.8717 31.6487 31.7795C31.6211 31.7024 31.6244 31.5588 31.6157 31.4717L31.5382 30.6693L31.1919 26.8316L31 25Z" fill="white"/>
<path d="M29.9892 44.8703L29.9545 44.8681C29.5892 44.8531 29.3099 44.9315 29.0427 45.1877C28.8827 45.341 28.7615 45.5152 28.7041 45.7284C28.6257 46.0195 28.6724 46.3796 28.6773 46.6794L28.6838 48C27.7212 47.9665 26.7634 47.7793 25.8402 47.5184C23.6825 46.9088 21.8039 45.8616 20.1042 44.4435C19.5897 44.0141 19.1363 43.5476 18.6903 43.0521C16.5013 40.6199 15.2543 37.6655 15 34.4409L16.8396 34.444C17.1916 34.4436 17.6056 34.4806 17.9482 34.395C18.1014 34.3567 18.2583 34.268 18.3748 34.1651C18.5715 33.9914 18.6814 33.7245 18.6868 33.4695C18.6925 33.196 18.5883 32.9474 18.3879 32.7534C18.2473 32.6173 18.0541 32.5204 17.8578 32.4864C17.5552 32.434 17.1768 32.4727 16.8666 32.4739L15.0014 32.4755C15.0922 31.2746 15.3447 30.0266 15.7369 28.8845C16.9975 25.2137 19.7035 22.1618 23.2695 20.4361C24.8002 19.6954 26.5218 19.1916 28.2288 19.0453C28.4018 19.0304 28.6997 18.9687 28.8581 19.0201L28.8607 20.8875C28.8612 21.1556 28.8297 21.4661 28.8736 21.7287C28.8915 21.8359 28.9545 21.9429 29.0336 22.0186C29.2907 22.2647 29.7408 22.1946 30.074 22.1938C30.3742 22.1953 30.6892 22.2472 30.9252 22.0285C31.0116 21.9484 31.0765 21.8627 31.105 21.7486C31.1477 21.5779 31.1215 21.3507 31.1207 21.1731L31.1211 20.013C32.3748 20.2299 33.5955 20.5126 34.7766 20.9862C34.9075 21.0387 35.1664 21.1139 35.2536 21.2198L32.3015 25.96L32.271 25.9629L31.0215 25.7754L31.2205 27.5666L31.5798 31.3198L31.6602 32.1045C31.6692 32.1896 31.6658 32.3301 31.6945 32.4055C31.7287 32.4956 31.8565 32.6152 31.9132 32.703C32.1343 33.0455 32.2317 33.4578 32.2386 33.8594C32.2467 34.3354 32.0613 34.8456 31.7422 35.2093L31.5881 35.3783L36 39.4669C34.5204 40.9153 32.6385 41.807 30.5303 41.9487L30.1132 41.9752C30.0765 41.9774 30.0215 41.9509 30.0029 41.9818C29.9715 42.0346 30.0045 42.4216 30.0047 42.5015L30.0102 44.6871C30.0103 44.7523 30.0131 44.8077 29.9892 44.8703Z" fill="white"/>
<path d="M24.4077 22.0024C24.5124 21.9963 24.6199 21.9989 24.7168 22.0456C24.8241 22.0973 24.9225 22.2101 24.9625 22.324C25.0106 22.4609 25.0171 22.5806 24.9545 22.7127C24.8818 22.8662 24.762 22.9352 24.612 22.9938C24.4966 23.0058 24.3654 23.0052 24.261 22.9466C24.1498 22.8841 24.0516 22.7577 24.0184 22.6326C23.9851 22.5073 23.9952 22.3604 24.0634 22.2483C24.1481 22.1091 24.2566 22.0449 24.4077 22.0024Z" fill="#2F201C"/>
<path d="M18.3976 39.0039C18.4927 38.9999 18.5922 38.9909 18.6821 39.0285C18.8055 39.08 18.9142 39.1723 18.9624 39.299C19.0131 39.4324 19.0148 39.578 18.9536 39.7081C18.8886 39.8462 18.7726 39.9426 18.6301 39.9945C18.5453 39.9992 18.457 40.0078 18.3743 39.9842C18.2363 39.945 18.1224 39.8617 18.0549 39.7347C17.9967 39.6252 17.9817 39.4586 18.0249 39.3412C18.0919 39.1594 18.2281 39.0761 18.3976 39.0039Z" fill="#2F201C"/>
<path d="M24.4179 43.0006C24.5115 42.9974 24.5952 43.0069 24.6836 43.0401C24.8084 43.087 24.914 43.1781 24.9654 43.3018C25.0237 43.4419 25.0044 43.5905 24.9373 43.7227C24.8604 43.8744 24.7352 43.9453 24.5785 43.9991C24.496 44.0031 24.4021 43.9941 24.3249 43.9638C24.1956 43.9132 24.0738 43.8116 24.0266 43.6792C23.9803 43.5494 23.9965 43.3843 24.0588 43.2621C24.1367 43.1095 24.2595 43.0474 24.4179 43.0006Z" fill="#2F201C"/>
<path d="M18.3749 27.0053C18.4838 26.9999 18.5825 26.9886 18.685 27.0342C18.8079 27.0891 18.9192 27.1966 18.9672 27.3227C19.0066 27.4258 19.0155 27.5981 18.9661 27.7004C18.8917 27.8546 18.7694 27.9358 18.6158 27.9979C18.5286 28.0003 18.4388 28.0059 18.3548 27.9783C18.22 27.9343 18.1069 27.835 18.0457 27.7075C17.987 27.585 17.9851 27.4271 18.0388 27.3028C18.1039 27.1524 18.2296 27.0681 18.3749 27.0053Z" fill="#2F201C"/>
<path d="M28.8073 25.6712L29.1523 23.0074L30.5186 23L30.8279 25.6738L31.0195 27.5039L31.3655 31.3385L31.4429 32.1401C31.4516 32.2271 31.4482 32.3707 31.4759 32.4477C31.5088 32.5398 31.6318 32.6619 31.6864 32.7517C31.8994 33.1016 31.9931 33.5228 31.9998 33.9331C32.0075 34.4195 31.829 34.9407 31.5218 35.3123L31.3735 35.4849C30.9021 35.9092 30.459 36.1227 29.8247 36.1327L29.8195 42C29.2359 41.9793 28.6667 41.9566 28.0924 41.8348C27.2453 41.655 26.4134 41.2525 25.6812 40.7869C23.9758 39.7025 22.6707 37.7874 22.2191 35.7771C21.7547 33.7094 22.0157 31.3027 23.1251 29.4887C24.0804 27.9268 25.4266 26.7686 27.1182 26.1424C27.6722 25.9373 28.2349 25.8056 28.8073 25.6712Z" fill="white"/>
<path d="M29.0049 25.6442L29.3285 23.0073L30.6102 23L30.9004 25.6468L31.0802 27.4584L31.4048 31.2542L31.4774 32.0477C31.4855 32.1339 31.4824 32.276 31.5083 32.3523C31.5392 32.4434 31.6546 32.5643 31.7058 32.6531C31.9056 32.9995 31.9936 33.4165 31.9998 33.8226C32.0071 34.3041 31.8396 34.8201 31.5514 35.1879L31.4122 35.3587C30.97 35.7787 30.5543 35.9901 29.9593 36L29.6647 35.9642C29.135 35.8829 28.6746 35.5554 28.3613 35.0891C28.0372 34.6067 27.9446 34.0395 28.03 33.4553C28.1075 32.9245 28.4019 32.4753 28.7961 32.1645L28.8243 32.1425C28.6988 29.9658 28.7702 27.8102 29.0049 25.6442Z" fill="#2F201C"/>
<path d="M29.884 32C30.1402 32.0053 30.3352 32.0175 30.56 32.165C30.7748 32.306 30.9253 32.5321 30.9767 32.7847C31.0319 33.0564 30.9908 33.3245 30.8358 33.5559C30.6618 33.8155 30.4261 33.9419 30.1245 33.9956C29.9103 34.0133 29.7035 33.9785 29.515 33.8709C29.2731 33.7327 29.0895 33.4894 29.0249 33.2172C28.9625 32.9548 29.0199 32.6555 29.1697 32.433C29.3428 32.1761 29.5902 32.0525 29.884 32Z" fill="white"/>
<defs>
<linearGradient id="paint0_linear_0_248" x1="44.1362" y1="17.0013" x2="46" y2="17.0013" gradientUnits="userSpaceOnUse">
<stop stop-color="#FF372A"/>
<stop offset="1" stop-color="#FF1514"/>
</linearGradient>
<linearGradient id="paint1_linear_0_248" x1="14.1362" y1="17.0013" x2="16" y2="17.0013" gradientUnits="userSpaceOnUse">
<stop stop-color="#FF372A"/>
<stop offset="1" stop-color="#FF1514"/>
</linearGradient>
<linearGradient id="paint2_linear_0_248" x1="44.3405" y1="15.5034" x2="49" y2="15.5034" gradientUnits="userSpaceOnUse">
<stop stop-color="#FF372A"/>
<stop offset="1" stop-color="#FF1514"/>
</linearGradient>
<linearGradient id="paint3_linear_0_248" x1="11.3405" y1="15.5034" x2="16" y2="15.5034" gradientUnits="userSpaceOnUse">
<stop stop-color="#FF372A"/>
<stop offset="1" stop-color="#FF1514"/>
</linearGradient>
<linearGradient id="paint4_linear_0_248" x1="26.5448" y1="5.50201" x2="34" y2="5.50201" gradientUnits="userSpaceOnUse">
<stop stop-color="#FF372A"/>
<stop offset="1" stop-color="#FF1514"/>
</linearGradient>
<linearGradient id="paint5_linear_0_248" x1="25.6811" y1="9.50335" x2="35" y2="9.50335" gradientUnits="userSpaceOnUse">
<stop stop-color="#FF372A"/>
<stop offset="1" stop-color="#FF1514"/>
</linearGradient>
<linearGradient id="paint6_linear_0_248" x1="27.4086" y1="10.5007" x2="33" y2="10.5007" gradientUnits="userSpaceOnUse">
<stop stop-color="#FF372A"/>
<stop offset="1" stop-color="#FF1514"/>
</linearGradient>
<linearGradient id="paint7_linear_0_248" x1="27.4086" y1="12.0013" x2="33" y2="12.0013" gradientUnits="userSpaceOnUse">
<stop stop-color="#FF372A"/>
<stop offset="1" stop-color="#FF1514"/>
</linearGradient>
<linearGradient id="paint8_linear_0_248" x1="11.9285" y1="33.5288" x2="51.9999" y2="33.5288" gradientUnits="userSpaceOnUse">
<stop stop-color="#FF372A"/>
<stop offset="1" stop-color="#FF1514"/>
</linearGradient>
<linearGradient id="paint9_linear_0_248" x1="15.2475" y1="33.0214" x2="45.9999" y2="33.0214" gradientUnits="userSpaceOnUse">
<stop stop-color="#FF372A"/>
<stop offset="1" stop-color="#FF1514"/>
</linearGradient>
<linearGradient id="paint10_linear_0_248" x1="30.0681" y1="47.0027" x2="31" y2="47.0027" gradientUnits="userSpaceOnUse">
<stop stop-color="#FF372A"/>
<stop offset="1" stop-color="#FF1514"/>
</linearGradient>
<linearGradient id="paint11_linear_0_248" x1="31.3405" y1="20.0013" x2="36" y2="20.0013" gradientUnits="userSpaceOnUse">
<stop stop-color="#FF372A"/>
<stop offset="1" stop-color="#FF1514"/>
</linearGradient>
<linearGradient id="paint12_linear_0_248" x1="31.9535" y1="34.0188" x2="45" y2="34.0188" gradientUnits="userSpaceOnUse">
<stop stop-color="#FF372A"/>
<stop offset="1" stop-color="#FF1514"/>
</linearGradient>
<linearGradient id="paint13_linear_0_248" x1="31.1578" y1="33.5208" x2="47" y2="33.5208" gradientUnits="userSpaceOnUse">
<stop stop-color="#FF372A"/>
<stop offset="1" stop-color="#FF1514"/>
</linearGradient>
</defs>
</svg>
