<svg width="570" height="12" viewBox="0 0 570 12" fill="none" xmlns="http://www.w3.org/2000/svg">
<path fill-rule="evenodd" clip-rule="evenodd" d="M1.21501 6.97663C16.3869 3.63774 26.2159 2 30.8201 2C31.8665 2 32.5367 2.08712 32.914 2.20372C32.8903 2.23472 32.8632 2.26834 32.8323 2.30459C32.6632 2.50306 32.4095 2.74689 32.0532 3.03641C31.3405 3.61558 30.2948 4.31545 28.8939 5.13755C27.4548 5.98212 26.3113 6.74058 25.4857 7.41141C25.0728 7.74689 24.7201 8.07598 24.4455 8.39834C24.1786 8.71153 23.9377 9.07343 23.8231 9.4768C23.698 9.91742 23.7274 10.4107 24.0181 10.8493C24.2807 11.2457 24.6784 11.4765 25.042 11.6188C25.759 11.8993 26.7766 12 27.9801 12C32.8426 12 42.8936 10.3044 58.015 6.97663C73.1869 3.63774 83.0159 2 87.6201 2C88.6665 2 89.3367 2.08712 89.714 2.20372C89.6903 2.23472 89.6632 2.26834 89.6323 2.30459C89.4632 2.50306 89.2095 2.74689 88.8532 3.03641C88.1404 3.61558 87.0948 4.31545 85.6939 5.13755C84.2548 5.98212 83.1113 6.74058 82.2857 7.41141C81.8728 7.74689 81.5201 8.07598 81.2455 8.39834C80.9786 8.71153 80.7377 9.07343 80.6231 9.4768C80.498 9.91742 80.5274 10.4107 80.8181 10.8493C81.0807 11.2457 81.4784 11.4765 81.842 11.6188C82.559 11.8993 83.5766 12 84.7801 12C89.6426 12 99.6936 10.3044 114.815 6.97663C129.987 3.63774 139.816 2 144.42 2C145.466 2 146.137 2.08711 146.514 2.20372C146.49 2.23471 146.463 2.26834 146.432 2.30459C146.263 2.50306 146.01 2.74689 145.653 3.03641C144.94 3.61558 143.895 4.31545 142.494 5.13755C141.055 5.98212 139.911 6.74058 139.086 7.41141C138.673 7.74689 138.32 8.07598 138.045 8.39834C137.779 8.71153 137.538 9.07343 137.423 9.4768C137.298 9.91742 137.327 10.4107 137.618 10.8493C137.881 11.2457 138.278 11.4765 138.642 11.6188C139.359 11.8993 140.377 12 141.58 12C146.443 12 156.494 10.3044 171.615 6.97663C186.787 3.63774 196.616 2 201.22 2C202.266 2 202.937 2.08712 203.314 2.20372C203.29 2.23472 203.263 2.26834 203.232 2.30459C203.063 2.50306 202.81 2.74689 202.453 3.03641C201.74 3.61558 200.695 4.31545 199.294 5.13755C197.855 5.98212 196.711 6.74058 195.886 7.41141C195.473 7.74689 195.12 8.07598 194.845 8.39834C194.579 8.71153 194.338 9.07343 194.223 9.4768C194.098 9.91742 194.127 10.4107 194.418 10.8493C194.681 11.2457 195.078 11.4765 195.442 11.6188C196.159 11.8993 197.177 12 198.38 12C203.243 12 213.294 10.3044 228.415 6.97663C243.587 3.63774 253.416 2 258.02 2C259.066 2 259.737 2.08712 260.114 2.20372C260.09 2.23471 260.063 2.26834 260.032 2.30459C259.863 2.50306 259.61 2.74689 259.253 3.03641C258.54 3.61558 257.495 4.31545 256.094 5.13755C254.655 5.98212 253.511 6.74058 252.686 7.41141C252.273 7.74689 251.92 8.07598 251.645 8.39834C251.379 8.71153 251.138 9.07343 251.023 9.4768C250.898 9.91742 250.927 10.4107 251.218 10.8493C251.481 11.2457 251.878 11.4765 252.242 11.6188C252.959 11.8993 253.977 12 255.18 12C260.043 12 270.094 10.3044 285.215 6.97663C300.387 3.63774 310.216 2 314.82 2C315.866 2 316.537 2.08712 316.914 2.20372C316.89 2.23472 316.863 2.26834 316.832 2.30459C316.663 2.50306 316.409 2.74689 316.053 3.03641C315.34 3.61558 314.295 4.31545 312.894 5.13755C311.455 5.98212 310.311 6.74058 309.486 7.41141C309.073 7.74689 308.72 8.07598 308.445 8.39834C308.179 8.71153 307.938 9.07343 307.823 9.4768C307.698 9.91742 307.727 10.4107 308.018 10.8493C308.281 11.2457 308.678 11.4765 309.042 11.6188C309.759 11.8993 310.776 12 311.98 12C316.842 12 326.893 10.3044 342.015 6.97663C357.187 3.63774 367.016 2 371.62 2C372.666 2 373.337 2.08712 373.714 2.20372C373.69 2.23472 373.663 2.26834 373.632 2.30459C373.463 2.50306 373.209 2.74689 372.853 3.03641C372.14 3.61558 371.095 4.31545 369.694 5.13755C368.255 5.98212 367.111 6.74058 366.286 7.41141C365.873 7.74689 365.52 8.07598 365.245 8.39834C364.979 8.71153 364.738 9.07343 364.623 9.4768C364.498 9.91742 364.527 10.4107 364.818 10.8493C365.081 11.2457 365.478 11.4765 365.842 11.6188C366.559 11.8993 367.576 12 368.78 12C373.643 12 383.693 10.3044 398.815 6.97663C413.987 3.63774 423.816 2 428.42 2C429.466 2 430.137 2.08711 430.514 2.20372C430.49 2.23471 430.463 2.26834 430.432 2.30459C430.263 2.50306 430.009 2.74689 429.653 3.03641C428.94 3.61558 427.895 4.31545 426.494 5.13755C425.055 5.98212 423.911 6.74058 423.086 7.41141C422.673 7.74689 422.32 8.07598 422.045 8.39834C421.779 8.71153 421.538 9.07343 421.423 9.4768C421.298 9.91742 421.327 10.4107 421.618 10.8493C421.881 11.2457 422.278 11.4765 422.642 11.6188C423.359 11.8993 424.376 12 425.58 12C430.443 12 440.493 10.3044 455.615 6.97663C470.787 3.63774 480.616 2 485.22 2C486.266 2 486.937 2.08712 487.314 2.20372C487.29 2.23472 487.263 2.26834 487.232 2.30459C487.063 2.50306 486.809 2.74689 486.453 3.03641C485.74 3.61558 484.695 4.31545 483.294 5.13755C481.855 5.98212 480.711 6.74058 479.886 7.41141C479.473 7.74689 479.12 8.07598 478.845 8.39834C478.579 8.71153 478.338 9.07343 478.223 9.4768C478.098 9.91742 478.127 10.4107 478.418 10.8493C478.681 11.2457 479.078 11.4765 479.442 11.6188C480.159 11.8993 481.176 12 482.38 12C487.242 12 497.293 10.3044 512.415 6.97663C527.587 3.63774 537.416 2 542.02 2C543.066 2 543.737 2.08712 544.114 2.20372C544.09 2.23471 544.063 2.26834 544.032 2.30459C543.863 2.50306 543.609 2.74689 543.253 3.03641C542.54 3.61558 541.495 4.31545 540.094 5.13755C538.655 5.98212 537.511 6.74058 536.686 7.41141C536.273 7.74689 535.92 8.07598 535.645 8.39834C535.379 8.71153 535.138 9.07343 535.023 9.4768C534.898 9.91742 534.927 10.4107 535.218 10.8493C535.481 11.2457 535.878 11.4765 536.242 11.6188C536.959 11.8993 537.976 12 539.18 12C544.042 12 554.094 10.3044 569.215 6.97663L568.785 5.02337C553.613 8.36226 543.784 10 539.18 10C538.134 10 537.463 9.91289 537.086 9.79628C537.11 9.76529 537.137 9.73166 537.168 9.69541C537.337 9.49694 537.591 9.25311 537.947 8.96359C538.66 8.38442 539.705 7.68455 541.106 6.86245C542.545 6.01788 543.689 5.25942 544.514 4.58859C544.927 4.25311 545.28 3.92402 545.555 3.60166C545.821 3.28847 546.062 2.92657 546.177 2.5232C546.302 2.08258 546.273 1.58933 545.982 1.15074C545.719 0.754339 545.322 0.523472 544.958 0.381236C544.241 0.100697 543.224 0 542.02 0C537.157 0 527.107 1.69559 511.985 5.02337C496.813 8.36226 486.984 10 482.38 10C481.334 10 480.663 9.91288 480.286 9.79628C480.295 9.7849 480.304 9.77317 480.314 9.76108C480.33 9.74024 480.348 9.71835 480.368 9.69541C480.537 9.49694 480.791 9.25311 481.147 8.96359C481.86 8.38442 482.905 7.68455 484.306 6.86245C485.745 6.01788 486.889 5.25942 487.714 4.58859C488.127 4.25311 488.48 3.92402 488.755 3.60166C489.021 3.28847 489.262 2.92657 489.377 2.5232C489.502 2.08258 489.473 1.58933 489.182 1.15074C488.919 0.754339 488.522 0.523472 488.158 0.381236C487.441 0.100697 486.424 0 485.22 0C480.357 0 470.307 1.69559 455.185 5.02337C440.013 8.36226 430.184 10 425.58 10C424.534 10 423.863 9.91289 423.486 9.79628C423.51 9.76529 423.537 9.73166 423.568 9.69541C423.737 9.49694 423.991 9.25311 424.347 8.96359C425.06 8.38442 426.105 7.68455 427.506 6.86245C428.945 6.01788 430.089 5.25942 430.914 4.58859C431.327 4.25311 431.68 3.92402 431.955 3.60166C432.221 3.28847 432.462 2.92657 432.577 2.5232C432.702 2.08258 432.673 1.58933 432.382 1.15074C432.119 0.754339 431.722 0.523472 431.358 0.381236C430.641 0.100697 429.624 0 428.42 0C423.557 0 413.507 1.69559 398.385 5.02337C383.213 8.36226 373.384 10 368.78 10C367.734 10 367.063 9.91289 366.686 9.79628C366.71 9.76529 366.737 9.73166 366.768 9.69541C366.937 9.49694 367.191 9.25311 367.547 8.96359C368.26 8.38442 369.305 7.68455 370.706 6.86245C372.145 6.01788 373.289 5.25942 374.114 4.58859C374.527 4.25311 374.88 3.92402 375.155 3.60166C375.421 3.28847 375.662 2.92657 375.777 2.5232C375.902 2.08258 375.873 1.58933 375.582 1.15074C375.319 0.754339 374.922 0.523472 374.558 0.381236C373.841 0.100697 372.824 0 371.62 0C366.758 0 356.707 1.69559 341.585 5.02337C326.413 8.36226 316.584 10 311.98 10C310.934 10 310.263 9.91289 309.886 9.79628C309.91 9.76529 309.937 9.73166 309.968 9.69541C310.137 9.49694 310.391 9.25311 310.747 8.96359C311.46 8.38442 312.505 7.68455 313.906 6.86245C315.345 6.01788 316.489 5.25942 317.314 4.58859C317.727 4.25311 318.08 3.92402 318.355 3.60166C318.621 3.28847 318.862 2.92657 318.977 2.5232C319.102 2.08258 319.073 1.58933 318.782 1.15074C318.519 0.754339 318.122 0.523472 317.758 0.381236C317.041 0.100697 316.024 0 314.82 0C309.957 0 299.906 1.69559 284.785 5.02337C269.613 8.36226 259.784 10 255.18 10C254.134 10 253.463 9.91289 253.086 9.79628C253.11 9.76529 253.137 9.73166 253.168 9.69541C253.337 9.49694 253.591 9.25311 253.947 8.96359C254.66 8.38442 255.705 7.68455 257.106 6.86245C258.545 6.01788 259.689 5.25942 260.514 4.58859C260.927 4.25311 261.28 3.92402 261.555 3.60166C261.822 3.28847 262.062 2.92657 262.177 2.5232C262.302 2.08258 262.273 1.58933 261.982 1.15074C261.719 0.754339 261.322 0.523472 260.958 0.381236C260.241 0.100697 259.224 0 258.02 0C253.158 0 243.107 1.69559 227.985 5.02337C212.813 8.36226 202.984 10 198.38 10C197.334 10 196.663 9.91288 196.286 9.79628C196.31 9.76528 196.337 9.73166 196.368 9.69541C196.537 9.49694 196.791 9.25311 197.147 8.96359C197.86 8.38442 198.905 7.68455 200.306 6.86245C201.745 6.01788 202.889 5.25942 203.714 4.58859C204.127 4.25311 204.48 3.92402 204.755 3.60166C205.022 3.28847 205.262 2.92657 205.377 2.5232C205.502 2.08258 205.473 1.58933 205.182 1.15074C204.919 0.754339 204.522 0.523472 204.158 0.381236C203.441 0.100697 202.424 0 201.22 0C196.358 0 186.307 1.69559 171.185 5.02337C156.013 8.36226 146.184 10 141.58 10C140.534 10 139.863 9.91289 139.486 9.79628C139.51 9.76529 139.537 9.73166 139.568 9.69541C139.737 9.49694 139.991 9.25311 140.347 8.96359C141.06 8.38442 142.105 7.68455 143.506 6.86245C144.945 6.01788 146.089 5.25942 146.914 4.58859C147.327 4.25311 147.68 3.92402 147.955 3.60166C148.222 3.28847 148.462 2.92657 148.577 2.5232C148.702 2.08258 148.673 1.58933 148.382 1.15074C148.119 0.754339 147.722 0.523472 147.358 0.381236C146.641 0.100697 145.624 0 144.42 0C139.558 0 129.507 1.69559 114.385 5.02337C99.2133 8.36226 89.3842 10 84.7801 10C83.7337 10 83.0635 9.91289 82.6861 9.79628C82.7098 9.76529 82.7369 9.73166 82.7678 9.69541C82.9369 9.49694 83.1907 9.25311 83.547 8.96359C84.2597 8.38442 85.3054 7.68455 86.7062 6.86245C88.1454 6.01788 89.2889 5.25942 90.1145 4.58859C90.5273 4.25311 90.8801 3.92402 91.1547 3.60166C91.4215 3.28847 91.6625 2.92657 91.777 2.5232C91.9022 2.08258 91.8727 1.58933 91.5821 1.15074C91.3194 0.754339 90.9217 0.523472 90.5582 0.381236C89.8411 0.100697 88.8236 0 87.6201 0C82.7576 0 72.7066 1.69559 57.5852 5.02337C42.4133 8.36226 32.5842 10 27.9801 10C26.9337 10 26.2635 9.91289 25.8861 9.79628C25.9098 9.76529 25.9369 9.73166 25.9678 9.69541C26.1369 9.49694 26.3907 9.25311 26.747 8.96359C27.4597 8.38442 28.5054 7.68455 29.9062 6.86245C31.3454 6.01788 32.4889 5.25942 33.3145 4.58859C33.7273 4.25311 34.0801 3.92402 34.3547 3.60166C34.6215 3.28847 34.8625 2.92657 34.977 2.5232C35.1022 2.08258 35.0728 1.58933 34.7821 1.15074C34.5194 0.754339 34.1217 0.523472 33.7582 0.381236C33.0411 0.100697 32.0236 0 30.8201 0C25.9576 0 15.9066 1.69559 0.785156 5.02337L1.21501 6.97663Z" fill="url(#paint0_linear_0_536)"/>
<defs>
<linearGradient id="paint0_linear_0_536" x1="39.4984" y1="6.00804" x2="569.213" y2="6.00804" gradientUnits="userSpaceOnUse">
<stop stop-color="#FF372A"/>
<stop offset="1" stop-color="#FF1514"/>
</linearGradient>
</defs>
</svg>
