<svg width="821" height="12" viewBox="0 0 821 12" fill="none" xmlns="http://www.w3.org/2000/svg">
<path fill-rule="evenodd" clip-rule="evenodd" d="M410.298 6.96614C432.098 3.64526 446.322 2 453.05 2C454.613 2 455.691 2.09032 456.346 2.2385C456.089 2.43697 455.729 2.67144 455.25 2.94106C454.194 3.53569 452.658 4.24644 450.623 5.07362C448.558 5.91311 446.933 6.66069 445.769 7.31606C445.188 7.64314 444.696 7.96106 444.315 8.27095C443.957 8.56245 443.594 8.9264 443.412 9.37065C443.313 9.61158 443.257 9.90209 443.313 10.216C443.368 10.5331 443.523 10.7917 443.711 10.9882C444.053 11.346 444.539 11.535 444.973 11.6527C445.878 11.8981 447.23 12 448.95 12C455.873 12 470.301 10.3193 492.151 6.98858C514.034 3.65267 528.306 2 535.05 2C536.613 2 537.692 2.09032 538.346 2.2385C538.089 2.43697 537.729 2.67144 537.25 2.94106C536.194 3.53569 534.658 4.24644 532.623 5.07362C530.558 5.91311 528.933 6.66069 527.769 7.31606C527.188 7.64314 526.696 7.96106 526.315 8.27095C525.957 8.56245 525.594 8.9264 525.412 9.37065C525.313 9.61158 525.257 9.90209 525.313 10.216C525.368 10.5331 525.523 10.7917 525.711 10.9882C526.053 11.346 526.539 11.535 526.973 11.6527C527.878 11.8981 529.23 12 530.95 12C537.873 12 552.301 10.3193 574.151 6.98858C596.034 3.65267 610.306 2 617.05 2C618.614 2 619.692 2.09032 620.346 2.2385C620.089 2.43697 619.729 2.67144 619.25 2.94106C618.194 3.53569 616.658 4.24644 614.623 5.07362C612.558 5.91311 610.933 6.66069 609.769 7.31606C609.188 7.64314 608.696 7.96106 608.315 8.27095C607.957 8.56245 607.594 8.9264 607.412 9.37065C607.313 9.61158 607.257 9.90209 607.313 10.216C607.368 10.5331 607.523 10.7917 607.711 10.9882C608.053 11.346 608.539 11.535 608.973 11.6527C609.878 11.8981 611.23 12 612.95 12C619.873 12 634.301 10.3193 656.151 6.98858C678.034 3.65267 692.306 2 699.05 2C700.613 2 701.692 2.09031 702.346 2.2385C702.089 2.43696 701.729 2.67144 701.25 2.94106C700.194 3.53569 698.658 4.24644 696.623 5.07362C694.558 5.91311 692.933 6.66069 691.769 7.31606C691.188 7.64314 690.696 7.96106 690.315 8.27095C689.957 8.56245 689.594 8.9264 689.412 9.37065C689.313 9.61158 689.257 9.90209 689.313 10.216C689.368 10.5331 689.523 10.7917 689.711 10.9882C690.053 11.346 690.539 11.535 690.973 11.6527C691.878 11.8981 693.23 12 694.95 12C701.873 12 716.301 10.3193 738.151 6.98858C760.034 3.65267 774.306 2 781.05 2C782.613 2 783.692 2.09031 784.346 2.2385C784.089 2.43696 783.729 2.67144 783.25 2.94106C782.194 3.53569 780.658 4.24644 778.623 5.07362C776.558 5.91311 774.933 6.66069 773.769 7.31606C773.188 7.64314 772.696 7.96106 772.315 8.27095C771.957 8.56245 771.594 8.9264 771.412 9.37065C771.313 9.61158 771.257 9.90209 771.313 10.216C771.368 10.5331 771.523 10.7917 771.711 10.9882C772.053 11.346 772.539 11.535 772.973 11.6527C773.878 11.8981 775.23 12 776.95 12C783.873 12 798.301 10.3193 820.151 6.98858L819.849 5.01142C797.966 8.34733 783.694 10 776.95 10C775.387 10 774.308 9.90969 773.654 9.7615C773.911 9.56304 774.271 9.32856 774.75 9.05894C775.806 8.46431 777.342 7.75356 779.377 6.92638C781.442 6.08689 783.067 5.33931 784.231 4.68394C784.812 4.35686 785.304 4.03894 785.685 3.72905C786.043 3.43755 786.406 3.0736 786.588 2.62935C786.687 2.38842 786.743 2.09791 786.687 1.78397C786.632 1.46687 786.477 1.20832 786.289 1.01185C785.947 0.65401 785.461 0.46497 785.027 0.347315C784.122 0.101943 782.77 0 781.05 0C774.127 0 759.699 1.68067 737.849 5.01142C715.966 8.34733 701.694 10 694.95 10C693.387 10 692.308 9.90969 691.654 9.7615C691.911 9.56304 692.271 9.32856 692.75 9.05894C693.806 8.46431 695.342 7.75356 697.377 6.92638C699.442 6.08689 701.067 5.33931 702.231 4.68394C702.812 4.35686 703.304 4.03894 703.685 3.72905C704.043 3.43755 704.406 3.0736 704.588 2.62935C704.687 2.38842 704.743 2.09791 704.687 1.78397C704.632 1.46687 704.477 1.20832 704.289 1.01185C703.947 0.65401 703.461 0.46497 703.027 0.347315C702.122 0.101943 700.77 0 699.05 0C692.127 0 677.699 1.68067 655.849 5.01142C633.966 8.34733 619.694 10 612.95 10C611.386 10 610.308 9.90969 609.654 9.7615C609.911 9.56304 610.271 9.32856 610.75 9.05894C611.806 8.46431 613.342 7.75356 615.377 6.92638C617.442 6.08689 619.067 5.33931 620.231 4.68394C620.812 4.35686 621.304 4.03894 621.685 3.72905C622.043 3.43755 622.406 3.0736 622.588 2.62935C622.687 2.38842 622.743 2.09791 622.687 1.78397C622.632 1.46687 622.477 1.20832 622.289 1.01185C621.947 0.65401 621.461 0.46497 621.027 0.347315C620.122 0.101943 618.77 0 617.05 0C610.127 0 595.699 1.68067 573.849 5.01142C551.966 8.34733 537.694 10 530.95 10C529.387 10 528.308 9.90969 527.654 9.7615C527.911 9.56304 528.271 9.32856 528.75 9.05894C529.806 8.46431 531.342 7.75356 533.377 6.92638C535.442 6.08689 537.067 5.33931 538.231 4.68394C538.812 4.35686 539.304 4.03894 539.685 3.72905C540.043 3.43755 540.406 3.0736 540.588 2.62935C540.687 2.38842 540.743 2.09791 540.687 1.78397C540.632 1.46687 540.477 1.20832 540.289 1.01185C539.947 0.65401 539.461 0.46497 539.027 0.347315C538.122 0.101943 536.77 0 535.05 0C528.127 0 513.699 1.68067 491.849 5.01142C469.966 8.34733 455.694 10 448.95 10C447.387 10 446.309 9.90969 445.654 9.7615C445.911 9.56304 446.271 9.32856 446.75 9.05894C447.806 8.46431 449.342 7.75356 451.377 6.92638C453.442 6.08689 455.067 5.33931 456.231 4.68394C456.812 4.35686 457.304 4.03894 457.685 3.72905C458.043 3.43755 458.406 3.0736 458.588 2.62935C458.687 2.38842 458.743 2.09791 458.687 1.78397C458.632 1.46687 458.477 1.20832 458.289 1.01185C457.947 0.65401 457.461 0.46497 457.027 0.347315C456.122 0.101943 454.77 0 453.05 0C446.127 0 431.699 1.68067 409.849 5.01142L409.853 5.03389C388.052 8.35478 373.829 10 367.101 10C365.537 10 364.459 9.90972 363.805 9.76153C364.061 9.56307 364.422 9.32859 364.901 9.05898C365.957 8.46434 367.492 7.75359 369.527 6.92641C371.592 6.08693 373.217 5.33934 374.382 4.68398C374.963 4.35689 375.454 4.03897 375.835 3.72908C376.194 3.43758 376.556 3.07363 376.738 2.62938C376.837 2.38845 376.893 2.09794 376.838 1.784C376.782 1.4669 376.628 1.20835 376.44 1.01188C376.097 0.654041 375.612 0.465 375.178 0.347345C374.272 0.101974 372.92 3.05176e-05 371.201 3.05176e-05C364.278 3.05176e-05 349.85 1.6807 328 5.01145C306.116 8.34736 291.844 10 285.101 10C283.537 10 282.459 9.90972 281.805 9.76153C282.061 9.56307 282.422 9.32859 282.901 9.05898C283.957 8.46434 285.492 7.75359 287.527 6.92641C289.592 6.08693 291.217 5.33934 292.382 4.68398C292.963 4.35689 293.454 4.03897 293.835 3.72908C294.194 3.43758 294.556 3.07363 294.738 2.62938C294.837 2.38845 294.893 2.09794 294.838 1.784C294.782 1.4669 294.628 1.20835 294.44 1.01188C294.097 0.654041 293.612 0.465 293.178 0.347345C292.272 0.101974 290.92 3.05176e-05 289.201 3.05176e-05C282.278 3.05176e-05 267.85 1.6807 246 5.01145C224.116 8.34736 209.844 10 203.101 10C201.537 10 200.459 9.90972 199.805 9.76153C200.061 9.56307 200.422 9.32859 200.901 9.05898C201.957 8.46434 203.492 7.75359 205.527 6.92641C207.592 6.08693 209.217 5.33934 210.382 4.68398C210.963 4.35689 211.454 4.03897 211.835 3.72908C212.194 3.43758 212.556 3.07363 212.738 2.62938C212.837 2.38845 212.893 2.09794 212.838 1.784C212.782 1.4669 212.628 1.20835 212.44 1.01188C212.097 0.654041 211.612 0.465 211.178 0.347345C210.272 0.101974 208.92 3.05176e-05 207.201 3.05176e-05C200.278 3.05176e-05 185.85 1.6807 164 5.01145C142.116 8.34736 127.844 10 121.101 10C119.537 10 118.459 9.90972 117.805 9.76153C118.061 9.56307 118.422 9.32859 118.901 9.05898C119.957 8.46434 121.492 7.75359 123.527 6.92641C125.592 6.08693 127.217 5.33934 128.382 4.68398C128.963 4.35689 129.454 4.03897 129.835 3.72908C130.194 3.43758 130.556 3.07363 130.738 2.62938C130.837 2.38845 130.893 2.09794 130.838 1.784C130.782 1.4669 130.628 1.20835 130.44 1.01188C130.097 0.654041 129.612 0.465 129.178 0.347345C128.272 0.101974 126.92 3.05176e-05 125.201 3.05176e-05C118.278 3.05176e-05 103.85 1.6807 82 5.01145C60.1164 8.34736 45.8442 10 39.1007 10C37.5372 10 36.4592 9.90972 35.8049 9.76153C36.0614 9.56307 36.4215 9.32859 36.9006 9.05898C37.957 8.46434 39.4924 7.75359 41.5273 6.92641C43.5924 6.08693 45.2174 5.33934 46.3818 4.68398C46.9629 4.35689 47.4543 4.03897 47.8354 3.72908C48.194 3.43758 48.5563 3.07363 48.7385 2.62938C48.8372 2.38845 48.8933 2.09794 48.8382 1.784C48.7824 1.4669 48.6277 1.20835 48.4397 1.01188C48.0974 0.654041 47.612 0.465 47.1779 0.347345C46.2725 0.101974 44.9204 3.05176e-05 43.2007 3.05176e-05C36.2776 3.05176e-05 21.8497 1.6807 0 5.01145L0.301396 6.98861C22.185 3.6527 36.4572 2.00003 43.2007 2.00003C44.7642 2.00003 45.8422 2.09035 46.4965 2.23853C46.24 2.437 45.8799 2.67147 45.4008 2.94109C44.3444 3.53572 42.809 4.24647 40.7741 5.07365C38.709 5.91314 37.084 6.66072 35.9196 7.31609C35.3385 7.64317 34.8471 7.96109 34.466 8.27098C34.1074 8.56248 33.7451 8.92643 33.5629 9.37068C33.4642 9.61161 33.4081 9.90212 33.4632 10.2161C33.519 10.5332 33.6737 10.7917 33.8617 10.9882C34.204 11.346 34.6894 11.5351 35.1235 11.6527C36.0289 11.8981 37.381 12 39.1007 12C46.0238 12 60.4516 10.3194 82.3014 6.98861C104.185 3.6527 118.457 2.00003 125.201 2.00003C126.764 2.00003 127.842 2.09035 128.496 2.23853C128.24 2.437 127.88 2.67147 127.401 2.94109C126.344 3.53572 124.809 4.24647 122.774 5.07365C120.709 5.91314 119.084 6.66072 117.92 7.31609C117.338 7.64317 116.847 7.96109 116.466 8.27098C116.107 8.56248 115.745 8.92643 115.563 9.37068C115.464 9.61161 115.408 9.90212 115.463 10.2161C115.519 10.5332 115.674 10.7917 115.862 10.9882C116.204 11.346 116.689 11.5351 117.124 11.6527C118.029 11.8981 119.381 12 121.101 12C128.024 12 142.452 10.3194 164.301 6.98861C186.185 3.6527 200.457 2.00003 207.201 2.00003C208.764 2.00003 209.842 2.09035 210.496 2.23853C210.24 2.437 209.88 2.67147 209.401 2.94109C208.344 3.53572 206.809 4.24647 204.774 5.07365C202.709 5.91314 201.084 6.66072 199.92 7.31609C199.338 7.64317 198.847 7.96109 198.466 8.27098C198.107 8.56248 197.745 8.92643 197.563 9.37068C197.464 9.61161 197.408 9.90212 197.463 10.2161C197.519 10.5332 197.674 10.7917 197.862 10.9882C198.204 11.346 198.689 11.5351 199.124 11.6527C200.029 11.8981 201.381 12 203.101 12C210.024 12 224.452 10.3194 246.301 6.98861C268.185 3.6527 282.457 2.00003 289.201 2.00003C290.764 2.00003 291.842 2.09035 292.496 2.23853C292.24 2.437 291.88 2.67147 291.401 2.94109C290.344 3.53572 288.809 4.24647 286.774 5.07365C284.709 5.91314 283.084 6.66072 281.92 7.31609C281.338 7.64317 280.847 7.96109 280.466 8.27098C280.107 8.56248 279.745 8.92643 279.563 9.37068C279.464 9.61161 279.408 9.90212 279.463 10.2161C279.519 10.5332 279.674 10.7917 279.862 10.9882C280.204 11.346 280.689 11.5351 281.124 11.6527C282.029 11.8981 283.381 12 285.101 12C292.024 12 306.452 10.3194 328.301 6.98861C350.185 3.6527 364.457 2.00003 371.201 2.00003C372.764 2.00003 373.842 2.09035 374.496 2.23853C374.24 2.437 373.88 2.67147 373.401 2.94109C372.344 3.53572 370.809 4.24647 368.774 5.07365C366.709 5.91314 365.084 6.66072 363.92 7.31609C363.338 7.64317 362.847 7.96109 362.466 8.27098C362.107 8.56248 361.745 8.92643 361.563 9.37068C361.464 9.61161 361.408 9.90212 361.463 10.2161C361.519 10.5332 361.674 10.7917 361.862 10.9882C362.204 11.346 362.689 11.5351 363.124 11.6527C364.029 11.8981 365.381 12 367.101 12C374.024 12 388.452 10.3194 410.301 6.98861L410.298 6.96614Z" fill="url(#paint0_linear_0_168)"/>
<defs>
<linearGradient id="paint0_linear_0_168" x1="55.8568" y1="6.00806" x2="820.148" y2="6.00806" gradientUnits="userSpaceOnUse">
<stop stop-color="#FF372A"/>
<stop offset="1" stop-color="#FF1514"/>
</linearGradient>
</defs>
</svg>
