<svg width="412" height="15" viewBox="0 0 412 15" fill="none" xmlns="http://www.w3.org/2000/svg">
<path d="M0.999512 7.5C44.7328 -1.16667 58.3995 -1.16667 41.9995 7.5C25.5995 16.1667 39.2662 16.1667 82.9995 7.5C126.733 -1.16667 140.4 -1.16667 124 7.5C107.6 16.1667 121.266 16.1667 165 7.5C208.733 -1.16667 222.4 -1.16667 206 7.5C189.6 16.1667 203.266 16.1667 247 7.5C290.733 -1.16667 304.4 -1.16667 288 7.5C271.6 16.1667 285.266 16.1667 329 7.5C372.733 -1.16667 386.4 -1.16667 370 7.5C353.6 16.1667 367.266 16.1667 411 7.5" stroke="url(#paint0_linear_0_616)" stroke-width="2"/>
<defs>
<linearGradient id="paint0_linear_0_616" x1="28.9228" y1="7.50871" x2="410.998" y2="7.50871" gradientUnits="userSpaceOnUse">
<stop stop-color="#FF372A"/>
<stop offset="1" stop-color="#FF1514"/>
</linearGradient>
</defs>
</svg>
